<svg width="335" height="81" viewBox="0 0 335 81" fill="none" xmlns="http://www.w3.org/2000/svg">
<path d="M9.1543 4.79688C11.0293 4.88477 11.9668 5.00195 11.9668 5.14844L12.3184 4.97266C24.3008 5.67578 31.0977 6.02734 32.709 6.02734H35.3457C39.5938 6.02734 44.1055 6.08594 48.8809 6.20312C52.8652 6.08594 56.4395 5.79297 59.6035 5.32422C61.127 5.32422 61.8887 5.73437 61.8887 6.55469V7.60938L61.7129 8.66406C61.9473 9.60156 62.0645 10.7148 62.0645 12.0039V12.3555C61.8301 21.4082 61.3027 28.9082 60.4824 34.8555C60.1309 38.4883 59.9551 44.6992 59.9551 53.4883C59.9551 56.0078 60.248 61.457 60.834 69.8359V70.5391C60.834 73.8203 60.541 75.4609 59.9551 75.4609C58.666 75.9297 56.9668 76.1641 54.8574 76.1641H49.0566L30.9512 77.3945H29.5449C17.3867 76.2227 9.88672 75.6367 7.04492 75.6367H2.12305C1.18555 75.6367 0.716797 74.875 0.716797 73.3516V65.2656C0.716797 64.5625 0.599609 63.2148 0.365234 61.2227C0.365234 55.041 0.951172 46.8965 2.12305 36.7891C2.12305 30.4609 2.88477 20.5 4.4082 6.90625C4.81836 5.73437 5.11133 5.14844 5.28711 5.14844C5.28711 4.97266 6.57617 4.85547 9.1543 4.79688ZM46.9473 9.19141C46.7129 9.71875 46.4785 10.0117 46.2441 10.0703H46.0684C45.9512 10.0703 45.8926 10.0117 45.8926 9.89453C44.1934 10.5977 42.8457 11.3008 41.8496 12.0039C39.7402 14.3477 38.6855 16.5156 38.6855 18.5078C37.3965 20.5 36.752 23.0195 36.752 26.0664C36.8691 26.6816 36.9277 27.2676 36.9277 27.8242V28.3516C36.9277 29.7871 36.752 31.0762 36.4004 32.2188C36.4004 32.3066 36.459 32.6582 36.5762 33.2734C36.3418 33.2734 36.166 33.8594 36.0488 35.0312C35.6387 35.3535 35.1699 36.2324 34.6426 37.668L34.8184 38.0195C34.8184 38.2539 34.7012 38.6641 34.4668 39.25L34.6426 40.3047L34.1152 41.0078L34.291 41.8867C34.0566 41.9453 33.8223 42.2383 33.5879 42.7656L33.7637 43.8203L33.2363 44.5234C33.4707 44.9922 33.5879 45.4023 33.5879 45.7539C33.002 46.0176 32.709 46.3105 32.709 46.6328C32.8262 46.8672 32.8848 47.043 32.8848 47.1602C32.5332 47.1602 32.1816 48.0391 31.8301 49.7969L32.0059 51.0273C31.5078 51.8477 31.2148 52.2578 31.127 52.2578C30.4824 52.2578 29.8965 50.9102 29.3691 48.2148C29.3105 48.2148 29.1348 47.6875 28.8418 46.6328C28.959 45.8418 29.0176 45.1973 29.0176 44.6992V44.3477C28.168 39.4258 27.2891 36.9648 26.3809 36.9648C25.7949 35.8809 25.502 35.0605 25.502 34.5039V33.8008L26.3809 31.6914V31.3398C24.1543 28.9961 23.041 27.707 23.041 27.4727V26.7695C23.3926 26.1543 23.5684 25.5684 23.5684 25.0117V24.8359C22.748 22.9609 22.3379 21.6133 22.3379 20.793C22.5723 19.8555 22.6895 19.2695 22.6895 19.0352C21.8984 15.8711 20.6094 13.7031 18.8223 12.5312C18.5586 12.5312 17.5039 11.7109 15.6582 10.0703C14.7207 9.83594 13.959 9.71875 13.373 9.71875C10.8535 10.041 9.27148 10.627 8.62695 11.4766H7.74805C7.74805 11.5938 7.68945 11.7695 7.57227 12.0039L7.92383 12.8828C7.2207 12.8828 6.86914 13.1172 6.86914 13.5859C6.98633 13.7031 7.04492 14.1133 7.04492 14.8164H6.69336V15.5195C6.89844 15.6953 7.19141 16.457 7.57227 17.8047C8.04102 17.8047 8.27539 18.8594 8.27539 20.9688V21.1445C8.27539 21.2617 8.2168 21.3203 8.09961 21.3203C8.2168 21.4961 8.33398 22.1406 8.45117 23.2539H8.27539L8.45117 23.6055V23.7812C8.45117 24.1914 8.09961 25.2461 7.39648 26.9453V27.8242C7.77734 29.6113 8.07031 30.7832 8.27539 31.3398L7.74805 32.3945L7.92383 33.0977C7.68945 33.4785 7.57227 33.8301 7.57227 34.1523L7.92383 35.207H7.74805L7.92383 35.5586C7.80664 35.793 7.74805 35.9688 7.74805 36.0859C7.98242 36.4668 8.09961 36.7598 8.09961 36.9648C8.01172 37.668 7.89453 38.0195 7.74805 38.0195C7.86523 38.2539 7.92383 38.4297 7.92383 38.5469C7.57227 39.1328 7.39648 39.7188 7.39648 40.3047V40.4805C7.86523 42.3262 8.09961 43.498 8.09961 43.9961C7.63086 44.9043 7.39648 45.666 7.39648 46.2812V46.6328L8.45117 49.4453C8.45117 50.5586 7.80664 51.7891 6.51758 53.1367C6.51758 53.1953 6.45898 53.4297 6.3418 53.8398C6.69336 54.6309 6.86914 55.2754 6.86914 55.7734V56.125C6.40039 58.4395 6.16602 59.7871 6.16602 60.168C6.16602 60.2852 6.22461 60.3438 6.3418 60.3438L6.16602 61.5742V62.9805C6.16602 63.0684 6.2832 63.5371 6.51758 64.3867L6.16602 64.9141L6.3418 65.793L5.28711 66.6719L5.46289 67.0234V67.5508C5.46289 67.6094 5.3457 67.7852 5.11133 68.0781V68.4297C5.43359 68.6641 5.84375 69.3672 6.3418 70.5391C6.86914 71.2422 7.33789 71.5938 7.74805 71.5938C8.04102 71.5938 8.68555 71.4766 9.68164 71.2422V71.418L10.0332 71.2422H10.3848C10.707 71.2422 11.0586 71.3594 11.4395 71.5938C11.4395 71.3594 11.6152 71.2422 11.9668 71.2422C12.084 71.2422 12.5527 71.3008 13.373 71.418C13.5488 71.418 13.9004 71.1836 14.4277 70.7148H14.6035C14.7207 70.7148 15.1895 70.832 16.0098 71.0664C16.3906 70.832 16.6836 70.7148 16.8887 70.7148C16.8887 70.9199 17.1816 71.0957 17.7676 71.2422C17.7676 70.627 18.5879 70.041 20.2285 69.4844L20.0527 69.1328V68.957C20.0527 68.6641 20.5215 68.4883 21.459 68.4297V66.8477H21.8105L22.1621 67.0234C22.1621 66.9062 22.2207 66.8477 22.3379 66.8477L21.8105 64.5625H21.9863C21.4004 62.9219 20.7559 62.1016 20.0527 62.1016C20.0527 62.3359 19.9355 62.4531 19.7012 62.4531L16.7129 60.168L16.5371 59.8164C16.5371 59.6992 16.5957 59.6406 16.7129 59.6406L16.0098 57.707V57.1797C16.2441 56.8867 16.3613 56.7109 16.3613 56.6523C16.3613 56.3887 16.3027 56.1543 16.1855 55.9492C16.4199 55.627 16.5957 54.748 16.7129 53.3125L16.5371 52.4336C16.5371 52.3457 16.5957 51.9941 16.7129 51.3789C16.5957 51.1445 16.5371 50.9688 16.5371 50.8516H16.7129L16.5371 50.5V50.1484L16.8887 49.6211C16.6543 49.1523 16.5371 48.7422 16.5371 48.3906L16.8887 47.6875L16.5371 46.8086C16.5371 46.7207 16.5957 46.3691 16.7129 45.7539C16.5957 45.1094 16.5371 44.6406 16.5371 44.3477L16.7129 43.9961C16.4785 43.9961 16.3027 42.6484 16.1855 39.9531H16.3613L16.1855 39.6016V38.3711C16.1855 38.2539 16.2441 38.1953 16.3613 38.1953C16.127 37.7266 16.0098 37.375 16.0098 37.1406H16.1855C16.1855 37.0234 16.127 36.9648 16.0098 36.9648C16.127 36.5547 16.1855 36.3203 16.1855 36.2617C16.1855 36.1738 16.127 35.8223 16.0098 35.207C16.127 34.7969 16.1855 34.5625 16.1855 34.5039C16.0684 34.0352 16.0098 33.625 16.0098 33.2734C16.0098 33.1562 16.0684 32.9805 16.1855 32.7461C15.9512 32.2773 15.834 31.9258 15.834 31.6914C15.9512 31.6914 16.0098 31.6328 16.0098 31.5156C15.8926 31.5156 15.834 31.457 15.834 31.3398L16.1855 31.1641C16.0684 30.8711 16.0098 30.2266 16.0098 29.2305H16.1855C15.9512 28.6445 15.834 28.2344 15.834 28H16.0098L15.834 27.6484V27.4727C15.9512 27.4727 16.127 27.4141 16.3613 27.2969C17.3281 28.5859 17.8555 29.2305 17.9434 29.2305L17.7676 30.1094L18.4707 31.1641C18.2363 31.5449 18.1191 31.8379 18.1191 32.043C18.3242 32.043 18.7344 33.5664 19.3496 36.6133C19.6719 36.6133 20.0234 38.0195 20.4043 40.832C20.5215 40.832 20.5801 40.8906 20.5801 41.0078C20.5801 41.2715 20.5215 41.5059 20.4043 41.7109L20.9316 42.5898C20.9316 42.6484 20.873 42.8828 20.7559 43.293C21.6934 47.4238 22.1621 49.5332 22.1621 49.6211C22.1621 50.1191 22.9238 50.9395 24.4473 52.082C24.4473 52.1406 24.5059 52.375 24.623 52.7852C24.3887 53.5176 24.0371 54.1621 23.5684 54.7188C23.5684 55.3047 23.8613 56.3594 24.4473 57.8828C24.3301 57.8828 24.2715 57.9414 24.2715 58.0586C24.5938 58.0586 24.9453 58.7617 25.3262 60.168C25.4434 60.168 26.0293 61.1055 27.084 62.9805C27.3184 63.0098 27.4355 63.127 27.4355 63.332L27.2598 63.6836C27.4355 64.2109 27.6699 64.6797 27.9629 65.0898C27.8457 65.2949 27.7871 65.5293 27.7871 65.793C28.1387 65.8516 28.3145 66.3203 28.3145 67.1992L28.1387 68.0781C28.7832 69.25 29.3691 69.8359 29.8965 69.8359C32.4746 69.3672 33.7637 68.4883 33.7637 67.1992C34.3496 66.8184 34.6426 66.584 34.6426 66.4961C34.4082 66.1152 34.291 65.8223 34.291 65.6172H34.6426C34.9941 65.6172 35.1699 65.8516 35.1699 66.3203H35.6973C35.6973 65.3828 35.9316 64.9141 36.4004 64.9141V64.7383C36.4004 64.4746 36.3418 64.2402 36.2246 64.0352C36.3711 63.6543 36.6055 63.3027 36.9277 62.9805C36.459 62.043 36.1074 61.2227 35.873 60.5195C35.873 60.2852 36.1074 59.7578 36.5762 58.9375H37.6309C37.6309 58.8203 37.6895 58.6445 37.8066 58.4102C37.6895 58.2051 37.6309 57.9707 37.6309 57.707C38.0703 57.4727 38.3633 57.1211 38.5098 56.6523C38.1582 56.6523 37.9824 56.5352 37.9824 56.3008V56.125C38.6855 55.5684 39.0371 55.1582 39.0371 54.8945C38.6855 54.8945 38.5098 54.7773 38.5098 54.543V54.3672C39.2129 53.8984 39.5645 53.6055 39.5645 53.4883V53.1367C39.2129 53.1367 39.0371 53.0195 39.0371 52.7852C39.7402 52.2285 40.0918 51.7598 40.0918 51.3789C39.916 51.3789 39.7402 51.2031 39.5645 50.8516L40.6191 50.3242C40.502 49.8555 40.3262 49.4453 40.0918 49.0938C40.6191 48.8594 40.9121 48.625 40.9707 48.3906V48.0391L40.6191 47.5117C41.2051 47.043 41.498 46.5742 41.498 46.1055C41.2637 46.1055 41.1465 45.9883 41.1465 45.7539C41.1465 45.6953 41.3809 45.4023 41.8496 44.875V44.6992L41.6738 43.8203C42.0254 43.8203 42.3184 43.4688 42.5527 42.7656L42.377 42.4141V42.2383C42.7285 41.7402 42.9043 41.2715 42.9043 40.832C42.6699 40.832 42.5527 40.7148 42.5527 40.4805V40.3047C42.5527 40.0117 42.7871 39.8359 43.2559 39.7773V39.4258C42.9043 38.957 42.7285 38.6055 42.7285 38.3711C43.4316 38.1074 43.7832 37.873 43.7832 37.668L43.4316 37.1406V36.4375C43.9004 36.4375 44.1348 36.2617 44.1348 35.9102L43.6074 34.8555C44.1055 34.6797 44.457 34.3867 44.6621 33.9766C44.457 33.9766 44.2812 33.6836 44.1348 33.0977C44.9551 32.6582 45.3652 32.3652 45.3652 32.2188C44.8965 32.2188 44.6621 31.9258 44.6621 31.3398L45.1895 30.9883H45.541C45.8926 31.1055 46.0684 31.457 46.0684 32.043H45.7168V32.3945L46.2441 33.0977L46.0684 33.4492C46.3027 33.4785 46.4199 33.5957 46.4199 33.8008L46.0684 33.9766C46.0684 33.8594 46.0098 33.8008 45.8926 33.8008C45.8926 33.9473 46.0098 34.5918 46.2441 35.7344C46.0098 35.7344 45.8926 35.793 45.8926 35.9102C46.127 36.291 46.2441 36.6426 46.2441 36.9648C46.127 36.9648 46.0684 37.0234 46.0684 37.1406C46.1855 37.1406 46.2441 37.1992 46.2441 37.3164C46.0098 37.3457 45.8926 37.4629 45.8926 37.668V38.0195C46.2441 38.0195 46.4199 38.1367 46.4199 38.3711V38.7227C46.4199 38.8398 46.3613 38.8984 46.2441 38.8984L46.4199 39.25V39.4258H45.8926V39.7773H46.0684L46.4199 39.6016L46.5957 39.9531V41.0078L46.7715 42.2383H46.5957L46.7715 42.5898L46.5957 43.293C46.7129 43.5273 46.7715 43.7031 46.7715 43.8203C46.625 44.5234 46.332 44.875 45.8926 44.875V45.2266C46.1562 45.2266 46.3906 45.2852 46.5957 45.4023C46.5371 46.2227 46.3027 46.6328 45.8926 46.6328V46.8086L46.4199 47.8633C46.3027 48.332 46.0684 48.5664 45.7168 48.5664C45.9512 48.918 46.127 49.3281 46.2441 49.7969C46.0684 50.2656 45.8926 50.5 45.7168 50.5C45.9512 51.0859 46.0684 51.5547 46.0684 51.9062H45.8926C46.0684 52.375 46.2441 52.6094 46.4199 52.6094L46.2441 53.4883C46.3613 54.25 46.4199 55.0117 46.4199 55.7734H46.2441L46.4199 56.125V56.3008C46.4199 57.0332 45.541 58.1465 43.7832 59.6406C43.2266 61.5156 42.7578 62.4531 42.377 62.4531L42.5527 63.1562C41.7617 64.6797 41.1172 65.4414 40.6191 65.4414C40.6191 65.3242 40.5605 65.2656 40.4434 65.2656C40.4434 65.5 40.2676 65.6172 39.916 65.6172V65.793L40.2676 66.3203V66.4961C40.2676 66.7305 40.0332 66.8477 39.5645 66.8477V67.1992C39.5645 67.3164 39.6816 67.7852 39.916 68.6055V68.7812H39.5645L39.2129 68.6055V68.7812C39.2129 69.6895 40.7363 70.3926 43.7832 70.8906C44.2227 70.8906 45.5117 71.2422 47.6504 71.9453C49.9648 71.8281 51.4883 71.7695 52.2207 71.7695L52.9238 71.9453C54.0078 71.6816 54.8281 71.2129 55.3848 70.5391H55.9121C56 69.6016 56.1758 69.1328 56.4395 69.1328C56.6738 69.25 56.8496 69.3086 56.9668 69.3086V69.1328C56.8496 68.8984 56.791 68.7227 56.791 68.6055L56.9668 68.2539C56.8496 68.0488 56.791 67.8145 56.791 67.5508L57.1426 67.375C57.1719 67.6094 57.2891 67.7266 57.4941 67.7266V67.5508C57.377 67.1406 57.3184 66.9062 57.3184 66.8477C57.3184 66.7305 57.377 66.6719 57.4941 66.6719C57.4941 64.9434 56.791 63.3613 55.3848 61.9258C55.2676 61.5156 55.209 61.2812 55.209 61.2227H55.3848C53.8613 59.0547 53.0996 57.6484 53.0996 57.0039L52.9238 56.3008C52.9238 56.2129 52.9824 55.8613 53.0996 55.2461C52.9824 54.7773 52.9238 54.3672 52.9238 54.0156L53.2754 53.8398L53.0996 52.6094V52.2578C53.1289 52.0234 53.2461 51.9062 53.4512 51.9062L53.2754 51.0273V50.5L53.627 49.9727L53.4512 49.0938C53.8027 48.5371 53.9785 48.1855 53.9785 48.0391C53.8613 47.6289 53.8027 47.3945 53.8027 47.3359C54.0371 46.8672 54.1543 46.5156 54.1543 46.2812C53.8027 45.3438 53.627 44.7578 53.627 44.5234C53.8613 44.5234 53.9785 44.4062 53.9785 44.1719V43.6445L53.8027 42.7656C54.0371 42.7656 54.1543 42.6484 54.1543 42.4141V41.5352L53.9785 41.1836C54.2129 41.0664 54.3887 41.0078 54.5059 41.0078C54.5059 40.7734 54.3887 40.6562 54.1543 40.6562L54.3301 40.3047L53.8027 39.25L54.1543 39.0742C54.1543 39.1914 54.2129 39.25 54.3301 39.25V39.0742C54.2129 38.8398 54.1543 38.6641 54.1543 38.5469H54.3301C54.0957 37.9609 53.9785 37.5508 53.9785 37.3164H54.3301V36.9648L54.1543 36.0859H54.3301L54.1543 35.7344V35.5586H54.6816C54.4473 34.9727 54.3301 34.5625 54.3301 34.3281C54.4473 34.3281 54.5059 34.2695 54.5059 34.1523C54.2715 34.1523 54.1543 34.0352 54.1543 33.8008C54.3887 33.8008 54.5059 33.6836 54.5059 33.4492L54.3301 32.5703C54.4473 32.5703 54.5059 32.5117 54.5059 32.3945C54.2715 32.3945 54.1543 32.2773 54.1543 32.043V31.8672H54.5059L54.3301 30.6367H54.5059L54.3301 30.2852V30.1094H54.6816C54.6816 29.9043 54.5645 29.5527 54.3301 29.0547C54.5645 28.5859 54.6816 28.1758 54.6816 27.8242C54.4473 27.8242 54.3301 27.707 54.3301 27.4727V26.9453L54.5059 26.0664C54.3301 26.0664 54.1543 25.8906 53.9785 25.5391V24.8359L54.3301 24.3086C53.9785 24.3086 53.8027 23.8984 53.8027 23.0781C54.0371 23.0781 54.1543 22.9609 54.1543 22.7266C53.9199 21.9648 53.8027 21.4961 53.8027 21.3203C54.0371 21.3203 54.1543 21.1445 54.1543 20.793C53.9199 20.4121 53.8027 20.1191 53.8027 19.9141L53.9785 19.0352L53.8027 18.1562C53.8027 17.6875 54.7988 16.5742 56.791 14.8164C57.377 13.7031 57.6699 12.9414 57.6699 12.5312C57.6699 11.2129 56.6738 10.334 54.6816 9.89453C54.0371 9.89453 52.1621 9.66016 49.0566 9.19141C48.8516 9.19141 48.5 9.30859 48.002 9.54297C47.6211 9.30859 47.2695 9.19141 46.9473 9.19141ZM45.1895 25.5391H45.541V25.8906C45.3066 25.8906 45.1895 25.7734 45.1895 25.5391ZM45.1895 27.1211C45.3652 27.1211 45.5996 27.3555 45.8926 27.8242V28.1758H45.541C45.3652 28.1758 45.1309 27.9414 44.8379 27.4727C44.8672 27.2383 44.9844 27.1211 45.1895 27.1211ZM45.1895 28.8789H45.3652C45.541 28.8789 45.7168 29.0547 45.8926 29.4062V29.7578C45.8926 29.9922 45.7754 30.1094 45.541 30.1094C45.3652 30.1094 45.1309 29.875 44.8379 29.4062V29.2305C44.8672 28.9961 44.9844 28.8789 45.1895 28.8789ZM35.5215 62.1016C35.7559 62.1309 35.873 62.248 35.873 62.4531H35.5215V62.1016ZM35.1699 63.8594H35.3457V64.2109H35.1699V63.8594ZM78.3945 6.55469L94.5664 7.43359H97.9062C99.8984 7.46289 100.895 7.58008 100.895 7.78516L101.246 7.60938H104.234C109.859 7.60938 112.672 8.01953 112.672 8.83984V9.01562C113.492 19.6504 113.902 25.7441 113.902 27.2969V57.8828C113.668 61.3398 113.551 63.2148 113.551 63.5078V65.6172C112.789 74.1719 112.027 78.4492 111.266 78.4492H110.738C104.527 78.6836 101.07 78.8008 100.367 78.8008H92.457C83.0527 77.9805 76.8418 77.5703 73.8242 77.5703H72.2422C63.9219 77.0723 59.7617 76.0176 59.7617 74.4062V68.7812C59.7617 67.9609 59.5859 65.3242 59.2344 60.8711C59.3516 44.3477 59.6445 33.1562 60.1133 27.2969V16.0469C60.3477 13.2051 60.4648 11.623 60.4648 11.3008V9.54297C59.5859 9.54297 59.1172 9.36719 59.0586 9.01562C59.0586 7.72656 60.6992 7.08203 63.9805 7.08203H68.7266C69.5762 7.08203 72.7988 6.90625 78.3945 6.55469ZM89.6445 12.1797H85.7773C84.957 12.1797 83.8438 12.0625 82.4375 11.8281C80.9434 12.2969 80.0645 12.5312 79.8008 12.5312H79.0977C78.5996 12.5312 77.9551 12.3555 77.1641 12.0039C69.5469 12.0039 65.7383 12.4727 65.7383 13.4102C65.4746 13.9961 65.1816 14.2891 64.8594 14.2891C64.9766 14.5234 65.0352 14.6992 65.0352 14.8164L64.1562 16.2227L64.332 17.2773L63.9805 17.9805C65.1816 18.4199 66.1191 19.4746 66.793 21.1445C67.9648 22.4922 68.5508 23.4883 68.5508 24.1328C68.5508 24.2207 68.4336 25.041 68.1992 26.5938L69.2539 30.6367L68.375 33.4492C68.375 33.7422 68.668 34.7969 69.2539 36.6133C69.1074 36.7598 68.9902 37.5801 68.9023 39.0742C69.3711 40.0703 69.6055 40.8906 69.6055 41.5352C68.668 43.7324 68.1992 45.0801 68.1992 45.5781C68.4336 46.9844 68.6094 49.6211 68.7266 53.4883C68.7266 54.3086 68.1992 55.4219 67.1445 56.8281V57.5312C67.8477 59.0254 68.1992 59.8457 68.1992 59.9922V60.5195C67.3203 62.7461 65.7383 64.5039 63.4531 65.793C63.4531 65.8516 63.1016 66.2031 62.3984 66.8477C62.7793 68.1074 63.248 69.2793 63.8047 70.3633C65.123 71.7402 66.6465 72.6777 68.375 73.1758C68.375 73.3516 68.668 73.5859 69.2539 73.8789L69.6055 73.7031H69.7812C69.8984 73.7031 69.957 73.7617 69.957 73.8789C70.3379 73.6445 70.6309 73.5273 70.8359 73.5273L71.7148 73.7031C71.7148 73.5273 71.8906 73.3516 72.2422 73.1758L73.1211 73.7031H73.2969L74 73.1758C74.1172 73.1758 74.293 73.2344 74.5273 73.3516L78.2188 72.1211C80.8848 72.9707 82.9355 73.498 84.3711 73.7031C84.4883 73.7031 84.6641 73.6445 84.8984 73.5273C85.2793 73.7617 85.6309 73.8789 85.9531 73.8789L89.8203 72.4727H90.1719C92.75 72.6777 94.0391 72.8535 94.0391 73C94.3613 72.8828 95.4746 72.707 97.3789 72.4727C99.6055 72.8242 101.598 73 103.355 73C107.809 71.7988 110.035 70.3926 110.035 68.7812L109.859 68.4297C109.742 66.291 109.684 64.8848 109.684 64.2109C109.684 64.0938 109.742 63.625 109.859 62.8047C109.156 60.8125 108.805 59.582 108.805 59.1133C108.805 58.4688 108.98 57.8242 109.332 57.1797L109.156 56.8281L109.508 55.9492C109.508 54.3965 108.805 52.7559 107.398 51.0273C107.398 50.3535 106.93 49.9434 105.992 49.7969H105.289C102.242 50.2363 100.719 50.998 100.719 52.082C100.719 52.4629 100.66 52.7559 100.543 52.9609C100.66 53.166 100.719 53.4004 100.719 53.6641C100.719 54.0449 100.66 54.3379 100.543 54.543C100.66 55.7441 101.012 57.1504 101.598 58.7617C101.598 58.8789 101.539 58.9375 101.422 58.9375L101.598 59.2891C101.48 59.4941 101.422 59.7285 101.422 59.9922C101.773 59.9922 101.949 60.1094 101.949 60.3438V60.8711C101.217 61.5156 99.752 62.2773 97.5547 63.1562C97.1738 63.8594 96.5293 64.2109 95.6211 64.2109L90.5234 63.5078H89.9961C87.2715 63.9766 85.5137 64.2109 84.7227 64.2109H84.5469C80.6797 64.2109 78.7461 63.5078 78.7461 62.1016C78.1602 61.252 77.8672 60.1973 77.8672 58.9375L78.3945 56.8281L77.5156 52.4336L77.8672 51.3789C77.75 50.9688 77.6914 50.7344 77.6914 50.6758C77.75 49.8555 77.8672 49.4453 78.043 49.4453L77.8672 49.0938C77.8672 48.8301 77.9258 48.5957 78.043 48.3906C78.043 48.2734 77.9844 48.2148 77.8672 48.2148C78.1016 46.6328 78.4531 45.3438 78.9219 44.3477C79.0391 43.4102 79.2148 42.9414 79.4492 42.9414H79.8008C82.0273 43.2637 83.1406 43.6152 83.1406 43.9961L83.8438 43.8203C86.0703 43.8203 87.1836 44.4062 87.1836 45.5781C87.1836 45.6953 87.125 45.7539 87.0078 45.7539C87.2422 47.2773 87.4766 48.1562 87.7109 48.3906C87.5938 50.6465 87.5352 52.1113 87.5352 52.7852C87.916 54.8945 88.8535 55.9492 90.3477 55.9492C93.043 55.3633 94.3906 54.4844 94.3906 53.3125C93.8047 47.1016 93.2773 43.9961 92.8086 43.9961L92.2812 42.2383C92.3984 41.4473 92.457 40.8027 92.457 40.3047C92.2227 39.25 92.1055 38.4883 92.1055 38.0195C93.3945 35.6172 94.0391 33.918 94.0391 32.9219C93.9219 32.5117 93.8633 32.2773 93.8633 32.2188L94.0391 31.3398C94.0391 28.9961 93.5703 27.8242 92.6328 27.8242C91.7832 27.707 90.9629 27.5312 90.1719 27.2969C90.1719 27.5312 90.0547 27.6484 89.8203 27.6484V27.4727L89.4688 27.6484C89.0586 27.4141 88.707 27.2969 88.4141 27.2969C87.7988 27.4141 87.4473 27.4727 87.3594 27.4727C87.3594 27.2383 87.2422 27.1211 87.0078 27.1211C85.8359 27.6191 85.25 28.6152 85.25 30.1094C85.3965 30.9297 85.5723 31.3398 85.7773 31.3398C85.7773 33.127 85.1914 34.2988 84.0195 34.8555H83.8438C83.4336 34.6211 82.8477 34.4453 82.0859 34.3281C82.0859 34.5625 81.9688 34.6797 81.7344 34.6797C81.5586 34.2988 80.5625 33.6543 78.7461 32.7461L78.5703 32.3945C78.5703 32.2773 78.6289 32.2188 78.7461 32.2188C78.2188 31.7207 77.6914 30.9004 77.1641 29.7578C76.8711 29.7578 76.5781 29.0547 76.2852 27.6484L76.6367 27.4727L77.1641 27.8242H77.3398V26.418H76.9883V26.0664H77.1641L77.5156 26.2422L76.9883 23.6055C77.2227 23.2246 77.3398 22.873 77.3398 22.5508L76.9883 21.8477L77.3398 21.6719C77.5449 21.7891 77.7207 21.8477 77.8672 21.8477L78.043 21.4961V20.4414H78.5703C78.6289 20.4414 78.8047 20.5586 79.0977 20.793H79.2734V19.9141L79.4492 19.5625C79.918 19.6504 80.1523 19.7676 80.1523 19.9141C80.2988 19.9141 80.5918 19.6211 81.0312 19.0352C81.4121 19.2695 81.7637 19.3867 82.0859 19.3867C82.4375 19.3867 82.6133 19.0352 82.6133 18.332H82.7891C83.0234 18.332 83.1406 18.5078 83.1406 18.8594H83.8438L84.5469 17.9805L85.4258 18.5078H85.7773C85.7773 18.2441 86.0117 18.0098 86.4805 17.8047C86.4805 17.9512 86.7734 18.1855 87.3594 18.5078H87.5352C87.5938 18.0391 87.7695 17.8047 88.0625 17.8047C88.4434 18.1562 88.9121 18.332 89.4688 18.332C89.4688 17.9805 89.7031 17.8047 90.1719 17.8047C90.1719 18.0098 90.4648 18.1855 91.0508 18.332C91.0801 18.0977 91.1973 17.9805 91.4023 17.9805C91.5195 17.9805 92.6328 18.2734 94.7422 18.8594C95.8848 18.3906 96.8223 18.1562 97.5547 18.1562C97.7305 18.1562 98.4922 18.9766 99.8398 20.6172C100.66 20.998 101.07 21.5254 101.07 22.1992V22.375C101.07 22.6387 100.602 23.5762 99.6641 25.1875V27.1211L100.016 27.6484C100.016 27.7656 99.957 27.8242 99.8398 27.8242C100.455 31.1055 102.096 32.7461 104.762 32.7461C106.021 32.7461 106.783 31.75 107.047 29.7578C106.695 27.9414 106.52 26.7109 106.52 26.0664C106.52 25.5684 106.578 24.9238 106.695 24.1328C106.461 22.375 106.344 21.2617 106.344 20.793C106.578 19.6211 106.695 18.625 106.695 17.8047C105.553 14.1719 103.678 12.3555 101.07 12.3555C98.8145 11.7695 96.1777 11.3594 93.1602 11.125H92.9844C91.168 11.8281 90.0547 12.1797 89.6445 12.1797ZM113.885 3.78613H114.412C117.254 4.02051 118.836 4.1377 119.158 4.1377H123.553C123.992 4.1377 125.457 4.25488 127.947 4.48926C139.637 4.48926 150.945 5.25098 161.873 6.77441C164.334 7.59473 167.322 8.00488 170.838 8.00488C171.424 8.12207 171.717 8.35645 171.717 8.70801C171.951 11.9307 172.068 13.8643 172.068 14.5088V31.7354C171.365 49.958 170.135 64.3721 168.377 74.9775C167.762 77.6729 167.059 79.0205 166.268 79.0205L156.424 77.9658H153.787C151.941 77.9658 147.371 78.376 140.076 79.1963H134.803C125.516 77.5557 119.656 76.7354 117.225 76.7354H113.357C112.42 76.1494 111.893 73.4541 111.775 68.6494V46.8525C112.361 39.5283 113.064 29.3916 113.885 16.4424V16.0908C113.65 12.6338 113.533 10.7588 113.533 10.4658V8.70801L113.182 8.88379H113.006V5.54395C113.006 4.63574 113.299 4.0498 113.885 3.78613ZM116.873 19.4307C116.873 20.8662 117.225 22.8584 117.928 25.4072V26.2861C117.107 27.9854 116.697 29.1572 116.697 29.8018C116.697 30.0068 116.99 31.3545 117.576 33.8447C117.459 34.46 117.4 34.8115 117.4 34.8994C118.426 37.9463 120.125 39.4697 122.498 39.4697C123.934 39.4697 125.105 38.0049 126.014 35.0752L125.838 34.3721L126.014 33.1416L125.662 32.4385L125.838 31.3838C125.604 31.0908 125.486 30.915 125.486 30.8564C125.574 30.1533 125.691 29.8018 125.838 29.8018C125.486 29.2451 125.311 28.8936 125.311 28.7471L125.838 27.6924C125.369 27.6924 125.135 27.458 125.135 26.9893L125.662 26.1104L125.135 25.4072V25.2314C125.838 24.5869 126.189 24.1182 126.189 23.8252C126.072 23.5908 126.014 23.415 126.014 23.2979C126.277 23.0635 126.512 22.9463 126.717 22.9463V22.2432C126.717 22.126 126.834 21.6572 127.068 20.8369H127.244L127.596 21.0127C127.596 20.3682 127.771 19.8994 128.123 19.6064C127.947 19.6064 127.771 19.4307 127.596 19.0791L127.947 18.9033L128.475 19.6064C128.621 19.6064 128.973 19.2549 129.529 18.5518C129.793 18.7275 130.73 18.9619 132.342 19.2549C132.371 19.4893 132.488 19.6064 132.693 19.6064H133.221C133.484 19.6064 133.719 19.5479 133.924 19.4307C135.33 19.7822 136.268 20.4268 136.736 21.3643C137.908 24.8799 138.494 27.1064 138.494 28.0439C138.494 28.1025 138.377 29.04 138.143 30.8564C138.143 31.208 138.201 32.3213 138.318 34.1963C137.85 36.6865 137.322 38.9717 136.736 41.0518L137.264 43.5127C136.795 45.6221 136.502 46.6768 136.385 46.6768C136.502 46.8818 136.561 47.0576 136.561 47.2041L136.385 47.5557C137.557 49.1084 138.143 52.5654 138.143 57.9268C137.264 61.9111 136.385 63.9033 135.506 63.9033H134.275C132.957 63.6396 132.02 63.2295 131.463 62.6729H131.287V63.0244H130.76C130.525 63.0244 130.408 62.8486 130.408 62.4971L130.057 62.6729C128.885 62.4385 128.064 62.2041 127.596 61.9697C127.42 62.6729 127.244 63.0244 127.068 63.0244L126.717 62.8486C126.102 63.2881 125.633 63.8154 125.311 64.4307H124.432L124.607 64.7822C124.256 65.251 124.08 65.7783 124.08 66.3643L123.729 66.1885H123.553V66.3643H123.904V66.7158C123.553 66.7158 123.26 66.9502 123.025 67.4189V67.9463L123.377 68.4736C123.377 68.6201 123.201 68.7959 122.85 69.001H122.674L122.322 68.8252V69.3525C122.791 69.3525 123.436 70.29 124.256 72.165C124.842 72.165 125.311 72.458 125.662 73.0439C125.545 73.0439 125.486 73.1025 125.486 73.2197C126.16 73.2197 127.156 73.5127 128.475 74.0986L130.057 73.7471C130.086 73.9814 130.203 74.0986 130.408 74.0986H130.584C130.584 73.7471 130.701 73.5713 130.936 73.5713C131.141 73.6885 131.316 73.7471 131.463 73.7471C131.492 73.5127 131.609 73.3955 131.814 73.3955C131.844 73.6299 131.961 73.7471 132.166 73.7471C132.576 73.3955 133.279 73.2197 134.275 73.2197V72.8682L135.154 73.0439L135.33 72.6924C135.535 72.8096 135.711 72.8682 135.857 72.8682C136.209 72.8682 136.678 72.751 137.264 72.5166C137.908 72.6338 138.377 72.6924 138.67 72.6924C138.816 72.6924 139.402 72.6338 140.428 72.5166V72.6924L140.779 72.5166H140.955L141.307 72.6924L141.482 72.3408L142.361 72.5166L142.713 72.3408L143.064 72.5166L143.416 72.3408C143.475 72.3408 143.709 72.3994 144.119 72.5166C144.236 72.5166 144.295 72.458 144.295 72.3408L145.174 72.5166H147.986C148.104 72.5166 148.162 72.5752 148.162 72.6924L148.514 72.5166H151.15C151.414 72.5166 151.648 72.5752 151.854 72.6924C152.059 72.5752 152.234 72.5166 152.381 72.5166L152.732 72.6924C152.85 72.6924 152.908 72.6338 152.908 72.5166C153.992 72.6631 154.695 72.8389 155.018 73.0439C155.135 73.0439 155.193 72.9854 155.193 72.8682C156.365 72.9854 156.951 73.1611 156.951 73.3955L157.83 73.2197H158.709C158.826 73.2197 158.885 73.2783 158.885 73.3955C160.525 73.1318 161.346 72.6045 161.346 71.8135V71.6377H161.521C161.639 71.6377 161.697 71.6963 161.697 71.8135C162.049 71.7256 162.342 71.374 162.576 70.7588C162.225 70.7588 162.049 70.6416 162.049 70.4072C162.43 70.1729 162.723 70.0557 162.928 70.0557V69.8799C162.928 66.9795 161.346 64.9287 158.182 63.7275C157.127 63.376 156.6 63.083 156.6 62.8486C156.365 62.9658 156.189 63.0244 156.072 63.0244C155.34 62.4385 154.285 62.1455 152.908 62.1455C152.557 62.3799 151.912 62.5557 150.975 62.6729C148.543 62.6729 147.137 61.6182 146.756 59.5088V59.333C146.932 58.1904 147.225 54.0889 147.635 47.0283C147.635 46.1494 147.166 44.0986 146.229 40.876V37.3604C146.229 36.3057 146.639 33.7861 147.459 29.8018C147.107 28.4834 146.932 27.6631 146.932 27.3408C146.932 26.9893 147.459 25.9346 148.514 24.1768V21.8916C148.514 21.7744 148.572 21.7158 148.689 21.7158L148.514 21.3643V21.1885C148.514 20.5146 149.1 19.9873 150.271 19.6064C150.359 19.0205 151.941 18.6689 155.018 18.5518C156.424 18.5518 157.127 21.7158 157.127 28.0439C157.244 28.0439 157.537 28.4541 158.006 29.2744C158.006 29.3916 157.947 29.4502 157.83 29.4502C158.182 30.3877 158.357 30.915 158.357 31.0322C158.24 31.6475 158.182 31.999 158.182 32.0869C158.416 32.4678 158.533 32.8193 158.533 33.1416L158.182 33.8447C158.416 34.3135 158.533 34.7236 158.533 35.0752C158.416 35.2803 158.357 35.5146 158.357 35.7783C158.65 35.7783 158.885 36.3057 159.061 37.3604C160.291 39.001 160.994 39.8213 161.17 39.8213L163.104 41.4033C163.338 41.4033 163.455 41.2861 163.455 41.0518C164.363 41.4033 164.949 41.5791 165.213 41.5791H165.74L166.092 39.1182C165.975 38.8838 165.916 38.708 165.916 38.5908C166.004 37.8877 166.121 37.5361 166.268 37.5361L166.092 37.1846C166.092 36.4814 166.326 35.0166 166.795 32.79C166.678 31.999 166.619 31.2373 166.619 30.5049C166.619 30.2705 166.912 29.0986 167.498 26.9893C167.498 26.0811 167.322 24.9678 166.971 23.6494C167.088 22.8291 167.146 22.1846 167.146 21.7158V21.1885L165.74 16.9697C165.535 13.9229 164.832 12.3994 163.631 12.3994C160.994 11.1104 158.709 10.4658 156.775 10.4658H156.424C155.311 10.4658 153.611 10.583 151.326 10.8174C149.686 10.583 147.107 10.4072 143.592 10.29C143.387 10.29 142.684 10.3486 141.482 10.4658C140.75 10.4658 137.938 10.29 133.045 9.93848C131.609 10.4072 130.672 10.6416 130.232 10.6416C129.764 10.6416 127.713 10.4072 124.08 9.93848C122.527 10.2021 120.477 11.5498 117.928 13.9814C117.693 14.6553 117.342 16.4717 116.873 19.4307ZM126.365 19.958H126.541V20.3096H126.365V19.958ZM125.486 23.2979L125.662 23.6494L125.311 23.8252L125.135 23.4736L125.486 23.2979ZM122.85 66.3643V66.7158H123.201V66.3643H122.85ZM207.295 0.446289H207.998C211.748 0.446289 217.08 0.797852 223.994 1.50098H225.4C225.723 1.50098 225.957 1.96973 226.104 2.90723C226.221 16.4131 226.279 26.8428 226.279 34.1963V35.0752L226.982 47.3799V51.9502C226.748 58.9814 226.631 62.9072 226.631 63.7275V70.4072C226.631 75.0947 226.045 77.4385 224.873 77.4385C224.492 77.4385 222.266 78.083 218.193 79.3721C216.465 79.8408 214.883 80.0752 213.447 80.0752C206.123 80.0752 200.381 80.3682 196.221 80.9541C183.799 80.4854 177.588 79.958 177.588 79.3721C173.311 78.5518 171.084 78.1416 170.908 78.1416C170.322 78.1416 169.854 72.9268 169.502 62.4971C169.033 59.8896 168.799 56.3154 168.799 51.7744V51.4229C169.033 47.9658 169.15 46.0908 169.15 45.7979V19.4307C169.736 11.0811 170.029 6.33496 170.029 5.19238C169.795 5.19238 169.678 5.0752 169.678 4.84082V3.96191L169.502 2.2041C170.352 1.50098 172.051 1.14941 174.6 1.14941H176.709C180.4 1.50098 182.686 1.67676 183.564 1.67676H188.311L207.295 0.446289ZM174.072 35.0752L174.248 35.9541L173.018 41.0518C173.018 41.4619 173.252 42.458 173.721 44.04C173.604 44.8311 173.545 45.4756 173.545 45.9736V47.0283C174.775 55.583 176.123 59.8604 177.588 59.8604C178.408 60.5928 179.58 62.2334 181.104 64.7822C182.773 66.7451 184.121 68.2686 185.146 69.3525C185.527 71.1104 186.465 71.9893 187.959 71.9893C190.361 71.9893 192.354 72.6338 193.936 73.9229L194.99 74.0986C195.371 74.0986 196.66 73.9229 198.857 73.5713H199.033C200.059 73.9229 200.645 74.0986 200.791 74.0986H201.318C202.871 73.3955 204.746 72.9268 206.943 72.6924C208.115 71.6963 209.697 70.9346 211.689 70.4072C212.158 69.9385 212.861 68.708 213.799 66.7158C214.238 66.6572 215.117 65.251 216.436 62.4971C217.9 61.2959 219.131 58.4248 220.127 53.8838C221.299 53.0928 221.885 50.9834 221.885 47.5557C221.885 45.3291 222.002 43.8643 222.236 43.1611L222.061 40.7002C222.178 38.5322 222.236 37.1846 222.236 36.6572C220.947 31.0029 219.424 25.5537 217.666 20.3096C215.996 17.292 214.121 15.2998 212.041 14.333C209.756 12.0771 206.768 10.3779 203.076 9.23535C197.539 9.23535 192.676 10.0557 188.486 11.6963C187.842 11.6963 187.08 12.5752 186.201 14.333C183.74 15.0361 182.51 15.915 182.51 16.9697C180.957 19.8115 179.492 21.6279 178.115 22.4189C177.412 26.6377 176.299 29.9775 174.775 32.4385C174.307 33.7861 174.072 34.665 174.072 35.0752ZM195.869 18.7275C197.51 18.9619 198.682 19.0791 199.385 19.0791C199.531 19.0791 200.117 19.0205 201.143 18.9033C202.695 19.8408 204.453 20.3096 206.416 20.3096C206.885 20.3096 207.354 21.6572 207.822 24.3525L211.162 26.6377C211.689 27.6338 212.393 29.8604 213.271 33.3174V34.8994C213.271 35.0166 213.213 35.0752 213.096 35.0752C213.096 35.1924 213.154 35.251 213.271 35.251C213.154 37.3604 212.979 38.415 212.744 38.415C212.744 38.5322 212.803 38.5908 212.92 38.5908C212.832 39.6455 212.715 40.1729 212.568 40.1729C213.037 41.2568 213.271 42.3701 213.271 43.5127C213.271 44.2744 212.158 46.7939 209.932 51.0713C210.049 51.2764 210.107 51.4521 210.107 51.5986C210.049 52.7119 209.346 54.7041 207.998 57.5752C206.797 59.4502 205.801 60.3877 205.01 60.3877H204.482C204.482 60.8564 203.486 61.2666 201.494 61.6182L201.143 61.4424C201.143 61.6768 201.025 61.7939 200.791 61.7939C200.791 61.6182 200.615 61.4424 200.264 61.2666L199.385 61.4424C199.385 61.2373 199.15 61.0029 198.682 60.7393C198.682 60.9736 198.564 61.0908 198.33 61.0908V60.915L197.979 61.0908H197.627L195.518 60.5635C195.518 60.7979 195.459 60.915 195.342 60.915L194.111 60.0361C193.877 60.1533 193.701 60.2119 193.584 60.2119C189.6 55.7588 187.607 52.7119 187.607 51.0713C187.607 50.0752 187.197 46.208 186.377 39.4697C186.377 39.0303 186.318 38.5029 186.201 37.8877C186.67 35.0752 186.904 33.4932 186.904 33.1416C186.787 32.9365 186.729 32.7021 186.729 32.4385C186.729 32.3213 186.787 31.8525 186.904 31.0322L186.729 30.6807C186.963 30.0654 187.08 29.5967 187.08 29.2744C186.963 29.04 186.904 28.8643 186.904 28.7471C187.256 28.1904 187.49 27.4873 187.607 26.6377C188.135 26.6377 188.486 26.4033 188.662 25.9346C188.486 25.9346 188.311 25.7588 188.135 25.4072V25.2314H188.311C188.662 25.2314 188.838 25.4658 188.838 25.9346H189.014C189.717 25.6416 190.42 24.5869 191.123 22.7705C192.324 20.0752 193.906 18.7275 195.869 18.7275ZM189.717 23.8252L189.893 24.1768V24.3525H189.717C189.482 24.3525 189.365 24.2354 189.365 24.001L189.717 23.8252ZM252.014 4.09375C262.619 4.21094 269.533 4.26953 272.756 4.26953C274.045 4.35742 274.689 4.5918 274.689 4.97266V6.90625C276.564 21.4082 277.502 29.7871 277.502 32.043C277.971 35.4414 278.615 44.0547 279.436 57.8828H279.26L279.436 58.2344C279.553 62.834 279.611 66.291 279.611 68.6055V68.957C279.611 73.5273 278.674 75.8125 276.799 75.8125C275.158 76.3984 272.463 76.8086 268.713 77.043H264.494L255.178 77.9219C250.607 77.6875 248.029 77.5703 247.443 77.5703C246.096 77.5703 244.982 77.6875 244.104 77.9219C242.873 77.6875 240.705 77.5703 237.6 77.5703H231.271C228.342 77.5703 226.877 76.6914 226.877 74.9336C226.525 73.293 226.057 66.4961 225.471 54.543V47.3359C225.09 44.4941 224.797 38.0488 224.592 28C224.826 26.3887 225.002 24.3379 225.119 21.8477C225.002 17.5996 224.943 14.0254 224.943 11.125C224.943 7.96094 225.646 6.37891 227.053 6.37891C230.861 6.14453 233.967 5.85156 236.369 5.5L238.654 5.85156C238.654 5.58789 241.408 5.17773 246.916 4.62109C247.15 4.44531 248.85 4.26953 252.014 4.09375ZM230.568 11.4766C230.568 11.3594 230.51 11.3008 230.393 11.3008V11.4766C230.393 11.7402 230.451 11.9746 230.568 12.1797C230.568 12.3555 230.275 12.707 229.689 13.2344C229.689 13.4687 229.865 13.5859 230.217 13.5859V14.2891C229.748 14.8164 229.514 15.1094 229.514 15.168C229.66 15.168 229.836 15.3438 230.041 15.6953V15.8711C229.689 16.3105 229.514 16.7207 229.514 17.1016L229.865 17.6289L229.514 18.1562V18.6836C229.777 19.0937 230.129 19.8555 230.568 20.9688C232.561 22.7266 233.557 24.6016 233.557 26.5938L232.854 30.6367C233.322 31.6621 233.732 33.5957 234.084 36.4375C234.084 36.9941 234.025 38.3418 233.908 40.4805C234.025 41.9746 234.084 42.8535 234.084 43.1172C233.85 44.0254 233.732 44.8457 233.732 45.5781V46.1055C233.732 46.5742 233.967 47.8633 234.436 49.9727L233.908 52.9609C233.908 53.3711 233.967 54.3672 234.084 55.9492C233.205 59.582 232.268 61.3984 231.271 61.3984C230.539 62.8047 230.129 63.5078 230.041 63.5078L230.217 64.3867V64.9141L229.865 65.4414C229.865 65.6172 230.041 65.793 230.393 65.9688C230.275 66.1738 230.158 66.7012 230.041 67.5508C230.275 67.6094 230.393 67.7266 230.393 67.9023C230.393 68.0195 230.334 68.0781 230.217 68.0781L230.393 68.4297L230.041 69.1328L230.568 69.4844C230.334 70.3633 230.217 70.8906 230.217 71.0664C230.451 71.125 230.568 71.2422 230.568 71.418C230.568 71.9453 230.451 72.4141 230.217 72.8242C230.393 72.8242 230.627 73.5273 230.92 74.9336C231.389 74.9336 231.975 75.0508 232.678 75.2852L233.029 75.1094L233.732 75.2852C235.725 73.8789 237.248 73.1758 238.303 73.1758C238.918 73.1758 240.383 73.8203 242.697 75.1094C242.814 75.1094 242.99 75.168 243.225 75.2852C243.459 75.2852 246.271 74.0547 251.662 71.5938H253.42C254.475 71.5938 255.471 71.7109 256.408 71.9453C256.789 71.7109 257.141 71.5938 257.463 71.5938C257.521 71.5938 257.756 71.6523 258.166 71.7695C258.166 71.7109 258.459 71.418 259.045 70.8906L259.396 71.0664H259.748C260.246 70.5977 260.539 70.3633 260.627 70.3633H260.803C261.125 70.3633 261.477 70.4805 261.857 70.7148C262.004 69.8945 262.18 69.4844 262.385 69.4844C262.766 69.7188 263.117 69.8359 263.439 69.8359C263.557 68.7812 264.025 68.2539 264.846 68.2539C264.846 67.7266 265.373 67.375 266.428 67.1992C266.428 66.7305 266.662 66.4961 267.131 66.4961L268.01 66.6719C268.01 66.5547 268.068 66.4961 268.186 66.4961L268.01 66.1445V65.793C268.654 65.2949 269.24 64.5918 269.768 63.6836C270.764 61.9258 271.35 61.0469 271.525 61.0469C271.408 60.8418 271.35 60.666 271.35 60.5195C271.35 60.2852 271.701 59.9336 272.404 59.4648L272.229 59.1133V58.7617C272.229 58.6445 272.521 58.3516 273.107 57.8828C272.99 57.4727 272.932 57.2383 272.932 57.1797C272.932 57.0332 273.166 56.623 273.635 55.9492L273.459 55.5977C274.748 52.082 275.393 49.9141 275.393 49.0938C275.275 48.6543 275.217 48.2441 275.217 47.8633L276.447 43.4688L276.271 43.1172C276.271 43 276.33 42.9414 276.447 42.9414C276.33 42.1504 276.271 41.5059 276.271 41.0078C276.271 40.0117 276.389 39.1914 276.623 38.5469C276.623 38.166 276.154 36.8184 275.217 34.5039C275.334 33.4785 275.393 32.834 275.393 32.5703C275.393 32.1895 274.572 30.9004 272.932 28.7031C272.932 27.7363 271.818 25.041 269.592 20.6172C265.549 16.9844 262.854 15.168 261.506 15.168C258.225 13.7617 255.354 13.0586 252.893 13.0586C252.893 12.8828 252.307 12.6484 251.135 12.3555C250.139 12.4727 249.318 12.5312 248.674 12.5312C247.238 11.8281 244.543 11.2422 240.588 10.7734C234.494 11.0078 231.154 11.2422 230.568 11.4766ZM246.213 16.0469H246.564C246.682 16.0469 246.74 16.1055 246.74 16.2227L247.092 16.0469C249.406 17.4531 250.871 18.1562 251.486 18.1562H251.838C253.42 17.8047 254.357 17.6289 254.65 17.6289C255.412 17.6289 256.994 18.332 259.396 19.7383C260.568 19.7383 261.682 21.0273 262.736 23.6055C264.611 25.1875 265.549 26.5352 265.549 27.6484C265.549 27.7363 265.49 28.498 265.373 29.9336L268.537 36.6133C268.654 37.082 268.713 37.5508 268.713 38.0195C268.244 39.2793 268.01 40.1582 268.01 40.6562C268.361 41.0078 268.654 42.8242 268.889 46.1055C268.889 46.457 267.951 48.7422 266.076 52.9609C266.076 55.7441 264.846 57.9121 262.385 59.4648C260.539 61.8086 259.191 62.9805 258.342 62.9805C258.078 62.9805 256.555 63.8594 253.771 65.6172C253.215 65.8223 252.57 65.998 251.838 66.1445C250.783 65.998 250.256 65.8223 250.256 65.6172L249.904 65.793C249.611 65.5586 249.436 65.4414 249.377 65.4414H248.85L248.498 65.6172C248.469 65.4707 248.176 65.2363 247.619 64.9141L246.564 65.0898C245.568 64.6504 244.631 63.2441 243.752 60.8711C243.4 60.8711 243.049 60.0508 242.697 58.4102C242.697 58.2051 242.814 57.9121 243.049 57.5312C242.932 57.3262 242.873 57.1504 242.873 57.0039C243.107 56.2422 243.225 55.7148 243.225 55.4219C242.99 55.4219 242.873 55.3047 242.873 55.0703C242.873 54.9824 243.107 54.6309 243.576 54.0156C243.371 54.0156 243.137 53.7812 242.873 53.3125V53.1367L243.225 52.6094V52.082C242.99 51.7891 242.873 51.6133 242.873 51.5547V51.2031L243.225 50.6758V50.3242C242.99 50.0605 242.873 49.8262 242.873 49.6211C242.873 48.9473 242.756 47.541 242.521 45.4023L242.873 44.6992C242.756 44.4941 242.697 44.2598 242.697 43.9961L243.225 43.1172C243.02 42.8828 242.844 42.0625 242.697 40.6562C242.346 40.6562 242.111 38.957 241.994 35.5586C241.701 35.5586 241.525 34.6797 241.467 32.9219V32.7461C241.467 32.4238 241.701 31.6035 242.17 30.2852V30.1094C241.467 28.6152 241.115 27.4434 241.115 26.5938C241.115 26.5352 241.408 25.7148 241.994 24.1328C241.994 23.4883 241.936 22.668 241.818 21.6719L241.994 21.3203L241.818 20.4414C241.818 20.2656 241.936 19.9141 242.17 19.3867C242.053 19.1816 241.994 18.9473 241.994 18.6836V18.5078L243.4 17.2773C243.4 16.7793 243.869 16.4277 244.807 16.2227C245.012 16.3398 245.188 16.3984 245.334 16.3984V16.2227L245.686 16.3984C245.744 16.3984 245.92 16.2812 246.213 16.0469ZM242.521 16.75L242.697 17.1016L242.346 17.2773L242.17 16.9258L242.521 16.75ZM314.838 0.446289H315.541C319.291 0.446289 324.623 0.797852 331.537 1.50098H332.943C333.266 1.50098 333.5 1.96973 333.646 2.90723C333.764 16.4131 333.822 26.8428 333.822 34.1963V35.0752L334.525 47.3799V51.9502C334.291 58.9814 334.174 62.9072 334.174 63.7275V70.4072C334.174 75.0947 333.588 77.4385 332.416 77.4385C332.035 77.4385 329.809 78.083 325.736 79.3721C324.008 79.8408 322.426 80.0752 320.99 80.0752C313.666 80.0752 307.924 80.3682 303.764 80.9541C291.342 80.4854 285.131 79.958 285.131 79.3721C280.854 78.5518 278.627 78.1416 278.451 78.1416C277.865 78.1416 277.396 72.9268 277.045 62.4971C276.576 59.8896 276.342 56.3154 276.342 51.7744V51.4229C276.576 47.9658 276.693 46.0908 276.693 45.7979V19.4307C277.279 11.0811 277.572 6.33496 277.572 5.19238C277.338 5.19238 277.221 5.0752 277.221 4.84082V3.96191L277.045 2.2041C277.895 1.50098 279.594 1.14941 282.143 1.14941H284.252C287.943 1.50098 290.229 1.67676 291.107 1.67676H295.854L314.838 0.446289ZM281.615 35.0752L281.791 35.9541L280.561 41.0518C280.561 41.4619 280.795 42.458 281.264 44.04C281.146 44.8311 281.088 45.4756 281.088 45.9736V47.0283C282.318 55.583 283.666 59.8604 285.131 59.8604C285.951 60.5928 287.123 62.2334 288.646 64.7822C290.316 66.7451 291.664 68.2686 292.689 69.3525C293.07 71.1104 294.008 71.9893 295.502 71.9893C297.904 71.9893 299.896 72.6338 301.479 73.9229L302.533 74.0986C302.914 74.0986 304.203 73.9229 306.4 73.5713H306.576C307.602 73.9229 308.188 74.0986 308.334 74.0986H308.861C310.414 73.3955 312.289 72.9268 314.486 72.6924C315.658 71.6963 317.24 70.9346 319.232 70.4072C319.701 69.9385 320.404 68.708 321.342 66.7158C321.781 66.6572 322.66 65.251 323.979 62.4971C325.443 61.2959 326.674 58.4248 327.67 53.8838C328.842 53.0928 329.428 50.9834 329.428 47.5557C329.428 45.3291 329.545 43.8643 329.779 43.1611L329.604 40.7002C329.721 38.5322 329.779 37.1846 329.779 36.6572C328.49 31.0029 326.967 25.5537 325.209 20.3096C323.539 17.292 321.664 15.2998 319.584 14.333C317.299 12.0771 314.311 10.3779 310.619 9.23535C305.082 9.23535 300.219 10.0557 296.029 11.6963C295.385 11.6963 294.623 12.5752 293.744 14.333C291.283 15.0361 290.053 15.915 290.053 16.9697C288.5 19.8115 287.035 21.6279 285.658 22.4189C284.955 26.6377 283.842 29.9775 282.318 32.4385C281.85 33.7861 281.615 34.665 281.615 35.0752ZM303.412 18.7275C305.053 18.9619 306.225 19.0791 306.928 19.0791C307.074 19.0791 307.66 19.0205 308.686 18.9033C310.238 19.8408 311.996 20.3096 313.959 20.3096C314.428 20.3096 314.896 21.6572 315.365 24.3525L318.705 26.6377C319.232 27.6338 319.936 29.8604 320.814 33.3174V34.8994C320.814 35.0166 320.756 35.0752 320.639 35.0752C320.639 35.1924 320.697 35.251 320.814 35.251C320.697 37.3604 320.521 38.415 320.287 38.415C320.287 38.5322 320.346 38.5908 320.463 38.5908C320.375 39.6455 320.258 40.1729 320.111 40.1729C320.58 41.2568 320.814 42.3701 320.814 43.5127C320.814 44.2744 319.701 46.7939 317.475 51.0713C317.592 51.2764 317.65 51.4521 317.65 51.5986C317.592 52.7119 316.889 54.7041 315.541 57.5752C314.34 59.4502 313.344 60.3877 312.553 60.3877H312.025C312.025 60.8564 311.029 61.2666 309.037 61.6182L308.686 61.4424C308.686 61.6768 308.568 61.7939 308.334 61.7939C308.334 61.6182 308.158 61.4424 307.807 61.2666L306.928 61.4424C306.928 61.2373 306.693 61.0029 306.225 60.7393C306.225 60.9736 306.107 61.0908 305.873 61.0908V60.915L305.521 61.0908H305.17L303.061 60.5635C303.061 60.7979 303.002 60.915 302.885 60.915L301.654 60.0361C301.42 60.1533 301.244 60.2119 301.127 60.2119C297.143 55.7588 295.15 52.7119 295.15 51.0713C295.15 50.0752 294.74 46.208 293.92 39.4697C293.92 39.0303 293.861 38.5029 293.744 37.8877C294.213 35.0752 294.447 33.4932 294.447 33.1416C294.33 32.9365 294.271 32.7021 294.271 32.4385C294.271 32.3213 294.33 31.8525 294.447 31.0322L294.271 30.6807C294.506 30.0654 294.623 29.5967 294.623 29.2744C294.506 29.04 294.447 28.8643 294.447 28.7471C294.799 28.1904 295.033 27.4873 295.15 26.6377C295.678 26.6377 296.029 26.4033 296.205 25.9346C296.029 25.9346 295.854 25.7588 295.678 25.4072V25.2314H295.854C296.205 25.2314 296.381 25.4658 296.381 25.9346H296.557C297.26 25.6416 297.963 24.5869 298.666 22.7705C299.867 20.0752 301.449 18.7275 303.412 18.7275ZM297.26 23.8252L297.436 24.1768V24.3525H297.26C297.025 24.3525 296.908 24.2354 296.908 24.001L297.26 23.8252Z" fill="white"/>
</svg>
