<svg width="761" height="83" viewBox="0 0 761 83" fill="none" xmlns="http://www.w3.org/2000/svg">
<path d="M6.30469 1.3252C14.5664 2.02832 23.3555 3.25879 32.6719 5.0166C44.4785 8.06348 53.0332 9.58691 58.3359 9.58691C59.0098 9.58691 59.4785 12.9854 59.7422 19.7822V33.8447C59.7422 38.708 58.6875 47.3213 56.5781 59.6846L51.832 78.8447C51.1875 79.7529 50.7188 80.2217 50.4258 80.251H48.4922C45.3281 80.251 42.0469 80.3096 38.6484 80.4268L23.3555 79.5479C20.4844 79.0791 15.9727 78.4932 9.82031 77.79C3.96094 76.9697 1.03125 76.208 1.03125 75.5049V75.3291C1.03125 72.8682 0.796875 66.6572 0.328125 56.6963C0.328125 48.6982 1.08984 42.1357 2.61328 37.0088C3.66797 30.1826 4.37109 19.3428 4.72266 4.48926C5.01562 2.37988 5.54297 1.3252 6.30469 1.3252ZM13.6875 11.1689V11.3447L13.8633 11.6963L13.1602 12.2236L12.1055 12.0479C12.1055 12.3994 12.0469 12.5752 11.9297 12.5752L12.1055 12.9268V13.6299L11.7539 13.4541H11.0508V13.6299C11.0508 13.9229 11.168 14.4502 11.4023 15.2119C11.2852 15.2119 11.2266 15.2705 11.2266 15.3877L10.875 15.2119H10.5234C11.3438 16.999 11.7539 17.9365 11.7539 18.0244C12.457 18.2881 13.1016 19.0498 13.6875 20.3096C14.127 21.2471 14.5371 22.3604 14.918 23.6494H15.0938L14.0391 26.8135C14.625 28.6885 14.918 29.6846 14.918 29.8018L13.6875 33.3174C13.8047 34.8994 13.8633 36.0127 13.8633 36.6572C13.3945 38.5029 13.1602 39.5576 13.1602 39.8213C13.3945 41.2275 13.5117 41.9893 13.5117 42.1064C13.2773 44.04 13.1602 45.5635 13.1602 46.6768V49.4893C13.1602 51.0127 13.2188 52.6533 13.3359 54.4111C13.3359 55.7002 12.6914 57.2822 11.4023 59.1572C11.4023 61.3252 10.4062 62.9072 8.41406 63.9033C8.00391 64.2256 7.71094 64.6943 7.53516 65.3096C7.24219 65.5439 7.06641 65.6611 7.00781 65.6611L7.18359 66.0127C7.18359 66.1299 7.125 66.1885 7.00781 66.1885C7.33008 66.8916 7.85742 67.5947 8.58984 68.2979C9.76172 69.8799 10.3477 70.876 10.3477 71.2861C10.9336 72.6924 11.3438 73.3955 11.5781 73.3955C12.1934 73.5127 12.5449 73.5713 12.6328 73.5713C14.918 73.5713 18.1406 73.1025 22.3008 72.165C24.5273 72.6338 26.0508 72.8682 26.8711 72.8682C31.0898 72.5166 33.1992 72.1064 33.1992 71.6377C33.9023 71.1982 34.3711 70.5537 34.6055 69.7041C33.6973 65.4854 32.7598 63.376 31.793 63.376C31.4414 63.2295 31.2656 63.1123 31.2656 63.0244C30.0352 63.4932 29.2148 63.7275 28.8047 63.7275H28.6289C25.5234 63.7275 23.707 62.6729 23.1797 60.5635C23.0625 60.3877 23.0039 60.0947 23.0039 59.6846V58.1025C23.0039 57.4287 22.8867 56.2568 22.6523 54.5869C23.502 50.1338 24.498 47.9072 25.6406 47.9072L27.75 47.5557C27.9258 47.5557 28.7461 47.6143 30.2109 47.7314C31.6758 47.6143 32.4961 47.5557 32.6719 47.5557C32.8184 47.5557 34.3418 47.8486 37.2422 48.4346C37.5645 48.4346 38.8535 47.8486 41.1094 46.6768C42.6328 46.6768 44.2734 46.1494 46.0312 45.0947C47.4375 45.0947 48.4922 44.04 49.1953 41.9307C50.1328 41.4619 51.3633 39.4697 52.8867 35.9541C54.293 34.7236 54.9961 32.8486 54.9961 30.3291V27.165C54.9961 25.7881 54.2344 23.5029 52.7109 20.3096C51.0996 17.7607 50.1621 16.4131 49.8984 16.2666C43.3066 12.6338 38.2676 10.8174 34.7812 10.8174C34.3711 10.7002 33.7852 10.6416 33.0234 10.6416C31.3828 10.876 30.3281 10.9932 29.8594 10.9932C28.2773 10.7588 27.2812 10.6416 26.8711 10.6416H26.5195C24.8789 11.2275 23.3555 11.5205 21.9492 11.5205C20.8359 11.5205 19.0781 11.0518 16.6758 10.1143C16.002 10.2314 15.2402 10.5244 14.3906 10.9932L13.6875 11.1689ZM23.8828 17.4971C24 17.4971 24.0586 17.5557 24.0586 17.6729L24.9375 17.4971H25.4648C25.9336 17.4971 26.6953 17.6143 27.75 17.8486C28.9219 17.6143 29.9766 17.4971 30.9141 17.4971H31.0898C34.8105 17.4971 39.2051 19.4893 44.2734 23.4736C44.8594 23.4736 45.3867 25.29 45.8555 28.9229V29.0986C45.8555 29.8018 44.9766 30.7393 43.2188 31.9111C42.8086 32.5264 42.2227 33.9912 41.4609 36.3057C40.6992 37.2432 39.5273 37.7119 37.9453 37.7119H37.0664C36.5684 37.7119 36.0996 37.5947 35.6602 37.3604C35.543 37.3604 35.4844 37.4189 35.4844 37.5361L34.6055 37.3604H34.2539L30.5625 38.0635V37.8877C30.0938 37.9756 29.8594 38.0928 29.8594 38.2393C27.252 38.2393 25.4941 37.3018 24.5859 35.4268C24.5859 35.0752 23.8828 33.376 22.4766 30.3291V29.9775C22.4766 29.7432 22.6523 28.9814 23.0039 27.6924C23.0039 27.1064 22.5938 25.9346 21.7734 24.1768V24.001L22.8281 20.6611C22.7109 20.1924 22.6523 19.7822 22.6523 19.4307C23.1504 18.1416 23.5605 17.4971 23.8828 17.4971ZM64.3828 6.24707H68.0742C80.2617 7.06738 93.5039 8.53223 107.801 10.6416C112.137 10.6416 114.305 11.1104 114.305 12.0479C114.539 13.4541 114.656 14.5674 114.656 15.3877V54.9385C114.158 72.3994 113.631 81.1299 113.074 81.1299C111.639 81.833 109.998 82.1846 108.152 82.1846C107.127 81.833 105.545 81.6572 103.406 81.6572H97.6055C96.0234 81.6572 94.7344 81.7744 93.7383 82.0088C85.4766 81.7744 78.5039 81.3057 72.8203 80.6025C69.3047 79.5479 64.5586 79.0205 58.582 79.0205C57.7617 78.6982 57.3516 78.4639 57.3516 78.3174C57 68.2393 56.707 60.9736 56.4727 56.5205V35.9541C57.293 22.7412 57.7031 14.0693 57.7031 9.93848V6.77441C57.7617 6.54004 57.8789 6.42285 58.0547 6.42285V6.59863C58.1719 6.59863 58.2305 6.54004 58.2305 6.42285C60.9844 6.30566 63.0352 6.24707 64.3828 6.24707ZM63.8555 12.2236V12.5752C64.207 12.5752 64.3828 12.751 64.3828 13.1025C64.2656 13.3369 64.207 13.5127 64.207 13.6299H63.6797C63.416 13.6299 63.1816 13.5713 62.9766 13.4541H62.8008V13.6299H63.1523C63.1523 14.2451 62.9766 14.5967 62.625 14.6846H61.7461C61.7461 15.7393 61.2773 16.2666 60.3398 16.2666L60.5156 16.6182V16.9697C60.1641 17.4092 59.9883 17.8193 59.9883 18.2002C61.5703 20.0459 62.5078 21.7451 62.8008 23.2979L63.3281 23.6494C63.3281 23.7373 63.2695 24.0889 63.1523 24.7041L63.8555 31.7354C63.7383 33.874 63.6797 35.2217 63.6797 35.7783C64.002 37.7998 64.2949 40.6123 64.5586 44.2158V44.3916L63.5039 48.6104C63.8555 50.3389 64.0312 51.6279 64.0312 52.4775C63.6797 54.5869 63.5039 56.0518 63.5039 56.8721V57.2236C63.5039 58.5713 63.6797 60.3291 64.0312 62.4971V62.8486L63.3281 64.2549V64.7822C63.3281 64.8994 63.4453 65.3682 63.6797 66.1885C63.6797 66.6572 63.4453 67.0088 62.9766 67.2432L62.625 67.0674C62.625 67.3604 62.2734 67.7119 61.5703 68.1221L60.6914 67.9463H60.3398L60.5156 68.8252V69.3525C60.5156 69.5869 60.3398 69.7041 59.9883 69.7041C59.9883 71.4619 61.4531 72.9268 64.3828 74.0986C65.4961 74.0986 67.3125 74.04 69.832 73.9229C74.168 74.04 77.3906 74.2158 79.5 74.4502H79.6758C80.9355 73.2783 81.6387 72.6924 81.7852 72.6924C83.4258 72.4287 84.2461 72.0186 84.2461 71.4619C84.1875 70.3193 83.8359 69.0889 83.1914 67.7705L83.3672 67.4189C82.5176 66.7744 81.4043 66.2471 80.0273 65.8369C78.4453 64.1963 76.5703 63.376 74.4023 63.376C73.6699 63.376 73.2598 62.9072 73.1719 61.9697C73.1719 61.501 73.2305 60.8564 73.3477 60.0361C73.2305 58.2783 73.0547 57.2822 72.8203 57.0479C72.9375 56.4619 73.0547 56.1689 73.1719 56.1689C72.9375 54.4404 72.8203 52.7998 72.8203 51.2471C72.8203 51.1885 72.8789 50.4268 72.9961 48.9619C72.8789 48.9619 72.8203 48.9033 72.8203 48.7861L73.1719 48.6104C73.1719 48.7861 73.4062 49.0205 73.875 49.3135L75.1055 48.4346C75.3398 48.9033 75.6914 49.1377 76.1602 49.1377C76.2188 48.9033 76.3359 48.7861 76.5117 48.7861H77.5664V48.6104L77.3906 48.2588C77.625 48.2588 77.7422 48.1416 77.7422 47.9072H78.2695L79.1484 47.7314C79.207 47.9658 79.3242 48.083 79.5 48.083C79.5 47.2627 79.6172 46.8525 79.8516 46.8525H80.0273L80.7305 47.3799H80.9062L81.7852 46.8525C83.5137 47.2627 84.627 47.6143 85.125 47.9072H85.3008L86.1797 47.7314C86.1797 47.9365 86.7656 48.4639 87.9375 49.3135C88.7871 50.3096 89.4902 51.7158 90.0469 53.5322L89.6953 54.9385C89.9297 54.9678 90.0469 55.085 90.0469 55.29L89.8711 55.9932C89.8711 56.2861 90.3398 57.2822 91.2773 58.9814C91.3945 59.5967 91.4531 59.9482 91.4531 60.0361L91.1016 62.3213C91.6875 63.6982 92.4492 66.5107 93.3867 70.7588C94.2363 71.5791 94.9395 71.9893 95.4961 71.9893H97.2539C97.957 71.9893 99.2461 72.3408 101.121 73.0439C101.883 72.9561 103.523 72.4287 106.043 71.4619H107.098C108.27 71.6963 108.914 71.8135 109.031 71.8135H109.559C109.939 71.8135 110.232 71.1689 110.438 69.8799L108.855 66.8916C107.391 65.1924 106.102 63.2002 104.988 60.915H105.164C104.08 58.5713 103.26 57.3994 102.703 57.3994C102.498 57.5166 102.322 57.5752 102.176 57.5752V57.3994C101.766 57.6338 101.238 57.751 100.594 57.751C99.832 57.751 99.1875 56.6377 98.6602 54.4111V54.2354C98.8652 53.7666 99.2754 53.5322 99.8906 53.5322H101.121C101.443 53.5322 101.678 52.9463 101.824 51.7744V50.8955C101.824 48.4053 101.414 46.2959 100.594 44.5674C100.594 44.04 100.945 42.9268 101.648 41.2275C101.648 40.9639 101.883 40.7881 102.352 40.7002C102.879 38.9424 103.465 38.0635 104.109 38.0635C104.461 37.917 104.695 37.2139 104.812 35.9541C105.018 35.9541 105.193 35.8369 105.34 35.6025L104.988 34.8994L105.691 33.6689L105.34 32.9658L105.867 31.9111C105.457 31.5889 105.047 30.2412 104.637 27.8682C103.816 26.96 103.406 25.3193 103.406 22.9463C102.645 22.0674 101.59 20.6025 100.242 18.5518C98.8652 17.1455 96.6387 15.5049 93.5625 13.6299C91.3945 13.3955 89.1094 12.8682 86.707 12.0479C85.916 11.9307 85.2715 11.8721 84.7734 11.8721C84.0703 11.8721 82.3711 12.0479 79.6758 12.3994C77.3613 12.0479 75.4277 11.8721 73.875 11.8721H64.5586C64.2949 12.1064 64.0605 12.2236 63.8555 12.2236ZM85.125 19.958C86.8242 20.0752 87.7617 20.1338 87.9375 20.1338C88.9336 20.0166 89.6953 19.958 90.2227 19.958C91.1895 19.958 92.4199 20.8369 93.9141 22.5947C95.6719 24.0303 96.5508 26.0811 96.5508 28.7471C96.5508 29.4209 95.4961 31.1787 93.3867 34.0205C93.3867 35.4854 91.7461 36.7744 88.4648 37.8877C87.4102 38.1221 86.6484 38.2393 86.1797 38.2393H85.6523C81.9902 37.8877 79.2363 37.4775 77.3906 37.0088C76.2188 37.7119 75.3984 38.0635 74.9297 38.0635C73.0547 38.0635 72.1172 36.1885 72.1172 32.4385C72.1172 31.8232 73.1133 30.3584 75.1055 28.0439C75.3398 27.2236 75.457 26.5205 75.457 25.9346V25.7588C75.457 25.085 75.3398 23.9131 75.1055 22.2432C75.3105 21.1885 75.8379 20.6611 76.6875 20.6611L78.7969 21.3643C80.6719 20.4268 82.7812 19.958 85.125 19.958ZM78.0938 46.8525H78.2695V47.2041H78.0938V46.8525ZM150.762 0.446289H151.465C155.215 0.446289 160.547 0.797852 167.461 1.50098H168.867C169.189 1.50098 169.424 1.96973 169.57 2.90723C169.688 16.4131 169.746 26.8428 169.746 34.1963V35.0752L170.449 47.3799V51.9502C170.215 58.9814 170.098 62.9072 170.098 63.7275V70.4072C170.098 75.0947 169.512 77.4385 168.34 77.4385C167.959 77.4385 165.732 78.083 161.66 79.3721C159.932 79.8408 158.35 80.0752 156.914 80.0752C149.59 80.0752 143.848 80.3682 139.688 80.9541C127.266 80.4854 121.055 79.958 121.055 79.3721C116.777 78.5518 114.551 78.1416 114.375 78.1416C113.789 78.1416 113.32 72.9268 112.969 62.4971C112.5 59.8896 112.266 56.3154 112.266 51.7744V51.4229C112.5 47.9658 112.617 46.0908 112.617 45.7979V19.4307C113.203 11.0811 113.496 6.33496 113.496 5.19238C113.262 5.19238 113.145 5.0752 113.145 4.84082V3.96191L112.969 2.2041C113.818 1.50098 115.518 1.14941 118.066 1.14941H120.176C123.867 1.50098 126.152 1.67676 127.031 1.67676H131.777L150.762 0.446289ZM117.539 35.0752L117.715 35.9541L116.484 41.0518C116.484 41.4619 116.719 42.458 117.188 44.04C117.07 44.8311 117.012 45.4756 117.012 45.9736V47.0283C118.242 55.583 119.59 59.8604 121.055 59.8604C121.875 60.5928 123.047 62.2334 124.57 64.7822C126.24 66.7451 127.588 68.2686 128.613 69.3525C128.994 71.1104 129.932 71.9893 131.426 71.9893C133.828 71.9893 135.82 72.6338 137.402 73.9229L138.457 74.0986C138.838 74.0986 140.127 73.9229 142.324 73.5713H142.5C143.525 73.9229 144.111 74.0986 144.258 74.0986H144.785C146.338 73.3955 148.213 72.9268 150.41 72.6924C151.582 71.6963 153.164 70.9346 155.156 70.4072C155.625 69.9385 156.328 68.708 157.266 66.7158C157.705 66.6572 158.584 65.251 159.902 62.4971C161.367 61.2959 162.598 58.4248 163.594 53.8838C164.766 53.0928 165.352 50.9834 165.352 47.5557C165.352 45.3291 165.469 43.8643 165.703 43.1611L165.527 40.7002C165.645 38.5322 165.703 37.1846 165.703 36.6572C164.414 31.0029 162.891 25.5537 161.133 20.3096C159.463 17.292 157.588 15.2998 155.508 14.333C153.223 12.0771 150.234 10.3779 146.543 9.23535C141.006 9.23535 136.143 10.0557 131.953 11.6963C131.309 11.6963 130.547 12.5752 129.668 14.333C127.207 15.0361 125.977 15.915 125.977 16.9697C124.424 19.8115 122.959 21.6279 121.582 22.4189C120.879 26.6377 119.766 29.9775 118.242 32.4385C117.773 33.7861 117.539 34.665 117.539 35.0752ZM139.336 18.7275C140.977 18.9619 142.148 19.0791 142.852 19.0791C142.998 19.0791 143.584 19.0205 144.609 18.9033C146.162 19.8408 147.92 20.3096 149.883 20.3096C150.352 20.3096 150.82 21.6572 151.289 24.3525L154.629 26.6377C155.156 27.6338 155.859 29.8604 156.738 33.3174V34.8994C156.738 35.0166 156.68 35.0752 156.562 35.0752C156.562 35.1924 156.621 35.251 156.738 35.251C156.621 37.3604 156.445 38.415 156.211 38.415C156.211 38.5322 156.27 38.5908 156.387 38.5908C156.299 39.6455 156.182 40.1729 156.035 40.1729C156.504 41.2568 156.738 42.3701 156.738 43.5127C156.738 44.2744 155.625 46.7939 153.398 51.0713C153.516 51.2764 153.574 51.4521 153.574 51.5986C153.516 52.7119 152.812 54.7041 151.465 57.5752C150.264 59.4502 149.268 60.3877 148.477 60.3877H147.949C147.949 60.8564 146.953 61.2666 144.961 61.6182L144.609 61.4424C144.609 61.6768 144.492 61.7939 144.258 61.7939C144.258 61.6182 144.082 61.4424 143.73 61.2666L142.852 61.4424C142.852 61.2373 142.617 61.0029 142.148 60.7393C142.148 60.9736 142.031 61.0908 141.797 61.0908V60.915L141.445 61.0908H141.094L138.984 60.5635C138.984 60.7979 138.926 60.915 138.809 60.915L137.578 60.0361C137.344 60.1533 137.168 60.2119 137.051 60.2119C133.066 55.7588 131.074 52.7119 131.074 51.0713C131.074 50.0752 130.664 46.208 129.844 39.4697C129.844 39.0303 129.785 38.5029 129.668 37.8877C130.137 35.0752 130.371 33.4932 130.371 33.1416C130.254 32.9365 130.195 32.7021 130.195 32.4385C130.195 32.3213 130.254 31.8525 130.371 31.0322L130.195 30.6807C130.43 30.0654 130.547 29.5967 130.547 29.2744C130.43 29.04 130.371 28.8643 130.371 28.7471C130.723 28.1904 130.957 27.4873 131.074 26.6377C131.602 26.6377 131.953 26.4033 132.129 25.9346C131.953 25.9346 131.777 25.7588 131.602 25.4072V25.2314H131.777C132.129 25.2314 132.305 25.4658 132.305 25.9346H132.48C133.184 25.6416 133.887 24.5869 134.59 22.7705C135.791 20.0752 137.373 18.7275 139.336 18.7275ZM133.184 23.8252L133.359 24.1768V24.3525H133.184C132.949 24.3525 132.832 24.2354 132.832 24.001L133.184 23.8252ZM190.559 4.5332C194.045 4.5625 202.307 5.55859 215.344 7.52148H219.211C219.68 7.52148 220.441 7.4043 221.496 7.16992C221.936 8.3418 222.287 11.5645 222.551 16.8379V37.9316C221.496 64.0645 220.676 77.1309 220.09 77.1309C220.09 77.3652 219.973 77.4824 219.738 77.4824H217.98C214.523 77.7168 212.648 77.834 212.355 77.834H192.668C191.32 77.834 190.383 77.9512 189.855 78.1855C181.389 77.834 175.939 77.3066 173.508 76.6035C169.875 76.3105 168.059 75.9004 168.059 75.373V73.791C168.059 73.6152 168.176 72.209 168.41 69.5723C168.41 69.2793 168.293 66.4082 168.059 60.959V60.4316C168.293 57.502 168.41 55.9785 168.41 55.8613C168.41 46.8965 168.938 31.7207 169.992 10.334V8.04883C169.992 6.29102 170.695 5.41211 172.102 5.41211C174.592 5.06055 176.525 4.88477 177.902 4.88477C179.016 4.88477 180.832 4.94336 183.352 5.06055C185.52 4.70898 187.922 4.5332 190.559 4.5332ZM185.637 8.57617H183.879L182.824 8.75195C182.707 8.75195 182.648 8.69336 182.648 8.57617L180.539 8.92773L179.66 8.57617C179.66 8.92773 179.426 9.10352 178.957 9.10352L178.078 8.92773C178.078 9.42578 177.199 9.77734 175.441 9.98242V9.63086L174.738 10.6855L173.859 10.5098V11.2129L174.035 12.0918L173.684 12.2676C173.479 12.1504 173.303 12.0918 173.156 12.0918V12.2676C173.273 12.4727 173.391 13 173.508 13.8496C173.156 13.9668 172.98 14.084 172.98 14.2012L173.156 14.5527C173.039 14.7578 172.98 14.9336 172.98 15.0801C173.215 15.1094 173.332 15.2266 173.332 15.4316C173.332 15.5781 173.156 15.7539 172.805 15.959C172.98 16.6035 173.156 17.0723 173.332 17.3652V17.541L172.98 18.0684V18.2441C173.391 18.625 173.918 19.6797 174.562 21.4082L174.914 21.2324H175.09C175.09 21.7012 175.324 21.9355 175.793 21.9355V22.1113L175.617 22.4629C175.734 22.4629 175.793 22.5215 175.793 22.6387L176.145 22.4629H176.32C177.492 24.3965 178.078 25.9785 178.078 27.209V27.5605C177.492 28.5566 177.199 29.4941 177.199 30.373C177.199 33.7129 177.492 36.4082 178.078 38.459L176.848 44.084V44.9629C176.848 45.5195 176.906 46.1055 177.023 46.7207C176.643 49.9434 176.291 52.1699 175.969 53.4004C174.826 54.6016 174.182 55.7148 174.035 56.7402C174.27 57.1211 174.387 57.4141 174.387 57.6191C174.387 58.6152 173.684 59.5527 172.277 60.4316V60.6074C172.512 60.6367 172.629 60.7539 172.629 60.959C172.629 61.4277 172.336 61.6621 171.75 61.6621V62.3652C171.809 62.5996 171.926 62.7168 172.102 62.7168L171.574 63.5957V64.123L171.926 64.6504V65.1777H171.574V65.3535C171.574 65.7637 171.809 66.2324 172.277 66.7598V66.9355L171.926 67.4629C171.926 67.6387 172.16 67.873 172.629 68.166L172.453 69.0449V69.3965L173.156 70.0996L172.98 70.9785C173.215 70.9785 173.508 71.2129 173.859 71.6816C173.859 71.5645 173.918 71.5059 174.035 71.5059C174.035 71.916 174.504 72.2676 175.441 72.5605L175.793 72.3848L177.023 72.9121L177.375 72.7363C177.492 72.7363 177.844 72.9707 178.43 73.4395L179.66 73.2637C179.719 73.498 179.836 73.6152 180.012 73.6152C181.682 73.1465 182.854 72.9121 183.527 72.9121C183.732 72.9121 184.67 73.1465 186.34 73.6152L194.777 72.3848C197.004 71.3594 198.527 70.3633 199.348 69.3965L198.996 68.6934C199.23 67.9902 199.406 67.6387 199.523 67.6387C198.908 66.2324 198.381 65.5293 197.941 65.5293C197.941 65.7637 197.824 65.8809 197.59 65.8809C197.121 65.0605 196.828 64.6504 196.711 64.6504C196.506 64.7676 196.271 64.8262 196.008 64.8262C195.686 64.123 194.865 63.5371 193.547 63.0684C193.547 63.1855 193.488 63.2441 193.371 63.2441C193.371 63.0977 192.609 62.3359 191.086 60.959C190.91 60.2559 190.676 59.9043 190.383 59.9043V59.7285C190.383 59.6113 190.441 59.5527 190.559 59.5527L190.383 59.2012V58.6738L190.559 58.3223C190.441 58.3223 190.031 57.7363 189.328 56.5645C188.391 55.5391 187.922 54.543 187.922 53.5762V52.3457L188.098 51.4668C187.834 51.4668 187.658 50.5879 187.57 48.8301L187.746 48.127L187.57 47.0723C189.094 45.6367 189.855 44.6406 189.855 44.084C190.646 44.2012 191.057 44.377 191.086 44.6113C191.32 44.4941 191.496 44.4355 191.613 44.4355C191.76 44.4355 191.936 44.4941 192.141 44.6113C192.609 44.4941 193.02 44.4355 193.371 44.4355C194.543 44.4355 195.48 45.7246 196.184 48.3027C196.389 48.3027 196.623 49.5918 196.887 52.1699C197.502 52.5215 199.494 53.3418 202.863 54.6309H203.215C203.449 54.6309 203.566 54.5137 203.566 54.2793V53.4004C203.566 53.2246 203.449 52.5801 203.215 51.4668C203.215 51.2031 203.273 50.9688 203.391 50.7637C203.273 50.5586 203.215 50.3242 203.215 50.0605V49.3574C203.273 49.123 203.391 49.0059 203.566 49.0059L203.391 48.6543V48.4785C203.449 47.6582 203.566 47.248 203.742 47.248L203.391 44.2598L203.566 43.3809L203.391 43.0293C203.625 42.1504 203.742 41.6816 203.742 41.623C203.508 41.2422 203.391 40.9492 203.391 40.7441L203.566 39.8652C203.332 39.4551 203.215 39.1035 203.215 38.8105V38.2832C203.215 38.166 203.273 38.1074 203.391 38.1074C203.273 37.873 203.215 37.6973 203.215 37.5801C203.098 35.6758 203.039 34.6211 203.039 34.416C203.156 34.416 203.215 34.3574 203.215 34.2402C202.98 34.2402 202.863 34.0645 202.863 33.7129L203.039 32.6582L202.863 31.7793L203.039 30.9004L202.863 29.6699C202.98 29.2598 203.039 29.0254 203.039 28.9668L202.863 27.9121L203.566 24.748C203.098 23.8105 202.453 23.3418 201.633 23.3418C201.633 23.5762 201.516 23.6934 201.281 23.6934H200.754C200.49 23.459 200.256 23.3418 200.051 23.3418C199.846 23.459 199.67 23.5176 199.523 23.5176C199.523 23.4004 199.465 23.3418 199.348 23.3418C199.348 23.5762 199.23 23.6934 198.996 23.6934H197.941C196.594 23.6934 195.773 24.0449 195.48 24.748V25.4512C195.48 25.8613 195.773 26.7988 196.359 28.2637C195.539 30.4902 194.602 31.6035 193.547 31.6035C189.328 31.3691 187.219 30.5488 187.219 29.1426L186.867 27.9121C186.984 26.7109 187.043 25.7734 187.043 25.0996V20.8809C187.805 19.9434 188.332 19.4746 188.625 19.4746H189.152C189.152 19.3574 189.504 19.2402 190.207 19.123L190.91 19.4746C190.969 19.2402 191.086 19.123 191.262 19.123H191.965L192.844 19.2988C192.844 18.9473 192.961 18.7715 193.195 18.7715C193.312 18.7715 193.371 18.8301 193.371 18.9473L193.723 18.7715H194.074L194.426 18.9473C194.484 18.7129 194.602 18.5957 194.777 18.5957H194.953C195.07 18.5957 195.129 18.6543 195.129 18.7715L195.48 18.5957H195.656L196.535 18.7715C196.535 18.5957 196.887 18.3613 197.59 18.0684L197.941 18.2441C198.352 18.2441 198.82 18.0684 199.348 17.7168L199.875 18.0684H200.051C200.314 18.0684 200.549 18.0098 200.754 17.8926H201.281V17.7168C202.922 17.8633 203.859 18.0391 204.094 18.2441C204.328 18.127 204.504 18.0684 204.621 18.0684C204.973 18.6543 206.145 19.2988 208.137 20.002C208.986 20.998 210.1 22.6387 211.477 24.9238L211.301 25.2754V26.5059H211.652V26.8574L211.301 27.3848V28.2637C211.594 28.2637 211.77 28.498 211.828 28.9668C211.682 28.9668 211.506 29.1426 211.301 29.4941V29.6699L212.355 31.7793L212.707 31.9551H213.586C214.992 31.9551 216.516 29.6113 218.156 24.9238C217.922 24.3965 217.746 23.4004 217.629 21.9355L217.805 21.0566C217.805 20.9102 217.746 20.7344 217.629 20.5293C217.746 19.8848 217.805 19.416 217.805 19.123C217.805 16.3105 216.633 13.5566 214.289 10.8613C213.469 10.3047 212.121 9.95312 210.246 9.80664C210.246 9.68945 210.188 9.63086 210.07 9.63086L209.191 9.80664C208.928 9.80664 208.693 9.74805 208.488 9.63086C206.672 9.77734 205.676 9.89453 205.5 9.98242C203.947 9.63086 202.424 9.39648 200.93 9.2793L200.578 9.45508L200.227 9.2793L199.875 9.45508L199.523 9.2793C199.055 9.39648 198.645 9.45508 198.293 9.45508C197.941 9.33789 197.766 9.2207 197.766 9.10352L196.887 9.2793H194.602C194.191 9.2793 193.664 9.2207 193.02 9.10352C192.873 9.2207 192.463 9.2793 191.789 9.2793L191.613 8.92773C191.145 9.16211 190.793 9.2793 190.559 9.2793L189.68 8.75195C189.475 8.86914 189.299 8.92773 189.152 8.92773V8.75195L188.801 8.92773H188.273L187.746 8.57617H186.164C186.047 8.57617 185.988 8.51758 185.988 8.40039L185.637 8.57617ZM238.881 6.55469L255.053 7.43359H258.393C260.385 7.46289 261.381 7.58008 261.381 7.78516L261.732 7.60938H264.721C270.346 7.60938 273.158 8.01953 273.158 8.83984V9.01562C273.979 19.6504 274.389 25.7441 274.389 27.2969V57.8828C274.154 61.3398 274.037 63.2148 274.037 63.5078V65.6172C273.275 74.1719 272.514 78.4492 271.752 78.4492H271.225C265.014 78.6836 261.557 78.8008 260.854 78.8008H252.943C243.539 77.9805 237.328 77.5703 234.311 77.5703H232.729C224.408 77.0723 220.248 76.0176 220.248 74.4062V68.7812C220.248 67.9609 220.072 65.3242 219.721 60.8711C219.838 44.3477 220.131 33.1562 220.6 27.2969V16.0469C220.834 13.2051 220.951 11.623 220.951 11.3008V9.54297C220.072 9.54297 219.604 9.36719 219.545 9.01562C219.545 7.72656 221.186 7.08203 224.467 7.08203H229.213C230.062 7.08203 233.285 6.90625 238.881 6.55469ZM250.131 12.1797H246.264C245.443 12.1797 244.33 12.0625 242.924 11.8281C241.43 12.2969 240.551 12.5312 240.287 12.5312H239.584C239.086 12.5312 238.441 12.3555 237.65 12.0039C230.033 12.0039 226.225 12.4727 226.225 13.4102C225.961 13.9961 225.668 14.2891 225.346 14.2891C225.463 14.5234 225.521 14.6992 225.521 14.8164L224.643 16.2227L224.818 17.2773L224.467 17.9805C225.668 18.4199 226.605 19.4746 227.279 21.1445C228.451 22.4922 229.037 23.4883 229.037 24.1328C229.037 24.2207 228.92 25.041 228.686 26.5938L229.74 30.6367L228.861 33.4492C228.861 33.7422 229.154 34.7969 229.74 36.6133C229.594 36.7598 229.477 37.5801 229.389 39.0742C229.857 40.0703 230.092 40.8906 230.092 41.5352C229.154 43.7324 228.686 45.0801 228.686 45.5781C228.92 46.9844 229.096 49.6211 229.213 53.4883C229.213 54.3086 228.686 55.4219 227.631 56.8281V57.5312C228.334 59.0254 228.686 59.8457 228.686 59.9922V60.5195C227.807 62.7461 226.225 64.5039 223.939 65.793C223.939 65.8516 223.588 66.2031 222.885 66.8477C223.266 68.1074 223.734 69.2793 224.291 70.3633C225.609 71.7402 227.133 72.6777 228.861 73.1758C228.861 73.3516 229.154 73.5859 229.74 73.8789L230.092 73.7031H230.268C230.385 73.7031 230.443 73.7617 230.443 73.8789C230.824 73.6445 231.117 73.5273 231.322 73.5273L232.201 73.7031C232.201 73.5273 232.377 73.3516 232.729 73.1758L233.607 73.7031H233.783L234.486 73.1758C234.604 73.1758 234.779 73.2344 235.014 73.3516L238.705 72.1211C241.371 72.9707 243.422 73.498 244.857 73.7031C244.975 73.7031 245.15 73.6445 245.385 73.5273C245.766 73.7617 246.117 73.8789 246.439 73.8789L250.307 72.4727H250.658C253.236 72.6777 254.525 72.8535 254.525 73C254.848 72.8828 255.961 72.707 257.865 72.4727C260.092 72.8242 262.084 73 263.842 73C268.295 71.7988 270.521 70.3926 270.521 68.7812L270.346 68.4297C270.229 66.291 270.17 64.8848 270.17 64.2109C270.17 64.0938 270.229 63.625 270.346 62.8047C269.643 60.8125 269.291 59.582 269.291 59.1133C269.291 58.4688 269.467 57.8242 269.818 57.1797L269.643 56.8281L269.994 55.9492C269.994 54.3965 269.291 52.7559 267.885 51.0273C267.885 50.3535 267.416 49.9434 266.479 49.7969H265.775C262.729 50.2363 261.205 50.998 261.205 52.082C261.205 52.4629 261.146 52.7559 261.029 52.9609C261.146 53.166 261.205 53.4004 261.205 53.6641C261.205 54.0449 261.146 54.3379 261.029 54.543C261.146 55.7441 261.498 57.1504 262.084 58.7617C262.084 58.8789 262.025 58.9375 261.908 58.9375L262.084 59.2891C261.967 59.4941 261.908 59.7285 261.908 59.9922C262.26 59.9922 262.436 60.1094 262.436 60.3438V60.8711C261.703 61.5156 260.238 62.2773 258.041 63.1562C257.66 63.8594 257.016 64.2109 256.107 64.2109L251.01 63.5078H250.482C247.758 63.9766 246 64.2109 245.209 64.2109H245.033C241.166 64.2109 239.232 63.5078 239.232 62.1016C238.646 61.252 238.354 60.1973 238.354 58.9375L238.881 56.8281L238.002 52.4336L238.354 51.3789C238.236 50.9688 238.178 50.7344 238.178 50.6758C238.236 49.8555 238.354 49.4453 238.529 49.4453L238.354 49.0938C238.354 48.8301 238.412 48.5957 238.529 48.3906C238.529 48.2734 238.471 48.2148 238.354 48.2148C238.588 46.6328 238.939 45.3438 239.408 44.3477C239.525 43.4102 239.701 42.9414 239.936 42.9414H240.287C242.514 43.2637 243.627 43.6152 243.627 43.9961L244.33 43.8203C246.557 43.8203 247.67 44.4062 247.67 45.5781C247.67 45.6953 247.611 45.7539 247.494 45.7539C247.729 47.2773 247.963 48.1562 248.197 48.3906C248.08 50.6465 248.021 52.1113 248.021 52.7852C248.402 54.8945 249.34 55.9492 250.834 55.9492C253.529 55.3633 254.877 54.4844 254.877 53.3125C254.291 47.1016 253.764 43.9961 253.295 43.9961L252.768 42.2383C252.885 41.4473 252.943 40.8027 252.943 40.3047C252.709 39.25 252.592 38.4883 252.592 38.0195C253.881 35.6172 254.525 33.918 254.525 32.9219C254.408 32.5117 254.35 32.2773 254.35 32.2188L254.525 31.3398C254.525 28.9961 254.057 27.8242 253.119 27.8242C252.27 27.707 251.449 27.5312 250.658 27.2969C250.658 27.5312 250.541 27.6484 250.307 27.6484V27.4727L249.955 27.6484C249.545 27.4141 249.193 27.2969 248.9 27.2969C248.285 27.4141 247.934 27.4727 247.846 27.4727C247.846 27.2383 247.729 27.1211 247.494 27.1211C246.322 27.6191 245.736 28.6152 245.736 30.1094C245.883 30.9297 246.059 31.3398 246.264 31.3398C246.264 33.127 245.678 34.2988 244.506 34.8555H244.33C243.92 34.6211 243.334 34.4453 242.572 34.3281C242.572 34.5625 242.455 34.6797 242.221 34.6797C242.045 34.2988 241.049 33.6543 239.232 32.7461L239.057 32.3945C239.057 32.2773 239.115 32.2188 239.232 32.2188C238.705 31.7207 238.178 30.9004 237.65 29.7578C237.357 29.7578 237.064 29.0547 236.771 27.6484L237.123 27.4727L237.65 27.8242H237.826V26.418H237.475V26.0664H237.65L238.002 26.2422L237.475 23.6055C237.709 23.2246 237.826 22.873 237.826 22.5508L237.475 21.8477L237.826 21.6719C238.031 21.7891 238.207 21.8477 238.354 21.8477L238.529 21.4961V20.4414H239.057C239.115 20.4414 239.291 20.5586 239.584 20.793H239.76V19.9141L239.936 19.5625C240.404 19.6504 240.639 19.7676 240.639 19.9141C240.785 19.9141 241.078 19.6211 241.518 19.0352C241.898 19.2695 242.25 19.3867 242.572 19.3867C242.924 19.3867 243.1 19.0352 243.1 18.332H243.275C243.51 18.332 243.627 18.5078 243.627 18.8594H244.33L245.033 17.9805L245.912 18.5078H246.264C246.264 18.2441 246.498 18.0098 246.967 17.8047C246.967 17.9512 247.26 18.1855 247.846 18.5078H248.021C248.08 18.0391 248.256 17.8047 248.549 17.8047C248.93 18.1562 249.398 18.332 249.955 18.332C249.955 17.9805 250.189 17.8047 250.658 17.8047C250.658 18.0098 250.951 18.1855 251.537 18.332C251.566 18.0977 251.684 17.9805 251.889 17.9805C252.006 17.9805 253.119 18.2734 255.229 18.8594C256.371 18.3906 257.309 18.1562 258.041 18.1562C258.217 18.1562 258.979 18.9766 260.326 20.6172C261.146 20.998 261.557 21.5254 261.557 22.1992V22.375C261.557 22.6387 261.088 23.5762 260.15 25.1875V27.1211L260.502 27.6484C260.502 27.7656 260.443 27.8242 260.326 27.8242C260.941 31.1055 262.582 32.7461 265.248 32.7461C266.508 32.7461 267.27 31.75 267.533 29.7578C267.182 27.9414 267.006 26.7109 267.006 26.0664C267.006 25.5684 267.064 24.9238 267.182 24.1328C266.947 22.375 266.83 21.2617 266.83 20.793C267.064 19.6211 267.182 18.625 267.182 17.8047C266.039 14.1719 264.164 12.3555 261.557 12.3555C259.301 11.7695 256.664 11.3594 253.646 11.125H253.471C251.654 11.8281 250.541 12.1797 250.131 12.1797ZM296.432 6.4668C304.107 6.93555 310.787 7.46289 316.471 8.04883H325.084C326.256 8.04883 326.842 8.81055 326.842 10.334C327.193 13.0293 327.486 18.6543 327.721 27.209V30.0215C327.721 34.5625 326.959 44.1133 325.436 58.6738C325.318 60.7832 325.26 63.4785 325.26 66.7598C325.26 68.957 325.318 72.1797 325.436 76.4277C325.26 77.5996 324.791 78.1855 324.029 78.1855H323.678C322.857 78.1855 321.744 78.0684 320.338 77.834C319.049 78.0684 318.229 78.1855 317.877 78.1855C315.709 77.9512 314.244 77.834 313.482 77.834C308.707 78.3027 299.918 78.8301 287.115 79.416C284.566 79.416 280.406 78.7129 274.635 77.3066C273.844 76.3105 273.258 72.1504 272.877 64.8262C272.877 50.3828 272.584 38.6055 271.998 29.4941L272.701 16.1348V13.8496L273.229 8.22461C272.818 8.10742 273.17 7.84375 274.283 7.43359C275.396 7.02344 282.779 6.70117 296.432 6.4668ZM277.799 28.4395C278.443 31.9844 279.381 34.5625 280.611 36.1738C280.611 37.668 282.076 39.0742 285.006 40.3926C285.006 40.7734 286.705 41.6523 290.104 43.0293C291.334 44.2012 292.506 44.7871 293.619 44.7871H296.432C296.607 44.7871 297.428 45.0801 298.893 45.666C300.826 44.4941 302.174 43.9082 302.936 43.9082C303.668 43.9082 305.836 44.6699 309.439 46.1934C310.729 46.1934 312.135 47.3066 313.658 49.5332C315.182 50.3828 315.943 51.3789 315.943 52.5215V52.873C314.889 57.5605 313.951 59.9043 313.131 59.9043C312.809 60.373 310.113 62.0137 305.045 64.8262C303.375 65.5293 302.32 65.8809 301.881 65.8809C300.68 64.8262 298.629 64.2988 295.729 64.2988C294.732 62.7754 293.912 62.0137 293.268 62.0137C292.154 62.3652 291.451 62.541 291.158 62.541H290.807C290.191 62.541 289.195 61.6621 287.818 59.9043C286.939 59.9043 285.299 57.3262 282.896 52.1699L283.072 51.8184C282.75 49.4746 281.578 48.3027 279.557 48.3027C279.557 48.1855 279.322 48.127 278.854 48.127H278.678C278.121 48.127 277.477 49.5918 276.744 52.5215V53.0488C277.447 54.9824 277.799 56.0957 277.799 56.3887V56.7402C277.799 57.2676 277.506 58.2637 276.92 59.7285L277.096 61.8379C276.861 62.9219 276.744 63.5078 276.744 63.5957C276.949 63.5957 277.242 64.123 277.623 65.1777C277.828 65.1777 279.117 66.4082 281.49 68.8691C281.607 68.8691 282.135 69.2207 283.072 69.9238L283.424 69.748C284.01 70.2168 284.889 70.627 286.061 70.9785C288.814 72.7363 290.982 73.6152 292.564 73.6152H293.619C294.85 73.6152 297.252 73.3809 300.826 72.9121C302.555 73.3809 303.492 73.6152 303.639 73.6152H303.99C304.928 73.6152 307.271 72.9121 311.021 71.5059C313.541 71.5059 316.588 69.5137 320.162 65.5293C321.627 62.9512 322.799 59.4941 323.678 55.1582V54.6309C323.297 51.6719 322.066 48.332 319.986 44.6113C318.727 44.2305 316.734 42.5898 314.01 39.6895C312.223 38.9863 309.996 38.6348 307.33 38.6348C306.188 38.0488 305.074 37.7559 303.99 37.7559C303.521 37.7559 302.584 37.9316 301.178 38.2832C299.801 38.0781 298.98 37.8438 298.717 37.5801C298.482 37.6973 298.307 37.7559 298.189 37.7559C298.189 37.5215 296.9 37.1699 294.322 36.7012C294.322 36.584 294.088 36.4082 293.619 36.1738L293.268 36.3496H293.092C291.803 35.7344 290.631 34.8555 289.576 33.7129C288.463 32.8633 287.467 30.8711 286.588 27.7363C286.471 27.7363 286.412 27.6777 286.412 27.5605C286.441 26.9746 286.559 26.6816 286.764 26.6816L286.588 25.8027V25.4512C287.174 24.9238 287.467 24.3965 287.467 23.8691C287.701 23.8691 288.287 23.3418 289.225 22.2871L293.795 20.1777C294 20.0605 294.293 20.002 294.674 20.002H296.432C298.512 19.0645 299.625 18.5957 299.771 18.5957H300.475C303.141 18.9766 305.484 20.0898 307.506 21.9355C309.615 23.0195 311.607 25.7734 313.482 30.1973C315.416 32.4238 316.881 33.5371 317.877 33.5371C319.166 33.5371 320.104 31.8965 320.689 28.6152L320.162 25.0996C320.396 23.5469 320.514 22.5508 320.514 22.1113C320.191 21.7012 319.605 21.3496 318.756 21.0566C318.756 20.5879 318.521 20.3535 318.053 20.3535C317.818 20.4707 317.643 20.5293 317.525 20.5293C317.145 19.8262 316.852 19.4746 316.646 19.4746L315.768 19.6504C315.533 19.3574 315.416 19.1816 315.416 19.123L315.592 18.7715C315.211 18.7715 314.918 18.7129 314.713 18.5957C314.479 18.7129 314.303 18.7715 314.186 18.7715C313.863 18.2148 313.629 17.9219 313.482 17.8926H313.131L312.779 18.0684C312.428 17.6875 312.252 17.3359 312.252 17.0137H311.549L311.197 17.1895C309.908 14.9629 308.385 13.8496 306.627 13.8496C303.551 13.8496 300.973 13.0879 298.893 11.5645C297.926 11.4473 297.34 11.3301 297.135 11.2129C296.666 11.2129 294.146 11.9746 289.576 13.498C286.207 13.498 283.102 15.4316 280.26 19.2988C278.854 22.5801 278.15 24.4551 278.15 24.9238C278.033 25.041 277.916 26.2129 277.799 28.4395ZM348.885 6.4668C356.561 6.93555 363.24 7.46289 368.924 8.04883H377.537C378.709 8.04883 379.295 8.81055 379.295 10.334C379.646 13.0293 379.939 18.6543 380.174 27.209V30.0215C380.174 34.5625 379.412 44.1133 377.889 58.6738C377.771 60.7832 377.713 63.4785 377.713 66.7598C377.713 68.957 377.771 72.1797 377.889 76.4277C377.713 77.5996 377.244 78.1855 376.482 78.1855H376.131C375.311 78.1855 374.197 78.0684 372.791 77.834C371.502 78.0684 370.682 78.1855 370.33 78.1855C368.162 77.9512 366.697 77.834 365.936 77.834C361.16 78.3027 352.371 78.8301 339.568 79.416C337.02 79.416 332.859 78.7129 327.088 77.3066C326.297 76.3105 325.711 72.1504 325.33 64.8262C325.33 50.3828 325.037 38.6055 324.451 29.4941L325.154 16.1348V13.8496L325.682 8.22461C325.271 8.10742 325.623 7.84375 326.736 7.43359C327.85 7.02344 335.232 6.70117 348.885 6.4668ZM330.252 28.4395C330.896 31.9844 331.834 34.5625 333.064 36.1738C333.064 37.668 334.529 39.0742 337.459 40.3926C337.459 40.7734 339.158 41.6523 342.557 43.0293C343.787 44.2012 344.959 44.7871 346.072 44.7871H348.885C349.061 44.7871 349.881 45.0801 351.346 45.666C353.279 44.4941 354.627 43.9082 355.389 43.9082C356.121 43.9082 358.289 44.6699 361.893 46.1934C363.182 46.1934 364.588 47.3066 366.111 49.5332C367.635 50.3828 368.396 51.3789 368.396 52.5215V52.873C367.342 57.5605 366.404 59.9043 365.584 59.9043C365.262 60.373 362.566 62.0137 357.498 64.8262C355.828 65.5293 354.773 65.8809 354.334 65.8809C353.133 64.8262 351.082 64.2988 348.182 64.2988C347.186 62.7754 346.365 62.0137 345.721 62.0137C344.607 62.3652 343.904 62.541 343.611 62.541H343.26C342.645 62.541 341.648 61.6621 340.271 59.9043C339.393 59.9043 337.752 57.3262 335.35 52.1699L335.525 51.8184C335.203 49.4746 334.031 48.3027 332.01 48.3027C332.01 48.1855 331.775 48.127 331.307 48.127H331.131C330.574 48.127 329.93 49.5918 329.197 52.5215V53.0488C329.9 54.9824 330.252 56.0957 330.252 56.3887V56.7402C330.252 57.2676 329.959 58.2637 329.373 59.7285L329.549 61.8379C329.314 62.9219 329.197 63.5078 329.197 63.5957C329.402 63.5957 329.695 64.123 330.076 65.1777C330.281 65.1777 331.57 66.4082 333.943 68.8691C334.061 68.8691 334.588 69.2207 335.525 69.9238L335.877 69.748C336.463 70.2168 337.342 70.627 338.514 70.9785C341.268 72.7363 343.436 73.6152 345.018 73.6152H346.072C347.303 73.6152 349.705 73.3809 353.279 72.9121C355.008 73.3809 355.945 73.6152 356.092 73.6152H356.443C357.381 73.6152 359.725 72.9121 363.475 71.5059C365.994 71.5059 369.041 69.5137 372.615 65.5293C374.08 62.9512 375.252 59.4941 376.131 55.1582V54.6309C375.75 51.6719 374.52 48.332 372.439 44.6113C371.18 44.2305 369.188 42.5898 366.463 39.6895C364.676 38.9863 362.449 38.6348 359.783 38.6348C358.641 38.0488 357.527 37.7559 356.443 37.7559C355.975 37.7559 355.037 37.9316 353.631 38.2832C352.254 38.0781 351.434 37.8438 351.17 37.5801C350.936 37.6973 350.76 37.7559 350.643 37.7559C350.643 37.5215 349.354 37.1699 346.775 36.7012C346.775 36.584 346.541 36.4082 346.072 36.1738L345.721 36.3496H345.545C344.256 35.7344 343.084 34.8555 342.029 33.7129C340.916 32.8633 339.92 30.8711 339.041 27.7363C338.924 27.7363 338.865 27.6777 338.865 27.5605C338.895 26.9746 339.012 26.6816 339.217 26.6816L339.041 25.8027V25.4512C339.627 24.9238 339.92 24.3965 339.92 23.8691C340.154 23.8691 340.74 23.3418 341.678 22.2871L346.248 20.1777C346.453 20.0605 346.746 20.002 347.127 20.002H348.885C350.965 19.0645 352.078 18.5957 352.225 18.5957H352.928C355.594 18.9766 357.938 20.0898 359.959 21.9355C362.068 23.0195 364.061 25.7734 365.936 30.1973C367.869 32.4238 369.334 33.5371 370.33 33.5371C371.619 33.5371 372.557 31.8965 373.143 28.6152L372.615 25.0996C372.85 23.5469 372.967 22.5508 372.967 22.1113C372.645 21.7012 372.059 21.3496 371.209 21.0566C371.209 20.5879 370.975 20.3535 370.506 20.3535C370.271 20.4707 370.096 20.5293 369.979 20.5293C369.598 19.8262 369.305 19.4746 369.1 19.4746L368.221 19.6504C367.986 19.3574 367.869 19.1816 367.869 19.123L368.045 18.7715C367.664 18.7715 367.371 18.7129 367.166 18.5957C366.932 18.7129 366.756 18.7715 366.639 18.7715C366.316 18.2148 366.082 17.9219 365.936 17.8926H365.584L365.232 18.0684C364.881 17.6875 364.705 17.3359 364.705 17.0137H364.002L363.65 17.1895C362.361 14.9629 360.838 13.8496 359.08 13.8496C356.004 13.8496 353.426 13.0879 351.346 11.5645C350.379 11.4473 349.793 11.3301 349.588 11.2129C349.119 11.2129 346.6 11.9746 342.029 13.498C338.66 13.498 335.555 15.4316 332.713 19.2988C331.307 22.5801 330.604 24.4551 330.604 24.9238C330.486 25.041 330.369 26.2129 330.252 28.4395ZM379.453 3.87402C391.465 4.22559 398.848 4.40137 401.602 4.40137H402.832L428.32 6.33496H433.594C434.062 6.45215 434.297 7.03809 434.297 8.09277C434.297 11.9307 434.238 14.0986 434.121 14.5967C434.238 18.376 434.297 21.7158 434.297 24.6162V36.5693C434.297 45.4463 433.477 59.333 431.836 78.2295C431.836 78.9326 430.488 79.2842 427.793 79.2842H424.102C420.234 79.6357 415.137 79.8115 408.809 79.8115C398.643 79.46 390.908 78.7568 385.605 77.7021C380.801 76.5889 378.398 75.7686 378.398 75.2412L377.344 70.8467C377.227 63.0537 377.168 56.8428 377.168 52.2139V43.6006C377.402 37.7705 377.52 34.4893 377.52 33.7568V33.0537C378.574 16.3545 378.984 7.7998 378.75 7.38965V5.45605C378.75 4.54785 378.984 4.02051 379.453 3.87402ZM398.613 8.97168C396.533 8.62012 395.244 8.44434 394.746 8.44434H394.395C388.887 9.44043 386.133 10.3193 386.133 11.0811C385.898 12.1943 385.781 12.8975 385.781 13.1904C385.781 15.1826 386.953 16.1787 389.297 16.1787C390.586 17.4678 391.523 18.1123 392.109 18.1123C393.105 18.1123 394.043 17.9951 394.922 17.7607C399.375 18.083 401.602 18.8447 401.602 20.0459C401.836 20.0459 401.953 20.3975 401.953 21.1006C401.719 22.1553 401.602 22.917 401.602 23.3857V23.5615C402.656 25.7295 403.184 26.9014 403.184 27.0771C404.355 30.2705 404.941 32.0869 404.941 32.5264C404.238 35.5146 403.887 37.2139 403.887 37.624L404.59 40.085C404.15 41.3154 403.799 44.3623 403.535 49.2256V50.1045L405.645 55.2021V55.7295C405.645 56.2568 404.648 57.4873 402.656 59.4209C402.656 60.2705 400.898 61.0322 397.383 61.7061C396.943 61.7061 396.123 61.2373 394.922 60.2998C394.746 60.1826 394.453 60.124 394.043 60.124C392.842 61.4131 390.967 62.0576 388.418 62.0576C388.213 61.9404 387.979 61.8818 387.715 61.8818C387.158 62.2627 386.572 62.5557 385.957 62.7607C385.957 63.3174 385.371 64.0791 384.199 65.0459C384.199 65.251 383.73 66.0713 382.793 67.5068V67.8584L382.969 68.21C382.852 68.415 382.793 68.5908 382.793 68.7373C382.939 68.7373 383.525 69.499 384.551 71.0225L384.375 71.374V71.5498L384.727 71.374C385.605 72.6631 386.777 73.3076 388.242 73.3076L394.043 74.3623C394.453 74.3623 395.625 73.8936 397.559 72.9561L400.547 72.6045C400.986 72.6045 402.393 73.0732 404.766 74.0107H405.293C407.754 73.3076 409.277 72.9561 409.863 72.9561H411.27C411.592 72.9561 413.174 73.0732 416.016 73.3076C416.836 73.0732 419.414 72.8975 423.75 72.7803C424.6 72.8975 425.303 72.9561 425.859 72.9561C427.529 72.3115 428.994 70.6123 430.254 67.8584C429.551 64.8115 428.027 63.2881 425.684 63.2881L424.805 63.4639C424.102 63.4639 423.105 62.6436 421.816 61.0029C421.611 60.8857 421.377 60.8271 421.113 60.8271C420.146 61.4131 419.502 61.7061 419.18 61.7061C418.799 61.7061 418.389 60.8271 417.949 59.0693C417.012 58.6299 415.957 57.2822 414.785 55.0264C414.346 55.0264 413.877 54.0889 413.379 52.2139C413.379 52.126 413.438 51.7744 413.555 51.1592C413.555 48.2588 413.438 44.0986 413.203 38.6787C413.438 37.3896 413.555 36.042 413.555 34.6357V34.2842C413.32 29.5088 413.027 26.5791 412.676 25.4951C413.145 20.3389 414.199 17.7607 415.84 17.7607H417.246C418.447 17.7607 419.912 17.7021 421.641 17.585C422.9 17.9365 423.838 18.1123 424.453 18.1123C425.625 18.1123 427.207 16.6475 429.199 13.7178L429.375 12.6631V12.4873C429.375 11.0225 427.734 9.85059 424.453 8.97168C423.662 8.97168 422.783 9.14746 421.816 9.49902C420.615 9.38184 419.678 9.32324 419.004 9.32324C418.506 9.32324 417.451 9.44043 415.84 9.6748C415.283 9.6748 412.939 9.03027 408.809 7.74121C408.662 7.62402 408.252 7.56543 407.578 7.56543H407.402C402.48 8.50293 399.727 8.97168 399.141 8.97168H398.613ZM469.787 0.446289H470.49C474.24 0.446289 479.572 0.797852 486.486 1.50098H487.893C488.215 1.50098 488.449 1.96973 488.596 2.90723C488.713 16.4131 488.771 26.8428 488.771 34.1963V35.0752L489.475 47.3799V51.9502C489.24 58.9814 489.123 62.9072 489.123 63.7275V70.4072C489.123 75.0947 488.537 77.4385 487.365 77.4385C486.984 77.4385 484.758 78.083 480.686 79.3721C478.957 79.8408 477.375 80.0752 475.939 80.0752C468.615 80.0752 462.873 80.3682 458.713 80.9541C446.291 80.4854 440.08 79.958 440.08 79.3721C435.803 78.5518 433.576 78.1416 433.4 78.1416C432.814 78.1416 432.346 72.9268 431.994 62.4971C431.525 59.8896 431.291 56.3154 431.291 51.7744V51.4229C431.525 47.9658 431.643 46.0908 431.643 45.7979V19.4307C432.229 11.0811 432.521 6.33496 432.521 5.19238C432.287 5.19238 432.17 5.0752 432.17 4.84082V3.96191L431.994 2.2041C432.844 1.50098 434.543 1.14941 437.092 1.14941H439.201C442.893 1.50098 445.178 1.67676 446.057 1.67676H450.803L469.787 0.446289ZM436.564 35.0752L436.74 35.9541L435.51 41.0518C435.51 41.4619 435.744 42.458 436.213 44.04C436.096 44.8311 436.037 45.4756 436.037 45.9736V47.0283C437.268 55.583 438.615 59.8604 440.08 59.8604C440.9 60.5928 442.072 62.2334 443.596 64.7822C445.266 66.7451 446.613 68.2686 447.639 69.3525C448.02 71.1104 448.957 71.9893 450.451 71.9893C452.854 71.9893 454.846 72.6338 456.428 73.9229L457.482 74.0986C457.863 74.0986 459.152 73.9229 461.35 73.5713H461.525C462.551 73.9229 463.137 74.0986 463.283 74.0986H463.811C465.363 73.3955 467.238 72.9268 469.436 72.6924C470.607 71.6963 472.189 70.9346 474.182 70.4072C474.65 69.9385 475.354 68.708 476.291 66.7158C476.73 66.6572 477.609 65.251 478.928 62.4971C480.393 61.2959 481.623 58.4248 482.619 53.8838C483.791 53.0928 484.377 50.9834 484.377 47.5557C484.377 45.3291 484.494 43.8643 484.729 43.1611L484.553 40.7002C484.67 38.5322 484.729 37.1846 484.729 36.6572C483.439 31.0029 481.916 25.5537 480.158 20.3096C478.488 17.292 476.613 15.2998 474.533 14.333C472.248 12.0771 469.26 10.3779 465.568 9.23535C460.031 9.23535 455.168 10.0557 450.979 11.6963C450.334 11.6963 449.572 12.5752 448.693 14.333C446.232 15.0361 445.002 15.915 445.002 16.9697C443.449 19.8115 441.984 21.6279 440.607 22.4189C439.904 26.6377 438.791 29.9775 437.268 32.4385C436.799 33.7861 436.564 34.665 436.564 35.0752ZM458.361 18.7275C460.002 18.9619 461.174 19.0791 461.877 19.0791C462.023 19.0791 462.609 19.0205 463.635 18.9033C465.188 19.8408 466.945 20.3096 468.908 20.3096C469.377 20.3096 469.846 21.6572 470.314 24.3525L473.654 26.6377C474.182 27.6338 474.885 29.8604 475.764 33.3174V34.8994C475.764 35.0166 475.705 35.0752 475.588 35.0752C475.588 35.1924 475.646 35.251 475.764 35.251C475.646 37.3604 475.471 38.415 475.236 38.415C475.236 38.5322 475.295 38.5908 475.412 38.5908C475.324 39.6455 475.207 40.1729 475.061 40.1729C475.529 41.2568 475.764 42.3701 475.764 43.5127C475.764 44.2744 474.65 46.7939 472.424 51.0713C472.541 51.2764 472.6 51.4521 472.6 51.5986C472.541 52.7119 471.838 54.7041 470.49 57.5752C469.289 59.4502 468.293 60.3877 467.502 60.3877H466.975C466.975 60.8564 465.979 61.2666 463.986 61.6182L463.635 61.4424C463.635 61.6768 463.518 61.7939 463.283 61.7939C463.283 61.6182 463.107 61.4424 462.756 61.2666L461.877 61.4424C461.877 61.2373 461.643 61.0029 461.174 60.7393C461.174 60.9736 461.057 61.0908 460.822 61.0908V60.915L460.471 61.0908H460.119L458.01 60.5635C458.01 60.7979 457.951 60.915 457.834 60.915L456.604 60.0361C456.369 60.1533 456.193 60.2119 456.076 60.2119C452.092 55.7588 450.1 52.7119 450.1 51.0713C450.1 50.0752 449.689 46.208 448.869 39.4697C448.869 39.0303 448.811 38.5029 448.693 37.8877C449.162 35.0752 449.396 33.4932 449.396 33.1416C449.279 32.9365 449.221 32.7021 449.221 32.4385C449.221 32.3213 449.279 31.8525 449.396 31.0322L449.221 30.6807C449.455 30.0654 449.572 29.5967 449.572 29.2744C449.455 29.04 449.396 28.8643 449.396 28.7471C449.748 28.1904 449.982 27.4873 450.1 26.6377C450.627 26.6377 450.979 26.4033 451.154 25.9346C450.979 25.9346 450.803 25.7588 450.627 25.4072V25.2314H450.803C451.154 25.2314 451.33 25.4658 451.33 25.9346H451.506C452.209 25.6416 452.912 24.5869 453.615 22.7705C454.816 20.0752 456.398 18.7275 458.361 18.7275ZM452.209 23.8252L452.385 24.1768V24.3525H452.209C451.975 24.3525 451.857 24.2354 451.857 24.001L452.209 23.8252ZM524.525 2.6875L537.533 3.56641H539.818L541.928 3.39062L542.104 3.74219V6.02734C542.104 11.9746 541.811 21.291 541.225 33.9766V39.25C540.99 44.377 540.873 47.1895 540.873 47.6875V61.5742C540.551 73.9961 540.023 80.207 539.291 80.207H536.303C535.688 80.207 534.457 80.0898 532.611 79.8555L511.869 80.5586H502.025C501.117 80.5586 497.719 80.3242 491.83 79.8555H487.963C487.611 79.8555 487.436 78.5078 487.436 75.8125V67.0234C487.436 64.7676 487.318 61.7207 487.084 57.8828C487.787 50.9395 488.139 42.7363 488.139 33.2734C489.311 23.3711 489.896 16.75 489.896 13.4102V7.78516C490.395 4.50391 490.863 2.86328 491.303 2.86328C506.479 2.74609 517.553 2.6875 524.525 2.6875ZM525.58 12.3555H523.295V12.5312C523.412 12.7656 523.471 12.9414 523.471 13.0586C523.207 13.0586 522.973 13.4687 522.768 14.2891C523.002 14.3184 523.119 14.4355 523.119 14.6406C523.002 14.875 522.943 15.0508 522.943 15.168C523.119 15.168 523.295 15.3438 523.471 15.6953C523.471 15.8125 523.412 15.8711 523.295 15.8711C523.295 16.1934 524.115 17.0723 525.756 18.5078C526.254 19.5625 526.547 20.0898 526.635 20.0898L526.459 20.9688C526.459 21.5254 526.518 22.873 526.635 25.0117L526.107 27.6484C526.107 27.9707 526.225 29.084 526.459 30.9883L526.107 33.625C526.107 33.8594 526.166 34.5039 526.283 35.5586C526.166 37.1113 526.107 38.4004 526.107 39.4258C527.514 43.7617 528.217 46.9844 528.217 49.0938H528.041L528.217 49.4453C528.217 49.5625 528.158 49.6211 528.041 49.6211C528.158 49.8555 528.217 50.0312 528.217 50.1484C528.217 50.5293 528.158 50.8223 528.041 51.0273C528.158 51.6426 528.217 52.1699 528.217 52.6094V53.6641L527.865 54.8945H527.514C526.107 53.7227 525.053 51.7305 524.35 48.918C524.115 48.6836 523.881 47.6875 523.646 45.9297C520.922 42.5312 519.047 39.6016 518.021 37.1406C517.553 35.9688 517.201 35.2656 516.967 35.0312V34.8555L517.143 34.5039L513.979 29.582C513.832 29.582 513.363 29.0547 512.572 28C511.811 27.4434 511.049 26.1543 510.287 24.1328C509.408 20.2656 508.412 18.332 507.299 18.332C504.867 15.168 503.461 13.5859 503.08 13.5859C500.648 13.5859 498.715 13.1172 497.279 12.1797H497.104C496.02 12.5312 495.141 13 494.467 13.5859C494.262 13.7031 493.969 13.7617 493.588 13.7617L493.764 14.6406C493.383 14.9922 493.031 15.168 492.709 15.168C493.002 15.9883 493.236 16.3984 493.412 16.3984L493.236 16.75V17.1016C494.262 18.1855 494.906 19.9434 495.17 22.375C495.404 22.375 495.521 22.9609 495.521 24.1328V24.6602C494.818 25.627 494.467 26.5645 494.467 27.4727C494.818 28.5566 494.994 29.377 494.994 29.9336C494.408 31.75 494.115 32.8047 494.115 33.0977C494.115 33.1562 494.174 33.918 494.291 35.3828C493.939 36.6133 493.764 37.5508 493.764 38.1953V38.3711C494.701 40.4512 495.17 41.623 495.17 41.8867C494.232 43.6738 493.764 44.9043 493.764 45.5781C493.764 45.7832 494.115 46.6621 494.818 48.2148C493.998 50.2363 493.588 51.4668 493.588 51.9062C493.588 52.375 493.939 53.3711 494.643 54.8945L494.467 56.6523C494.584 58.2344 494.643 59.4062 494.643 60.168C494.643 60.373 494.232 61.3691 493.412 63.1562L493.588 64.0352V64.3867C492.885 65.0312 492.533 65.6172 492.533 66.1445C492.123 66.1738 491.713 66.4668 491.303 67.0234C491.303 66.9062 491.244 66.8477 491.127 66.8477V67.0234L491.303 68.0781C491.068 68.1074 490.951 68.2246 490.951 68.4297V68.6055L493.061 71.0664C493.061 71.3008 493.764 71.8281 495.17 72.6484L495.521 72.4727L500.971 73.5273C505.189 72.7363 507.299 71.9746 507.299 71.2422H508.002C508.236 70.9492 508.354 70.7734 508.354 70.7148C508.119 70.7148 508.002 70.5977 508.002 70.3633V70.0117H508.354L508.705 70.1875C509.057 69.6016 509.232 69.1328 509.232 68.7812C508.764 68.7812 508.529 68.6641 508.529 68.4297V68.2539C508.822 68.2539 508.998 68.0195 509.057 67.5508C508.939 67.5215 508.295 66.6426 507.123 64.9141C506.859 64.9141 506.449 64.5039 505.893 63.6836C504.486 63.0684 503.783 61.9551 503.783 60.3438C503.783 58.5566 503.607 56.5059 503.256 54.1914V51.2031L503.08 50.1484C503.314 49.4453 503.432 48.3906 503.432 46.9844C502.846 45.5195 502.553 44.5234 502.553 43.9961C503.139 42.3555 503.432 41.3594 503.432 41.0078V40.6562C502.611 38.7812 502.201 37.7852 502.201 37.668V36.9648C502.201 36.6719 502.318 36.1445 502.553 35.3828C502.201 34.5625 502.025 33.9766 502.025 33.625C502.377 33.625 502.904 34.3281 503.607 35.7344C503.783 35.7344 504.018 35.9688 504.311 36.4375V36.6133L504.135 36.9648C504.34 36.9648 504.691 37.375 505.189 38.1953C505.072 38.4297 505.014 38.6055 505.014 38.7227C505.717 39.1914 506.068 39.6602 506.068 40.1289C505.951 40.1289 505.893 40.1875 505.893 40.3047C506.332 40.3047 506.859 41.0664 507.475 42.5898L508.705 44.3477C510.287 47.8633 511.283 49.6211 511.693 49.6211C512.133 49.8848 513.07 51.1152 514.506 53.3125L518.197 57.8828C518.93 59.1426 520.277 60.8418 522.24 62.9805C522.475 63.3906 522.592 63.8594 522.592 64.3867V66.3203C524.057 69.8359 525.463 71.5938 526.811 71.5938L531.029 73.3516C532.641 73.3516 533.988 71.0664 535.072 66.4961C534.838 65.1484 534.721 64.2109 534.721 63.6836C535.307 61.8672 535.6 60.8125 535.6 60.5195C535.6 60.2852 535.365 59.3477 534.896 57.707V57.5312L535.072 56.6523L534.721 56.4766C535.014 52.9609 535.307 51.2031 535.6 51.2031C535.365 51.2031 535.248 51.0859 535.248 50.8516C535.248 50.0312 535.365 49.6211 535.6 49.6211L535.424 49.2695V48.5664C535.424 48.0684 535.365 47.5996 535.248 47.1602L535.424 46.2812L535.248 45.0508H535.424L535.248 44.6992C535.277 44.4648 535.395 44.3477 535.6 44.3477L535.424 43.4688V42.7656C535.453 42.5312 535.57 42.4141 535.775 42.4141L535.6 42.0625V41.1836C535.6 40.9199 535.658 40.6855 535.775 40.4805C535.658 40.2754 535.6 40.041 535.6 39.7773C535.6 39.6602 535.658 39.6016 535.775 39.6016L535.6 39.25C535.629 39.0156 535.746 38.8984 535.951 38.8984C535.834 38.2832 535.717 37.1113 535.6 35.3828L535.775 35.0312C535.658 34.8262 535.6 34.5918 535.6 34.3281V33.625C535.6 33.5078 535.658 33.4492 535.775 33.4492L535.248 32.3945C535.248 32.2773 535.307 32.2188 535.424 32.2188C535.072 31.5449 534.896 31.0762 534.896 30.8125H535.072L534.896 30.4609C534.896 30.3438 534.955 30.2852 535.072 30.2852L534.721 29.582L534.896 28.3516L534.545 27.6484C534.662 27.4141 534.721 27.2383 534.721 27.1211L534.193 26.2422C534.193 26.1543 534.252 25.8027 534.369 25.1875C534.252 24.7773 534.193 24.543 534.193 24.4844L534.721 23.2539C534.604 23.0195 534.545 22.8438 534.545 22.7266L535.072 21.8477L534.896 20.9688C535.336 18.5078 535.922 17.2773 536.654 17.2773C536.771 16.3398 537.006 15.6953 537.357 15.3438V15.168H537.182C536.947 15.2852 536.771 15.3438 536.654 15.3438L536.479 14.9922V14.8164C537.416 14.2305 537.885 13.7617 537.885 13.4102C537.885 13.1758 538.002 13.0586 538.236 13.0586C538.236 12.5605 537.006 11.8574 534.545 10.9492C534.076 10.3633 533.549 10.0703 532.963 10.0703H532.436C529.77 10.7148 528.422 11.1836 528.393 11.4766C528.246 11.9453 527.309 12.2383 525.58 12.3555ZM536.654 12.707C536.654 12.7656 536.771 12.9414 537.006 13.2344L536.654 13.4102L536.303 12.8828L536.654 12.707ZM541.734 3.87402C553.746 4.22559 561.129 4.40137 563.883 4.40137H565.113L590.602 6.33496H595.875C596.344 6.45215 596.578 7.03809 596.578 8.09277C596.578 11.9307 596.52 14.0986 596.402 14.5967C596.52 18.376 596.578 21.7158 596.578 24.6162V36.5693C596.578 45.4463 595.758 59.333 594.117 78.2295C594.117 78.9326 592.77 79.2842 590.074 79.2842H586.383C582.516 79.6357 577.418 79.8115 571.09 79.8115C560.924 79.46 553.189 78.7568 547.887 77.7021C543.082 76.5889 540.68 75.7686 540.68 75.2412L539.625 70.8467C539.508 63.0537 539.449 56.8428 539.449 52.2139V43.6006C539.684 37.7705 539.801 34.4893 539.801 33.7568V33.0537C540.855 16.3545 541.266 7.7998 541.031 7.38965V5.45605C541.031 4.54785 541.266 4.02051 541.734 3.87402ZM560.895 8.97168C558.814 8.62012 557.525 8.44434 557.027 8.44434H556.676C551.168 9.44043 548.414 10.3193 548.414 11.0811C548.18 12.1943 548.062 12.8975 548.062 13.1904C548.062 15.1826 549.234 16.1787 551.578 16.1787C552.867 17.4678 553.805 18.1123 554.391 18.1123C555.387 18.1123 556.324 17.9951 557.203 17.7607C561.656 18.083 563.883 18.8447 563.883 20.0459C564.117 20.0459 564.234 20.3975 564.234 21.1006C564 22.1553 563.883 22.917 563.883 23.3857V23.5615C564.938 25.7295 565.465 26.9014 565.465 27.0771C566.637 30.2705 567.223 32.0869 567.223 32.5264C566.52 35.5146 566.168 37.2139 566.168 37.624L566.871 40.085C566.432 41.3154 566.08 44.3623 565.816 49.2256V50.1045L567.926 55.2021V55.7295C567.926 56.2568 566.93 57.4873 564.938 59.4209C564.938 60.2705 563.18 61.0322 559.664 61.7061C559.225 61.7061 558.404 61.2373 557.203 60.2998C557.027 60.1826 556.734 60.124 556.324 60.124C555.123 61.4131 553.248 62.0576 550.699 62.0576C550.494 61.9404 550.26 61.8818 549.996 61.8818C549.439 62.2627 548.854 62.5557 548.238 62.7607C548.238 63.3174 547.652 64.0791 546.48 65.0459C546.48 65.251 546.012 66.0713 545.074 67.5068V67.8584L545.25 68.21C545.133 68.415 545.074 68.5908 545.074 68.7373C545.221 68.7373 545.807 69.499 546.832 71.0225L546.656 71.374V71.5498L547.008 71.374C547.887 72.6631 549.059 73.3076 550.523 73.3076L556.324 74.3623C556.734 74.3623 557.906 73.8936 559.84 72.9561L562.828 72.6045C563.268 72.6045 564.674 73.0732 567.047 74.0107H567.574C570.035 73.3076 571.559 72.9561 572.145 72.9561H573.551C573.873 72.9561 575.455 73.0732 578.297 73.3076C579.117 73.0732 581.695 72.8975 586.031 72.7803C586.881 72.8975 587.584 72.9561 588.141 72.9561C589.811 72.3115 591.275 70.6123 592.535 67.8584C591.832 64.8115 590.309 63.2881 587.965 63.2881L587.086 63.4639C586.383 63.4639 585.387 62.6436 584.098 61.0029C583.893 60.8857 583.658 60.8271 583.395 60.8271C582.428 61.4131 581.783 61.7061 581.461 61.7061C581.08 61.7061 580.67 60.8271 580.23 59.0693C579.293 58.6299 578.238 57.2822 577.066 55.0264C576.627 55.0264 576.158 54.0889 575.66 52.2139C575.66 52.126 575.719 51.7744 575.836 51.1592C575.836 48.2588 575.719 44.0986 575.484 38.6787C575.719 37.3896 575.836 36.042 575.836 34.6357V34.2842C575.602 29.5088 575.309 26.5791 574.957 25.4951C575.426 20.3389 576.48 17.7607 578.121 17.7607H579.527C580.729 17.7607 582.193 17.7021 583.922 17.585C585.182 17.9365 586.119 18.1123 586.734 18.1123C587.906 18.1123 589.488 16.6475 591.48 13.7178L591.656 12.6631V12.4873C591.656 11.0225 590.016 9.85059 586.734 8.97168C585.943 8.97168 585.064 9.14746 584.098 9.49902C582.896 9.38184 581.959 9.32324 581.285 9.32324C580.787 9.32324 579.732 9.44043 578.121 9.6748C577.564 9.6748 575.221 9.03027 571.09 7.74121C570.943 7.62402 570.533 7.56543 569.859 7.56543H569.684C564.762 8.50293 562.008 8.97168 561.422 8.97168H560.895ZM617.742 6.4668C625.418 6.93555 632.098 7.46289 637.781 8.04883H646.395C647.566 8.04883 648.152 8.81055 648.152 10.334C648.504 13.0293 648.797 18.6543 649.031 27.209V30.0215C649.031 34.5625 648.27 44.1133 646.746 58.6738C646.629 60.7832 646.57 63.4785 646.57 66.7598C646.57 68.957 646.629 72.1797 646.746 76.4277C646.57 77.5996 646.102 78.1855 645.34 78.1855H644.988C644.168 78.1855 643.055 78.0684 641.648 77.834C640.359 78.0684 639.539 78.1855 639.188 78.1855C637.02 77.9512 635.555 77.834 634.793 77.834C630.018 78.3027 621.229 78.8301 608.426 79.416C605.877 79.416 601.717 78.7129 595.945 77.3066C595.154 76.3105 594.568 72.1504 594.188 64.8262C594.188 50.3828 593.895 38.6055 593.309 29.4941L594.012 16.1348V13.8496L594.539 8.22461C594.129 8.10742 594.48 7.84375 595.594 7.43359C596.707 7.02344 604.09 6.70117 617.742 6.4668ZM599.109 28.4395C599.754 31.9844 600.691 34.5625 601.922 36.1738C601.922 37.668 603.387 39.0742 606.316 40.3926C606.316 40.7734 608.016 41.6523 611.414 43.0293C612.645 44.2012 613.816 44.7871 614.93 44.7871H617.742C617.918 44.7871 618.738 45.0801 620.203 45.666C622.137 44.4941 623.484 43.9082 624.246 43.9082C624.979 43.9082 627.146 44.6699 630.75 46.1934C632.039 46.1934 633.445 47.3066 634.969 49.5332C636.492 50.3828 637.254 51.3789 637.254 52.5215V52.873C636.199 57.5605 635.262 59.9043 634.441 59.9043C634.119 60.373 631.424 62.0137 626.355 64.8262C624.686 65.5293 623.631 65.8809 623.191 65.8809C621.99 64.8262 619.939 64.2988 617.039 64.2988C616.043 62.7754 615.223 62.0137 614.578 62.0137C613.465 62.3652 612.762 62.541 612.469 62.541H612.117C611.502 62.541 610.506 61.6621 609.129 59.9043C608.25 59.9043 606.609 57.3262 604.207 52.1699L604.383 51.8184C604.061 49.4746 602.889 48.3027 600.867 48.3027C600.867 48.1855 600.633 48.127 600.164 48.127H599.988C599.432 48.127 598.787 49.5918 598.055 52.5215V53.0488C598.758 54.9824 599.109 56.0957 599.109 56.3887V56.7402C599.109 57.2676 598.816 58.2637 598.23 59.7285L598.406 61.8379C598.172 62.9219 598.055 63.5078 598.055 63.5957C598.26 63.5957 598.553 64.123 598.934 65.1777C599.139 65.1777 600.428 66.4082 602.801 68.8691C602.918 68.8691 603.445 69.2207 604.383 69.9238L604.734 69.748C605.32 70.2168 606.199 70.627 607.371 70.9785C610.125 72.7363 612.293 73.6152 613.875 73.6152H614.93C616.16 73.6152 618.562 73.3809 622.137 72.9121C623.865 73.3809 624.803 73.6152 624.949 73.6152H625.301C626.238 73.6152 628.582 72.9121 632.332 71.5059C634.852 71.5059 637.898 69.5137 641.473 65.5293C642.938 62.9512 644.109 59.4941 644.988 55.1582V54.6309C644.607 51.6719 643.377 48.332 641.297 44.6113C640.037 44.2305 638.045 42.5898 635.32 39.6895C633.533 38.9863 631.307 38.6348 628.641 38.6348C627.498 38.0488 626.385 37.7559 625.301 37.7559C624.832 37.7559 623.895 37.9316 622.488 38.2832C621.111 38.0781 620.291 37.8438 620.027 37.5801C619.793 37.6973 619.617 37.7559 619.5 37.7559C619.5 37.5215 618.211 37.1699 615.633 36.7012C615.633 36.584 615.398 36.4082 614.93 36.1738L614.578 36.3496H614.402C613.113 35.7344 611.941 34.8555 610.887 33.7129C609.773 32.8633 608.777 30.8711 607.898 27.7363C607.781 27.7363 607.723 27.6777 607.723 27.5605C607.752 26.9746 607.869 26.6816 608.074 26.6816L607.898 25.8027V25.4512C608.484 24.9238 608.777 24.3965 608.777 23.8691C609.012 23.8691 609.598 23.3418 610.535 22.2871L615.105 20.1777C615.311 20.0605 615.604 20.002 615.984 20.002H617.742C619.822 19.0645 620.936 18.5957 621.082 18.5957H621.785C624.451 18.9766 626.795 20.0898 628.816 21.9355C630.926 23.0195 632.918 25.7734 634.793 30.1973C636.727 32.4238 638.191 33.5371 639.188 33.5371C640.477 33.5371 641.414 31.8965 642 28.6152L641.473 25.0996C641.707 23.5469 641.824 22.5508 641.824 22.1113C641.502 21.7012 640.916 21.3496 640.066 21.0566C640.066 20.5879 639.832 20.3535 639.363 20.3535C639.129 20.4707 638.953 20.5293 638.836 20.5293C638.455 19.8262 638.162 19.4746 637.957 19.4746L637.078 19.6504C636.844 19.3574 636.727 19.1816 636.727 19.123L636.902 18.7715C636.521 18.7715 636.229 18.7129 636.023 18.5957C635.789 18.7129 635.613 18.7715 635.496 18.7715C635.174 18.2148 634.939 17.9219 634.793 17.8926H634.441L634.09 18.0684C633.738 17.6875 633.562 17.3359 633.562 17.0137H632.859L632.508 17.1895C631.219 14.9629 629.695 13.8496 627.938 13.8496C624.861 13.8496 622.283 13.0879 620.203 11.5645C619.236 11.4473 618.65 11.3301 618.445 11.2129C617.977 11.2129 615.457 11.9746 610.887 13.498C607.518 13.498 604.412 15.4316 601.57 19.2988C600.164 22.5801 599.461 24.4551 599.461 24.9238C599.344 25.041 599.227 26.2129 599.109 28.4395ZM648.135 3.78613H648.662C651.504 4.02051 653.086 4.1377 653.408 4.1377H657.803C658.242 4.1377 659.707 4.25488 662.197 4.48926C673.887 4.48926 685.195 5.25098 696.123 6.77441C698.584 7.59473 701.572 8.00488 705.088 8.00488C705.674 8.12207 705.967 8.35645 705.967 8.70801C706.201 11.9307 706.318 13.8643 706.318 14.5088V31.7354C705.615 49.958 704.385 64.3721 702.627 74.9775C702.012 77.6729 701.309 79.0205 700.518 79.0205L690.674 77.9658H688.037C686.191 77.9658 681.621 78.376 674.326 79.1963H669.053C659.766 77.5557 653.906 76.7354 651.475 76.7354H647.607C646.67 76.1494 646.143 73.4541 646.025 68.6494V46.8525C646.611 39.5283 647.314 29.3916 648.135 16.4424V16.0908C647.9 12.6338 647.783 10.7588 647.783 10.4658V8.70801L647.432 8.88379H647.256V5.54395C647.256 4.63574 647.549 4.0498 648.135 3.78613ZM651.123 19.4307C651.123 20.8662 651.475 22.8584 652.178 25.4072V26.2861C651.357 27.9854 650.947 29.1572 650.947 29.8018C650.947 30.0068 651.24 31.3545 651.826 33.8447C651.709 34.46 651.65 34.8115 651.65 34.8994C652.676 37.9463 654.375 39.4697 656.748 39.4697C658.184 39.4697 659.355 38.0049 660.264 35.0752L660.088 34.3721L660.264 33.1416L659.912 32.4385L660.088 31.3838C659.854 31.0908 659.736 30.915 659.736 30.8564C659.824 30.1533 659.941 29.8018 660.088 29.8018C659.736 29.2451 659.561 28.8936 659.561 28.7471L660.088 27.6924C659.619 27.6924 659.385 27.458 659.385 26.9893L659.912 26.1104L659.385 25.4072V25.2314C660.088 24.5869 660.439 24.1182 660.439 23.8252C660.322 23.5908 660.264 23.415 660.264 23.2979C660.527 23.0635 660.762 22.9463 660.967 22.9463V22.2432C660.967 22.126 661.084 21.6572 661.318 20.8369H661.494L661.846 21.0127C661.846 20.3682 662.021 19.8994 662.373 19.6064C662.197 19.6064 662.021 19.4307 661.846 19.0791L662.197 18.9033L662.725 19.6064C662.871 19.6064 663.223 19.2549 663.779 18.5518C664.043 18.7275 664.98 18.9619 666.592 19.2549C666.621 19.4893 666.738 19.6064 666.943 19.6064H667.471C667.734 19.6064 667.969 19.5479 668.174 19.4307C669.58 19.7822 670.518 20.4268 670.986 21.3643C672.158 24.8799 672.744 27.1064 672.744 28.0439C672.744 28.1025 672.627 29.04 672.393 30.8564C672.393 31.208 672.451 32.3213 672.568 34.1963C672.1 36.6865 671.572 38.9717 670.986 41.0518L671.514 43.5127C671.045 45.6221 670.752 46.6768 670.635 46.6768C670.752 46.8818 670.811 47.0576 670.811 47.2041L670.635 47.5557C671.807 49.1084 672.393 52.5654 672.393 57.9268C671.514 61.9111 670.635 63.9033 669.756 63.9033H668.525C667.207 63.6396 666.27 63.2295 665.713 62.6729H665.537V63.0244H665.01C664.775 63.0244 664.658 62.8486 664.658 62.4971L664.307 62.6729C663.135 62.4385 662.314 62.2041 661.846 61.9697C661.67 62.6729 661.494 63.0244 661.318 63.0244L660.967 62.8486C660.352 63.2881 659.883 63.8154 659.561 64.4307H658.682L658.857 64.7822C658.506 65.251 658.33 65.7783 658.33 66.3643L657.979 66.1885H657.803V66.3643H658.154V66.7158C657.803 66.7158 657.51 66.9502 657.275 67.4189V67.9463L657.627 68.4736C657.627 68.6201 657.451 68.7959 657.1 69.001H656.924L656.572 68.8252V69.3525C657.041 69.3525 657.686 70.29 658.506 72.165C659.092 72.165 659.561 72.458 659.912 73.0439C659.795 73.0439 659.736 73.1025 659.736 73.2197C660.41 73.2197 661.406 73.5127 662.725 74.0986L664.307 73.7471C664.336 73.9814 664.453 74.0986 664.658 74.0986H664.834C664.834 73.7471 664.951 73.5713 665.186 73.5713C665.391 73.6885 665.566 73.7471 665.713 73.7471C665.742 73.5127 665.859 73.3955 666.064 73.3955C666.094 73.6299 666.211 73.7471 666.416 73.7471C666.826 73.3955 667.529 73.2197 668.525 73.2197V72.8682L669.404 73.0439L669.58 72.6924C669.785 72.8096 669.961 72.8682 670.107 72.8682C670.459 72.8682 670.928 72.751 671.514 72.5166C672.158 72.6338 672.627 72.6924 672.92 72.6924C673.066 72.6924 673.652 72.6338 674.678 72.5166V72.6924L675.029 72.5166H675.205L675.557 72.6924L675.732 72.3408L676.611 72.5166L676.963 72.3408L677.314 72.5166L677.666 72.3408C677.725 72.3408 677.959 72.3994 678.369 72.5166C678.486 72.5166 678.545 72.458 678.545 72.3408L679.424 72.5166H682.236C682.354 72.5166 682.412 72.5752 682.412 72.6924L682.764 72.5166H685.4C685.664 72.5166 685.898 72.5752 686.104 72.6924C686.309 72.5752 686.484 72.5166 686.631 72.5166L686.982 72.6924C687.1 72.6924 687.158 72.6338 687.158 72.5166C688.242 72.6631 688.945 72.8389 689.268 73.0439C689.385 73.0439 689.443 72.9854 689.443 72.8682C690.615 72.9854 691.201 73.1611 691.201 73.3955L692.08 73.2197H692.959C693.076 73.2197 693.135 73.2783 693.135 73.3955C694.775 73.1318 695.596 72.6045 695.596 71.8135V71.6377H695.771C695.889 71.6377 695.947 71.6963 695.947 71.8135C696.299 71.7256 696.592 71.374 696.826 70.7588C696.475 70.7588 696.299 70.6416 696.299 70.4072C696.68 70.1729 696.973 70.0557 697.178 70.0557V69.8799C697.178 66.9795 695.596 64.9287 692.432 63.7275C691.377 63.376 690.85 63.083 690.85 62.8486C690.615 62.9658 690.439 63.0244 690.322 63.0244C689.59 62.4385 688.535 62.1455 687.158 62.1455C686.807 62.3799 686.162 62.5557 685.225 62.6729C682.793 62.6729 681.387 61.6182 681.006 59.5088V59.333C681.182 58.1904 681.475 54.0889 681.885 47.0283C681.885 46.1494 681.416 44.0986 680.479 40.876V37.3604C680.479 36.3057 680.889 33.7861 681.709 29.8018C681.357 28.4834 681.182 27.6631 681.182 27.3408C681.182 26.9893 681.709 25.9346 682.764 24.1768V21.8916C682.764 21.7744 682.822 21.7158 682.939 21.7158L682.764 21.3643V21.1885C682.764 20.5146 683.35 19.9873 684.521 19.6064C684.609 19.0205 686.191 18.6689 689.268 18.5518C690.674 18.5518 691.377 21.7158 691.377 28.0439C691.494 28.0439 691.787 28.4541 692.256 29.2744C692.256 29.3916 692.197 29.4502 692.08 29.4502C692.432 30.3877 692.607 30.915 692.607 31.0322C692.49 31.6475 692.432 31.999 692.432 32.0869C692.666 32.4678 692.783 32.8193 692.783 33.1416L692.432 33.8447C692.666 34.3135 692.783 34.7236 692.783 35.0752C692.666 35.2803 692.607 35.5146 692.607 35.7783C692.9 35.7783 693.135 36.3057 693.311 37.3604C694.541 39.001 695.244 39.8213 695.42 39.8213L697.354 41.4033C697.588 41.4033 697.705 41.2861 697.705 41.0518C698.613 41.4033 699.199 41.5791 699.463 41.5791H699.99L700.342 39.1182C700.225 38.8838 700.166 38.708 700.166 38.5908C700.254 37.8877 700.371 37.5361 700.518 37.5361L700.342 37.1846C700.342 36.4814 700.576 35.0166 701.045 32.79C700.928 31.999 700.869 31.2373 700.869 30.5049C700.869 30.2705 701.162 29.0986 701.748 26.9893C701.748 26.0811 701.572 24.9678 701.221 23.6494C701.338 22.8291 701.396 22.1846 701.396 21.7158V21.1885L699.99 16.9697C699.785 13.9229 699.082 12.3994 697.881 12.3994C695.244 11.1104 692.959 10.4658 691.025 10.4658H690.674C689.561 10.4658 687.861 10.583 685.576 10.8174C683.936 10.583 681.357 10.4072 677.842 10.29C677.637 10.29 676.934 10.3486 675.732 10.4658C675 10.4658 672.188 10.29 667.295 9.93848C665.859 10.4072 664.922 10.6416 664.482 10.6416C664.014 10.6416 661.963 10.4072 658.33 9.93848C656.777 10.2021 654.727 11.5498 652.178 13.9814C651.943 14.6553 651.592 16.4717 651.123 19.4307ZM660.615 19.958H660.791V20.3096H660.615V19.958ZM659.736 23.2979L659.912 23.6494L659.561 23.8252L659.385 23.4736L659.736 23.2979ZM657.1 66.3643V66.7158H657.451V66.3643H657.1ZM705.334 3.87402C717.346 4.22559 724.729 4.40137 727.482 4.40137H728.713L754.201 6.33496H759.475C759.943 6.45215 760.178 7.03809 760.178 8.09277C760.178 11.9307 760.119 14.0986 760.002 14.5967C760.119 18.376 760.178 21.7158 760.178 24.6162V36.5693C760.178 45.4463 759.357 59.333 757.717 78.2295C757.717 78.9326 756.369 79.2842 753.674 79.2842H749.982C746.115 79.6357 741.018 79.8115 734.689 79.8115C724.523 79.46 716.789 78.7568 711.486 77.7021C706.682 76.5889 704.279 75.7686 704.279 75.2412L703.225 70.8467C703.107 63.0537 703.049 56.8428 703.049 52.2139V43.6006C703.283 37.7705 703.4 34.4893 703.4 33.7568V33.0537C704.455 16.3545 704.865 7.7998 704.631 7.38965V5.45605C704.631 4.54785 704.865 4.02051 705.334 3.87402ZM724.494 8.97168C722.414 8.62012 721.125 8.44434 720.627 8.44434H720.275C714.768 9.44043 712.014 10.3193 712.014 11.0811C711.779 12.1943 711.662 12.8975 711.662 13.1904C711.662 15.1826 712.834 16.1787 715.178 16.1787C716.467 17.4678 717.404 18.1123 717.99 18.1123C718.986 18.1123 719.924 17.9951 720.803 17.7607C725.256 18.083 727.482 18.8447 727.482 20.0459C727.717 20.0459 727.834 20.3975 727.834 21.1006C727.6 22.1553 727.482 22.917 727.482 23.3857V23.5615C728.537 25.7295 729.064 26.9014 729.064 27.0771C730.236 30.2705 730.822 32.0869 730.822 32.5264C730.119 35.5146 729.768 37.2139 729.768 37.624L730.471 40.085C730.031 41.3154 729.68 44.3623 729.416 49.2256V50.1045L731.525 55.2021V55.7295C731.525 56.2568 730.529 57.4873 728.537 59.4209C728.537 60.2705 726.779 61.0322 723.264 61.7061C722.824 61.7061 722.004 61.2373 720.803 60.2998C720.627 60.1826 720.334 60.124 719.924 60.124C718.723 61.4131 716.848 62.0576 714.299 62.0576C714.094 61.9404 713.859 61.8818 713.596 61.8818C713.039 62.2627 712.453 62.5557 711.838 62.7607C711.838 63.3174 711.252 64.0791 710.08 65.0459C710.08 65.251 709.611 66.0713 708.674 67.5068V67.8584L708.85 68.21C708.732 68.415 708.674 68.5908 708.674 68.7373C708.82 68.7373 709.406 69.499 710.432 71.0225L710.256 71.374V71.5498L710.607 71.374C711.486 72.6631 712.658 73.3076 714.123 73.3076L719.924 74.3623C720.334 74.3623 721.506 73.8936 723.439 72.9561L726.428 72.6045C726.867 72.6045 728.273 73.0732 730.646 74.0107H731.174C733.635 73.3076 735.158 72.9561 735.744 72.9561H737.15C737.473 72.9561 739.055 73.0732 741.896 73.3076C742.717 73.0732 745.295 72.8975 749.631 72.7803C750.48 72.8975 751.184 72.9561 751.74 72.9561C753.41 72.3115 754.875 70.6123 756.135 67.8584C755.432 64.8115 753.908 63.2881 751.564 63.2881L750.686 63.4639C749.982 63.4639 748.986 62.6436 747.697 61.0029C747.492 60.8857 747.258 60.8271 746.994 60.8271C746.027 61.4131 745.383 61.7061 745.061 61.7061C744.68 61.7061 744.27 60.8271 743.83 59.0693C742.893 58.6299 741.838 57.2822 740.666 55.0264C740.227 55.0264 739.758 54.0889 739.26 52.2139C739.26 52.126 739.318 51.7744 739.436 51.1592C739.436 48.2588 739.318 44.0986 739.084 38.6787C739.318 37.3896 739.436 36.042 739.436 34.6357V34.2842C739.201 29.5088 738.908 26.5791 738.557 25.4951C739.025 20.3389 740.08 17.7607 741.721 17.7607H743.127C744.328 17.7607 745.793 17.7021 747.521 17.585C748.781 17.9365 749.719 18.1123 750.334 18.1123C751.506 18.1123 753.088 16.6475 755.08 13.7178L755.256 12.6631V12.4873C755.256 11.0225 753.615 9.85059 750.334 8.97168C749.543 8.97168 748.664 9.14746 747.697 9.49902C746.496 9.38184 745.559 9.32324 744.885 9.32324C744.387 9.32324 743.332 9.44043 741.721 9.6748C741.164 9.6748 738.82 9.03027 734.689 7.74121C734.543 7.62402 734.133 7.56543 733.459 7.56543H733.283C728.361 8.50293 725.607 8.97168 725.021 8.97168H724.494Z" fill="white"/>
</svg>
