<svg width="256" height="77" viewBox="0 0 256 77" fill="none" xmlns="http://www.w3.org/2000/svg">
<path d="M24.6484 3.4668C32.3242 3.93555 39.0039 4.46289 44.6875 5.04883H53.3008C54.4727 5.04883 55.0586 5.81055 55.0586 7.33398C55.4102 10.0293 55.7031 15.6543 55.9375 24.209V27.0215C55.9375 31.5625 55.1758 41.1133 53.6523 55.6738C53.5352 57.7832 53.4766 60.4785 53.4766 63.7598C53.4766 65.957 53.5352 69.1797 53.6523 73.4277C53.4766 74.5996 53.0078 75.1855 52.2461 75.1855H51.8945C51.0742 75.1855 49.9609 75.0684 48.5547 74.834C47.2656 75.0684 46.4453 75.1855 46.0938 75.1855C43.9258 74.9512 42.4609 74.834 41.6992 74.834C36.9238 75.3027 28.1348 75.8301 15.332 76.416C12.7832 76.416 8.62305 75.7129 2.85156 74.3066C2.06055 73.3105 1.47461 69.1504 1.09375 61.8262C1.09375 47.3828 0.800781 35.6055 0.214844 26.4941L0.917969 13.1348V10.8496L1.44531 5.22461C1.03516 5.10742 1.38672 4.84375 2.5 4.43359C3.61328 4.02344 10.9961 3.70117 24.6484 3.4668ZM6.01562 25.4395C6.66016 28.9844 7.59766 31.5625 8.82812 33.1738C8.82812 34.668 10.293 36.0742 13.2227 37.3926C13.2227 37.7734 14.9219 38.6523 18.3203 40.0293C19.5508 41.2012 20.7227 41.7871 21.8359 41.7871H24.6484C24.8242 41.7871 25.6445 42.0801 27.1094 42.666C29.043 41.4941 30.3906 40.9082 31.1523 40.9082C31.8848 40.9082 34.0527 41.6699 37.6562 43.1934C38.9453 43.1934 40.3516 44.3066 41.875 46.5332C43.3984 47.3828 44.1602 48.3789 44.1602 49.5215V49.873C43.1055 54.5605 42.168 56.9043 41.3477 56.9043C41.0254 57.373 38.3301 59.0137 33.2617 61.8262C31.5918 62.5293 30.5371 62.8809 30.0977 62.8809C28.8965 61.8262 26.8457 61.2988 23.9453 61.2988C22.9492 59.7754 22.1289 59.0137 21.4844 59.0137C20.3711 59.3652 19.668 59.541 19.375 59.541H19.0234C18.4082 59.541 17.4121 58.6621 16.0352 56.9043C15.1562 56.9043 13.5156 54.3262 11.1133 49.1699L11.2891 48.8184C10.9668 46.4746 9.79492 45.3027 7.77344 45.3027C7.77344 45.1855 7.53906 45.127 7.07031 45.127H6.89453C6.33789 45.127 5.69336 46.5918 4.96094 49.5215V50.0488C5.66406 51.9824 6.01562 53.0957 6.01562 53.3887V53.7402C6.01562 54.2676 5.72266 55.2637 5.13672 56.7285L5.3125 58.8379C5.07812 59.9219 4.96094 60.5078 4.96094 60.5957C5.16602 60.5957 5.45898 61.123 5.83984 62.1777C6.04492 62.1777 7.33398 63.4082 9.70703 65.8691C9.82422 65.8691 10.3516 66.2207 11.2891 66.9238L11.6406 66.748C12.2266 67.2168 13.1055 67.627 14.2773 67.9785C17.0312 69.7363 19.1992 70.6152 20.7812 70.6152H21.8359C23.0664 70.6152 25.4688 70.3809 29.043 69.9121C30.7715 70.3809 31.709 70.6152 31.8555 70.6152H32.207C33.1445 70.6152 35.4883 69.9121 39.2383 68.5059C41.7578 68.5059 44.8047 66.5137 48.3789 62.5293C49.8438 59.9512 51.0156 56.4941 51.8945 52.1582V51.6309C51.5137 48.6719 50.2832 45.332 48.2031 41.6113C46.9434 41.2305 44.9512 39.5898 42.2266 36.6895C40.4395 35.9863 38.2129 35.6348 35.5469 35.6348C34.4043 35.0488 33.291 34.7559 32.207 34.7559C31.7383 34.7559 30.8008 34.9316 29.3945 35.2832C28.0176 35.0781 27.1973 34.8438 26.9336 34.5801C26.6992 34.6973 26.5234 34.7559 26.4062 34.7559C26.4062 34.5215 25.1172 34.1699 22.5391 33.7012C22.5391 33.584 22.3047 33.4082 21.8359 33.1738L21.4844 33.3496H21.3086C20.0195 32.7344 18.8477 31.8555 17.793 30.7129C16.6797 29.8633 15.6836 27.8711 14.8047 24.7363C14.6875 24.7363 14.6289 24.6777 14.6289 24.5605C14.6582 23.9746 14.7754 23.6816 14.9805 23.6816L14.8047 22.8027V22.4512C15.3906 21.9238 15.6836 21.3965 15.6836 20.8691C15.918 20.8691 16.5039 20.3418 17.4414 19.2871L22.0117 17.1777C22.2168 17.0605 22.5098 17.002 22.8906 17.002H24.6484C26.7285 16.0645 27.8418 15.5957 27.9883 15.5957H28.6914C31.3574 15.9766 33.7012 17.0898 35.7227 18.9355C37.832 20.0195 39.8242 22.7734 41.6992 27.1973C43.6328 29.4238 45.0977 30.5371 46.0938 30.5371C47.3828 30.5371 48.3203 28.8965 48.9062 25.6152L48.3789 22.0996C48.6133 20.5469 48.7305 19.5508 48.7305 19.1113C48.4082 18.7012 47.8223 18.3496 46.9727 18.0566C46.9727 17.5879 46.7383 17.3535 46.2695 17.3535C46.0352 17.4707 45.8594 17.5293 45.7422 17.5293C45.3613 16.8262 45.0684 16.4746 44.8633 16.4746L43.9844 16.6504C43.75 16.3574 43.6328 16.1816 43.6328 16.123L43.8086 15.7715C43.4277 15.7715 43.1348 15.7129 42.9297 15.5957C42.6953 15.7129 42.5195 15.7715 42.4023 15.7715C42.0801 15.2148 41.8457 14.9219 41.6992 14.8926H41.3477L40.9961 15.0684C40.6445 14.6875 40.4688 14.3359 40.4688 14.0137H39.7656L39.4141 14.1895C38.125 11.9629 36.6016 10.8496 34.8438 10.8496C31.7676 10.8496 29.1895 10.0879 27.1094 8.56445C26.1426 8.44727 25.5566 8.33008 25.3516 8.21289C24.8828 8.21289 22.3633 8.97461 17.793 10.498C14.4238 10.498 11.3184 12.4316 8.47656 16.2988C7.07031 19.5801 6.36719 21.4551 6.36719 21.9238C6.25 22.041 6.13281 23.2129 6.01562 25.4395ZM85.7676 3.55469L101.939 4.43359H105.279C107.271 4.46289 108.268 4.58008 108.268 4.78516L108.619 4.60938H111.607C117.232 4.60938 120.045 5.01953 120.045 5.83984V6.01562C120.865 16.6504 121.275 22.7441 121.275 24.2969V54.8828C121.041 58.3398 120.924 60.2148 120.924 60.5078V62.6172C120.162 71.1719 119.4 75.4492 118.639 75.4492H118.111C111.9 75.6836 108.443 75.8008 107.74 75.8008H99.8301C90.4258 74.9805 84.2148 74.5703 81.1973 74.5703H79.6152C71.2949 74.0723 67.1348 73.0176 67.1348 71.4062V65.7812C67.1348 64.9609 66.959 62.3242 66.6074 57.8711C66.7246 41.3477 67.0176 30.1562 67.4863 24.2969V13.0469C67.7207 10.2051 67.8379 8.62305 67.8379 8.30078V6.54297C66.959 6.54297 66.4902 6.36719 66.4316 6.01562C66.4316 4.72656 68.0723 4.08203 71.3535 4.08203H76.0996C76.9492 4.08203 80.1719 3.90625 85.7676 3.55469ZM97.0176 9.17969H93.1504C92.3301 9.17969 91.2168 9.0625 89.8105 8.82812C88.3164 9.29688 87.4375 9.53125 87.1738 9.53125H86.4707C85.9727 9.53125 85.3281 9.35547 84.5371 9.00391C76.9199 9.00391 73.1113 9.47266 73.1113 10.4102C72.8477 10.9961 72.5547 11.2891 72.2324 11.2891C72.3496 11.5234 72.4082 11.6992 72.4082 11.8164L71.5293 13.2227L71.7051 14.2773L71.3535 14.9805C72.5547 15.4199 73.4922 16.4746 74.166 18.1445C75.3379 19.4922 75.9238 20.4883 75.9238 21.1328C75.9238 21.2207 75.8066 22.041 75.5723 23.5938L76.627 27.6367L75.748 30.4492C75.748 30.7422 76.041 31.7969 76.627 33.6133C76.4805 33.7598 76.3633 34.5801 76.2754 36.0742C76.7441 37.0703 76.9785 37.8906 76.9785 38.5352C76.041 40.7324 75.5723 42.0801 75.5723 42.5781C75.8066 43.9844 75.9824 46.6211 76.0996 50.4883C76.0996 51.3086 75.5723 52.4219 74.5176 53.8281V54.5312C75.2207 56.0254 75.5723 56.8457 75.5723 56.9922V57.5195C74.6934 59.7461 73.1113 61.5039 70.8262 62.793C70.8262 62.8516 70.4746 63.2031 69.7715 63.8477C70.1523 65.1074 70.6211 66.2793 71.1777 67.3633C72.4961 68.7402 74.0195 69.6777 75.748 70.1758C75.748 70.3516 76.041 70.5859 76.627 70.8789L76.9785 70.7031H77.1543C77.2715 70.7031 77.3301 70.7617 77.3301 70.8789C77.7109 70.6445 78.0039 70.5273 78.209 70.5273L79.0879 70.7031C79.0879 70.5273 79.2637 70.3516 79.6152 70.1758L80.4941 70.7031H80.6699L81.373 70.1758C81.4902 70.1758 81.666 70.2344 81.9004 70.3516L85.5918 69.1211C88.2578 69.9707 90.3086 70.498 91.7441 70.7031C91.8613 70.7031 92.0371 70.6445 92.2715 70.5273C92.6523 70.7617 93.0039 70.8789 93.3262 70.8789L97.1934 69.4727H97.5449C100.123 69.6777 101.412 69.8535 101.412 70C101.734 69.8828 102.848 69.707 104.752 69.4727C106.979 69.8242 108.971 70 110.729 70C115.182 68.7988 117.408 67.3926 117.408 65.7812L117.232 65.4297C117.115 63.291 117.057 61.8848 117.057 61.2109C117.057 61.0938 117.115 60.625 117.232 59.8047C116.529 57.8125 116.178 56.582 116.178 56.1133C116.178 55.4688 116.354 54.8242 116.705 54.1797L116.529 53.8281L116.881 52.9492C116.881 51.3965 116.178 49.7559 114.771 48.0273C114.771 47.3535 114.303 46.9434 113.365 46.7969H112.662C109.615 47.2363 108.092 47.998 108.092 49.082C108.092 49.4629 108.033 49.7559 107.916 49.9609C108.033 50.166 108.092 50.4004 108.092 50.6641C108.092 51.0449 108.033 51.3379 107.916 51.543C108.033 52.7441 108.385 54.1504 108.971 55.7617C108.971 55.8789 108.912 55.9375 108.795 55.9375L108.971 56.2891C108.854 56.4941 108.795 56.7285 108.795 56.9922C109.146 56.9922 109.322 57.1094 109.322 57.3438V57.8711C108.59 58.5156 107.125 59.2773 104.928 60.1562C104.547 60.8594 103.902 61.2109 102.994 61.2109L97.8965 60.5078H97.3691C94.6445 60.9766 92.8867 61.2109 92.0957 61.2109H91.9199C88.0527 61.2109 86.1191 60.5078 86.1191 59.1016C85.5332 58.252 85.2402 57.1973 85.2402 55.9375L85.7676 53.8281L84.8887 49.4336L85.2402 48.3789C85.123 47.9688 85.0645 47.7344 85.0645 47.6758C85.123 46.8555 85.2402 46.4453 85.416 46.4453L85.2402 46.0938C85.2402 45.8301 85.2988 45.5957 85.416 45.3906C85.416 45.2734 85.3574 45.2148 85.2402 45.2148C85.4746 43.6328 85.8262 42.3438 86.2949 41.3477C86.4121 40.4102 86.5879 39.9414 86.8223 39.9414H87.1738C89.4004 40.2637 90.5137 40.6152 90.5137 40.9961L91.2168 40.8203C93.4434 40.8203 94.5566 41.4062 94.5566 42.5781C94.5566 42.6953 94.498 42.7539 94.3809 42.7539C94.6152 44.2773 94.8496 45.1562 95.084 45.3906C94.9668 47.6465 94.9082 49.1113 94.9082 49.7852C95.2891 51.8945 96.2266 52.9492 97.7207 52.9492C100.416 52.3633 101.764 51.4844 101.764 50.3125C101.178 44.1016 100.65 40.9961 100.182 40.9961L99.6543 39.2383C99.7715 38.4473 99.8301 37.8027 99.8301 37.3047C99.5957 36.25 99.4785 35.4883 99.4785 35.0195C100.768 32.6172 101.412 30.918 101.412 29.9219C101.295 29.5117 101.236 29.2773 101.236 29.2188L101.412 28.3398C101.412 25.9961 100.943 24.8242 100.006 24.8242C99.1562 24.707 98.3359 24.5312 97.5449 24.2969C97.5449 24.5312 97.4277 24.6484 97.1934 24.6484V24.4727L96.8418 24.6484C96.4316 24.4141 96.0801 24.2969 95.7871 24.2969C95.1719 24.4141 94.8203 24.4727 94.7324 24.4727C94.7324 24.2383 94.6152 24.1211 94.3809 24.1211C93.209 24.6191 92.623 25.6152 92.623 27.1094C92.7695 27.9297 92.9453 28.3398 93.1504 28.3398C93.1504 30.127 92.5645 31.2988 91.3926 31.8555H91.2168C90.8066 31.6211 90.2207 31.4453 89.459 31.3281C89.459 31.5625 89.3418 31.6797 89.1074 31.6797C88.9316 31.2988 87.9355 30.6543 86.1191 29.7461L85.9434 29.3945C85.9434 29.2773 86.002 29.2188 86.1191 29.2188C85.5918 28.7207 85.0645 27.9004 84.5371 26.7578C84.2441 26.7578 83.9512 26.0547 83.6582 24.6484L84.0098 24.4727L84.5371 24.8242H84.7129V23.418H84.3613V23.0664H84.5371L84.8887 23.2422L84.3613 20.6055C84.5957 20.2246 84.7129 19.873 84.7129 19.5508L84.3613 18.8477L84.7129 18.6719C84.918 18.7891 85.0938 18.8477 85.2402 18.8477L85.416 18.4961V17.4414H85.9434C86.002 17.4414 86.1777 17.5586 86.4707 17.793H86.6465V16.9141L86.8223 16.5625C87.291 16.6504 87.5254 16.7676 87.5254 16.9141C87.6719 16.9141 87.9648 16.6211 88.4043 16.0352C88.7852 16.2695 89.1367 16.3867 89.459 16.3867C89.8105 16.3867 89.9863 16.0352 89.9863 15.332H90.1621C90.3965 15.332 90.5137 15.5078 90.5137 15.8594H91.2168L91.9199 14.9805L92.7988 15.5078H93.1504C93.1504 15.2441 93.3848 15.0098 93.8535 14.8047C93.8535 14.9512 94.1465 15.1855 94.7324 15.5078H94.9082C94.9668 15.0391 95.1426 14.8047 95.4355 14.8047C95.8164 15.1562 96.2852 15.332 96.8418 15.332C96.8418 14.9805 97.0762 14.8047 97.5449 14.8047C97.5449 15.0098 97.8379 15.1855 98.4238 15.332C98.4531 15.0977 98.5703 14.9805 98.7754 14.9805C98.8926 14.9805 100.006 15.2734 102.115 15.8594C103.258 15.3906 104.195 15.1562 104.928 15.1562C105.104 15.1562 105.865 15.9766 107.213 17.6172C108.033 17.998 108.443 18.5254 108.443 19.1992V19.375C108.443 19.6387 107.975 20.5762 107.037 22.1875V24.1211L107.389 24.6484C107.389 24.7656 107.33 24.8242 107.213 24.8242C107.828 28.1055 109.469 29.7461 112.135 29.7461C113.395 29.7461 114.156 28.75 114.42 26.7578C114.068 24.9414 113.893 23.7109 113.893 23.0664C113.893 22.5684 113.951 21.9238 114.068 21.1328C113.834 19.375 113.717 18.2617 113.717 17.793C113.951 16.6211 114.068 15.625 114.068 14.8047C112.926 11.1719 111.051 9.35547 108.443 9.35547C106.188 8.76953 103.551 8.35937 100.533 8.125H100.357C98.541 8.82812 97.4277 9.17969 97.0176 9.17969ZM160.07 1.09375C170.676 1.21094 177.59 1.26953 180.812 1.26953C182.102 1.35742 182.746 1.5918 182.746 1.97266V3.90625C184.621 18.4082 185.559 26.7871 185.559 29.043C186.027 32.4414 186.672 41.0547 187.492 54.8828H187.316L187.492 55.2344C187.609 59.834 187.668 63.291 187.668 65.6055V65.957C187.668 70.5273 186.73 72.8125 184.855 72.8125C183.215 73.3984 180.52 73.8086 176.77 74.043H172.551L163.234 74.9219C158.664 74.6875 156.086 74.5703 155.5 74.5703C154.152 74.5703 153.039 74.6875 152.16 74.9219C150.93 74.6875 148.762 74.5703 145.656 74.5703H139.328C136.398 74.5703 134.934 73.6914 134.934 71.9336C134.582 70.293 134.113 63.4961 133.527 51.543V44.3359C133.146 41.4941 132.854 35.0488 132.648 25C132.883 23.3887 133.059 21.3379 133.176 18.8477C133.059 14.5996 133 11.0254 133 8.125C133 4.96094 133.703 3.37891 135.109 3.37891C138.918 3.14453 142.023 2.85156 144.426 2.5L146.711 2.85156C146.711 2.58789 149.465 2.17773 154.973 1.62109C155.207 1.44531 156.906 1.26953 160.07 1.09375ZM138.625 8.47656C138.625 8.35937 138.566 8.30078 138.449 8.30078V8.47656C138.449 8.74023 138.508 8.97461 138.625 9.17969C138.625 9.35547 138.332 9.70703 137.746 10.2344C137.746 10.4687 137.922 10.5859 138.273 10.5859V11.2891C137.805 11.8164 137.57 12.1094 137.57 12.168C137.717 12.168 137.893 12.3438 138.098 12.6953V12.8711C137.746 13.3105 137.57 13.7207 137.57 14.1016L137.922 14.6289L137.57 15.1562V15.6836C137.834 16.0937 138.186 16.8555 138.625 17.9688C140.617 19.7266 141.613 21.6016 141.613 23.5938L140.91 27.6367C141.379 28.6621 141.789 30.5957 142.141 33.4375C142.141 33.9941 142.082 35.3418 141.965 37.4805C142.082 38.9746 142.141 39.8535 142.141 40.1172C141.906 41.0254 141.789 41.8457 141.789 42.5781V43.1055C141.789 43.5742 142.023 44.8633 142.492 46.9727L141.965 49.9609C141.965 50.3711 142.023 51.3672 142.141 52.9492C141.262 56.582 140.324 58.3984 139.328 58.3984C138.596 59.8047 138.186 60.5078 138.098 60.5078L138.273 61.3867V61.9141L137.922 62.4414C137.922 62.6172 138.098 62.793 138.449 62.9688C138.332 63.1738 138.215 63.7012 138.098 64.5508C138.332 64.6094 138.449 64.7266 138.449 64.9023C138.449 65.0195 138.391 65.0781 138.273 65.0781L138.449 65.4297L138.098 66.1328L138.625 66.4844C138.391 67.3633 138.273 67.8906 138.273 68.0664C138.508 68.125 138.625 68.2422 138.625 68.418C138.625 68.9453 138.508 69.4141 138.273 69.8242C138.449 69.8242 138.684 70.5273 138.977 71.9336C139.445 71.9336 140.031 72.0508 140.734 72.2852L141.086 72.1094L141.789 72.2852C143.781 70.8789 145.305 70.1758 146.359 70.1758C146.975 70.1758 148.439 70.8203 150.754 72.1094C150.871 72.1094 151.047 72.168 151.281 72.2852C151.516 72.2852 154.328 71.0547 159.719 68.5938H161.477C162.531 68.5938 163.527 68.7109 164.465 68.9453C164.846 68.7109 165.197 68.5938 165.52 68.5938C165.578 68.5938 165.812 68.6523 166.223 68.7695C166.223 68.7109 166.516 68.418 167.102 67.8906L167.453 68.0664H167.805C168.303 67.5977 168.596 67.3633 168.684 67.3633H168.859C169.182 67.3633 169.533 67.4805 169.914 67.7148C170.061 66.8945 170.236 66.4844 170.441 66.4844C170.822 66.7188 171.174 66.8359 171.496 66.8359C171.613 65.7812 172.082 65.2539 172.902 65.2539C172.902 64.7266 173.43 64.375 174.484 64.1992C174.484 63.7305 174.719 63.4961 175.188 63.4961L176.066 63.6719C176.066 63.5547 176.125 63.4961 176.242 63.4961L176.066 63.1445V62.793C176.711 62.2949 177.297 61.5918 177.824 60.6836C178.82 58.9258 179.406 58.0469 179.582 58.0469C179.465 57.8418 179.406 57.666 179.406 57.5195C179.406 57.2852 179.758 56.9336 180.461 56.4648L180.285 56.1133V55.7617C180.285 55.6445 180.578 55.3516 181.164 54.8828C181.047 54.4727 180.988 54.2383 180.988 54.1797C180.988 54.0332 181.223 53.623 181.691 52.9492L181.516 52.5977C182.805 49.082 183.449 46.9141 183.449 46.0938C183.332 45.6543 183.273 45.2441 183.273 44.8633L184.504 40.4688L184.328 40.1172C184.328 40 184.387 39.9414 184.504 39.9414C184.387 39.1504 184.328 38.5059 184.328 38.0078C184.328 37.0117 184.445 36.1914 184.68 35.5469C184.68 35.166 184.211 33.8184 183.273 31.5039C183.391 30.4785 183.449 29.834 183.449 29.5703C183.449 29.1895 182.629 27.9004 180.988 25.7031C180.988 24.7363 179.875 22.041 177.648 17.6172C173.605 13.9844 170.91 12.168 169.562 12.168C166.281 10.7617 163.41 10.0586 160.949 10.0586C160.949 9.88281 160.363 9.64844 159.191 9.35547C158.195 9.47266 157.375 9.53125 156.73 9.53125C155.295 8.82812 152.6 8.24219 148.645 7.77344C142.551 8.00781 139.211 8.24219 138.625 8.47656ZM154.27 13.0469H154.621C154.738 13.0469 154.797 13.1055 154.797 13.2227L155.148 13.0469C157.463 14.4531 158.928 15.1562 159.543 15.1562H159.895C161.477 14.8047 162.414 14.6289 162.707 14.6289C163.469 14.6289 165.051 15.332 167.453 16.7383C168.625 16.7383 169.738 18.0273 170.793 20.6055C172.668 22.1875 173.605 23.5352 173.605 24.6484C173.605 24.7363 173.547 25.498 173.43 26.9336L176.594 33.6133C176.711 34.082 176.77 34.5508 176.77 35.0195C176.301 36.2793 176.066 37.1582 176.066 37.6562C176.418 38.0078 176.711 39.8242 176.945 43.1055C176.945 43.457 176.008 45.7422 174.133 49.9609C174.133 52.7441 172.902 54.9121 170.441 56.4648C168.596 58.8086 167.248 59.9805 166.398 59.9805C166.135 59.9805 164.611 60.8594 161.828 62.6172C161.271 62.8223 160.627 62.998 159.895 63.1445C158.84 62.998 158.312 62.8223 158.312 62.6172L157.961 62.793C157.668 62.5586 157.492 62.4414 157.434 62.4414H156.906L156.555 62.6172C156.525 62.4707 156.232 62.2363 155.676 61.9141L154.621 62.0898C153.625 61.6504 152.688 60.2441 151.809 57.8711C151.457 57.8711 151.105 57.0508 150.754 55.4102C150.754 55.2051 150.871 54.9121 151.105 54.5312C150.988 54.3262 150.93 54.1504 150.93 54.0039C151.164 53.2422 151.281 52.7148 151.281 52.4219C151.047 52.4219 150.93 52.3047 150.93 52.0703C150.93 51.9824 151.164 51.6309 151.633 51.0156C151.428 51.0156 151.193 50.7812 150.93 50.3125V50.1367L151.281 49.6094V49.082C151.047 48.7891 150.93 48.6133 150.93 48.5547V48.2031L151.281 47.6758V47.3242C151.047 47.0605 150.93 46.8262 150.93 46.6211C150.93 45.9473 150.812 44.541 150.578 42.4023L150.93 41.6992C150.812 41.4941 150.754 41.2598 150.754 40.9961L151.281 40.1172C151.076 39.8828 150.9 39.0625 150.754 37.6562C150.402 37.6562 150.168 35.957 150.051 32.5586C149.758 32.5586 149.582 31.6797 149.523 29.9219V29.7461C149.523 29.4238 149.758 28.6035 150.227 27.2852V27.1094C149.523 25.6152 149.172 24.4434 149.172 23.5938C149.172 23.5352 149.465 22.7148 150.051 21.1328C150.051 20.4883 149.992 19.668 149.875 18.6719L150.051 18.3203L149.875 17.4414C149.875 17.2656 149.992 16.9141 150.227 16.3867C150.109 16.1816 150.051 15.9473 150.051 15.6836V15.5078L151.457 14.2773C151.457 13.7793 151.926 13.4277 152.863 13.2227C153.068 13.3398 153.244 13.3984 153.391 13.3984V13.2227L153.742 13.3984C153.801 13.3984 153.977 13.2812 154.27 13.0469ZM150.578 13.75L150.754 14.1016L150.402 14.2773L150.227 13.9258L150.578 13.75ZM200.184 0.874023C212.195 1.22559 219.578 1.40137 222.332 1.40137H223.562L249.051 3.33496H254.324C254.793 3.45215 255.027 4.03809 255.027 5.09277C255.027 8.93066 254.969 11.0986 254.852 11.5967C254.969 15.376 255.027 18.7158 255.027 21.6162V33.5693C255.027 42.4463 254.207 56.333 252.566 75.2295C252.566 75.9326 251.219 76.2842 248.523 76.2842H244.832C240.965 76.6357 235.867 76.8115 229.539 76.8115C219.373 76.46 211.639 75.7568 206.336 74.7021C201.531 73.5889 199.129 72.7686 199.129 72.2412L198.074 67.8467C197.957 60.0537 197.898 53.8428 197.898 49.2139V40.6006C198.133 34.7705 198.25 31.4893 198.25 30.7568V30.0537C199.305 13.3545 199.715 4.7998 199.48 4.38965V2.45605C199.48 1.54785 199.715 1.02051 200.184 0.874023ZM219.344 5.97168C217.264 5.62012 215.975 5.44434 215.477 5.44434H215.125C209.617 6.44043 206.863 7.31934 206.863 8.08105C206.629 9.19434 206.512 9.89746 206.512 10.1904C206.512 12.1826 207.684 13.1787 210.027 13.1787C211.316 14.4678 212.254 15.1123 212.84 15.1123C213.836 15.1123 214.773 14.9951 215.652 14.7607C220.105 15.083 222.332 15.8447 222.332 17.0459C222.566 17.0459 222.684 17.3975 222.684 18.1006C222.449 19.1553 222.332 19.917 222.332 20.3857V20.5615C223.387 22.7295 223.914 23.9014 223.914 24.0771C225.086 27.2705 225.672 29.0869 225.672 29.5264C224.969 32.5146 224.617 34.2139 224.617 34.624L225.32 37.085C224.881 38.3154 224.529 41.3623 224.266 46.2256V47.1045L226.375 52.2021V52.7295C226.375 53.2568 225.379 54.4873 223.387 56.4209C223.387 57.2705 221.629 58.0322 218.113 58.7061C217.674 58.7061 216.854 58.2373 215.652 57.2998C215.477 57.1826 215.184 57.124 214.773 57.124C213.572 58.4131 211.697 59.0576 209.148 59.0576C208.943 58.9404 208.709 58.8818 208.445 58.8818C207.889 59.2627 207.303 59.5557 206.688 59.7607C206.688 60.3174 206.102 61.0791 204.93 62.0459C204.93 62.251 204.461 63.0713 203.523 64.5068V64.8584L203.699 65.21C203.582 65.415 203.523 65.5908 203.523 65.7373C203.67 65.7373 204.256 66.499 205.281 68.0225L205.105 68.374V68.5498L205.457 68.374C206.336 69.6631 207.508 70.3076 208.973 70.3076L214.773 71.3623C215.184 71.3623 216.355 70.8936 218.289 69.9561L221.277 69.6045C221.717 69.6045 223.123 70.0732 225.496 71.0107H226.023C228.484 70.3076 230.008 69.9561 230.594 69.9561H232C232.322 69.9561 233.904 70.0732 236.746 70.3076C237.566 70.0732 240.145 69.8975 244.48 69.7803C245.33 69.8975 246.033 69.9561 246.59 69.9561C248.26 69.3115 249.725 67.6123 250.984 64.8584C250.281 61.8115 248.758 60.2881 246.414 60.2881L245.535 60.4639C244.832 60.4639 243.836 59.6436 242.547 58.0029C242.342 57.8857 242.107 57.8271 241.844 57.8271C240.877 58.4131 240.232 58.7061 239.91 58.7061C239.529 58.7061 239.119 57.8271 238.68 56.0693C237.742 55.6299 236.688 54.2822 235.516 52.0264C235.076 52.0264 234.607 51.0889 234.109 49.2139C234.109 49.126 234.168 48.7744 234.285 48.1592C234.285 45.2588 234.168 41.0986 233.934 35.6787C234.168 34.3896 234.285 33.042 234.285 31.6357V31.2842C234.051 26.5088 233.758 23.5791 233.406 22.4951C233.875 17.3389 234.93 14.7607 236.57 14.7607H237.977C239.178 14.7607 240.643 14.7021 242.371 14.585C243.631 14.9365 244.568 15.1123 245.184 15.1123C246.355 15.1123 247.938 13.6475 249.93 10.7178L250.105 9.66309V9.4873C250.105 8.02246 248.465 6.85059 245.184 5.97168C244.393 5.97168 243.514 6.14746 242.547 6.49902C241.346 6.38184 240.408 6.32324 239.734 6.32324C239.236 6.32324 238.182 6.44043 236.57 6.6748C236.014 6.6748 233.67 6.03027 229.539 4.74121C229.393 4.62402 228.982 4.56543 228.309 4.56543H228.133C223.211 5.50293 220.457 5.97168 219.871 5.97168H219.344Z" fill="white"/>
</svg>
