<svg width="389" height="83" viewBox="0 0 389 83" fill="none" xmlns="http://www.w3.org/2000/svg">
<path d="M24.457 6.4668C32.1328 6.93555 38.8125 7.46289 44.4961 8.04883H53.1094C54.2812 8.04883 54.8672 8.81055 54.8672 10.334C55.2188 13.0293 55.5117 18.6543 55.7461 27.209V30.0215C55.7461 34.5625 54.9844 44.1133 53.4609 58.6738C53.3438 60.7832 53.2852 63.4785 53.2852 66.7598C53.2852 68.957 53.3438 72.1797 53.4609 76.4277C53.2852 77.5996 52.8164 78.1855 52.0547 78.1855H51.7031C50.8828 78.1855 49.7695 78.0684 48.3633 77.834C47.0742 78.0684 46.2539 78.1855 45.9023 78.1855C43.7344 77.9512 42.2695 77.834 41.5078 77.834C36.7324 78.3027 27.9434 78.8301 15.1406 79.416C12.5918 79.416 8.43164 78.7129 2.66016 77.3066C1.86914 76.3105 1.2832 72.1504 0.902344 64.8262C0.902344 50.3828 0.609375 38.6055 0.0234375 29.4941L0.726562 16.1348V13.8496L1.25391 8.22461C0.84375 8.10742 1.19531 7.84375 2.30859 7.43359C3.42188 7.02344 10.8047 6.70117 24.457 6.4668ZM5.82422 28.4395C6.46875 31.9844 7.40625 34.5625 8.63672 36.1738C8.63672 37.668 10.1016 39.0742 13.0312 40.3926C13.0312 40.7734 14.7305 41.6523 18.1289 43.0293C19.3594 44.2012 20.5312 44.7871 21.6445 44.7871H24.457C24.6328 44.7871 25.4531 45.0801 26.918 45.666C28.8516 44.4941 30.1992 43.9082 30.9609 43.9082C31.6934 43.9082 33.8613 44.6699 37.4648 46.1934C38.7539 46.1934 40.1602 47.3066 41.6836 49.5332C43.207 50.3828 43.9688 51.3789 43.9688 52.5215V52.873C42.9141 57.5605 41.9766 59.9043 41.1562 59.9043C40.834 60.373 38.1387 62.0137 33.0703 64.8262C31.4004 65.5293 30.3457 65.8809 29.9062 65.8809C28.7051 64.8262 26.6543 64.2988 23.7539 64.2988C22.7578 62.7754 21.9375 62.0137 21.293 62.0137C20.1797 62.3652 19.4766 62.541 19.1836 62.541H18.832C18.2168 62.541 17.2207 61.6621 15.8438 59.9043C14.9648 59.9043 13.3242 57.3262 10.9219 52.1699L11.0977 51.8184C10.7754 49.4746 9.60352 48.3027 7.58203 48.3027C7.58203 48.1855 7.34766 48.127 6.87891 48.127H6.70312C6.14648 48.127 5.50195 49.5918 4.76953 52.5215V53.0488C5.47266 54.9824 5.82422 56.0957 5.82422 56.3887V56.7402C5.82422 57.2676 5.53125 58.2637 4.94531 59.7285L5.12109 61.8379C4.88672 62.9219 4.76953 63.5078 4.76953 63.5957C4.97461 63.5957 5.26758 64.123 5.64844 65.1777C5.85352 65.1777 7.14258 66.4082 9.51562 68.8691C9.63281 68.8691 10.1602 69.2207 11.0977 69.9238L11.4492 69.748C12.0352 70.2168 12.9141 70.627 14.0859 70.9785C16.8398 72.7363 19.0078 73.6152 20.5898 73.6152H21.6445C22.875 73.6152 25.2773 73.3809 28.8516 72.9121C30.5801 73.3809 31.5176 73.6152 31.6641 73.6152H32.0156C32.9531 73.6152 35.2969 72.9121 39.0469 71.5059C41.5664 71.5059 44.6133 69.5137 48.1875 65.5293C49.6523 62.9512 50.8242 59.4941 51.7031 55.1582V54.6309C51.3223 51.6719 50.0918 48.332 48.0117 44.6113C46.752 44.2305 44.7598 42.5898 42.0352 39.6895C40.248 38.9863 38.0215 38.6348 35.3555 38.6348C34.2129 38.0488 33.0996 37.7559 32.0156 37.7559C31.5469 37.7559 30.6094 37.9316 29.2031 38.2832C27.8262 38.0781 27.0059 37.8438 26.7422 37.5801C26.5078 37.6973 26.332 37.7559 26.2148 37.7559C26.2148 37.5215 24.9258 37.1699 22.3477 36.7012C22.3477 36.584 22.1133 36.4082 21.6445 36.1738L21.293 36.3496H21.1172C19.8281 35.7344 18.6562 34.8555 17.6016 33.7129C16.4883 32.8633 15.4922 30.8711 14.6133 27.7363C14.4961 27.7363 14.4375 27.6777 14.4375 27.5605C14.4668 26.9746 14.584 26.6816 14.7891 26.6816L14.6133 25.8027V25.4512C15.1992 24.9238 15.4922 24.3965 15.4922 23.8691C15.7266 23.8691 16.3125 23.3418 17.25 22.2871L21.8203 20.1777C22.0254 20.0605 22.3184 20.002 22.6992 20.002H24.457C26.5371 19.0645 27.6504 18.5957 27.7969 18.5957H28.5C31.166 18.9766 33.5098 20.0898 35.5312 21.9355C37.6406 23.0195 39.6328 25.7734 41.5078 30.1973C43.4414 32.4238 44.9062 33.5371 45.9023 33.5371C47.1914 33.5371 48.1289 31.8965 48.7148 28.6152L48.1875 25.0996C48.4219 23.5469 48.5391 22.5508 48.5391 22.1113C48.2168 21.7012 47.6309 21.3496 46.7812 21.0566C46.7812 20.5879 46.5469 20.3535 46.0781 20.3535C45.8438 20.4707 45.668 20.5293 45.5508 20.5293C45.1699 19.8262 44.877 19.4746 44.6719 19.4746L43.793 19.6504C43.5586 19.3574 43.4414 19.1816 43.4414 19.123L43.6172 18.7715C43.2363 18.7715 42.9434 18.7129 42.7383 18.5957C42.5039 18.7129 42.3281 18.7715 42.2109 18.7715C41.8887 18.2148 41.6543 17.9219 41.5078 17.8926H41.1562L40.8047 18.0684C40.4531 17.6875 40.2773 17.3359 40.2773 17.0137H39.5742L39.2227 17.1895C37.9336 14.9629 36.4102 13.8496 34.6523 13.8496C31.5762 13.8496 28.998 13.0879 26.918 11.5645C25.9512 11.4473 25.3652 11.3301 25.1602 11.2129C24.6914 11.2129 22.1719 11.9746 17.6016 13.498C14.2324 13.498 11.127 15.4316 8.28516 19.2988C6.87891 22.5801 6.17578 24.4551 6.17578 24.9238C6.05859 25.041 5.94141 26.2129 5.82422 28.4395ZM72.0762 6.55469L88.248 7.43359H91.5879C93.5801 7.46289 94.5762 7.58008 94.5762 7.78516L94.9277 7.60938H97.916C103.541 7.60938 106.354 8.01953 106.354 8.83984V9.01562C107.174 19.6504 107.584 25.7441 107.584 27.2969V57.8828C107.35 61.3398 107.232 63.2148 107.232 63.5078V65.6172C106.471 74.1719 105.709 78.4492 104.947 78.4492H104.42C98.209 78.6836 94.752 78.8008 94.0488 78.8008H86.1387C76.7344 77.9805 70.5234 77.5703 67.5059 77.5703H65.9238C57.6035 77.0723 53.4434 76.0176 53.4434 74.4062V68.7812C53.4434 67.9609 53.2676 65.3242 52.916 60.8711C53.0332 44.3477 53.3262 33.1562 53.7949 27.2969V16.0469C54.0293 13.2051 54.1465 11.623 54.1465 11.3008V9.54297C53.2676 9.54297 52.7988 9.36719 52.7402 9.01562C52.7402 7.72656 54.3809 7.08203 57.6621 7.08203H62.4082C63.2578 7.08203 66.4805 6.90625 72.0762 6.55469ZM83.3262 12.1797H79.459C78.6387 12.1797 77.5254 12.0625 76.1191 11.8281C74.625 12.2969 73.7461 12.5312 73.4824 12.5312H72.7793C72.2812 12.5312 71.6367 12.3555 70.8457 12.0039C63.2285 12.0039 59.4199 12.4727 59.4199 13.4102C59.1562 13.9961 58.8633 14.2891 58.541 14.2891C58.6582 14.5234 58.7168 14.6992 58.7168 14.8164L57.8379 16.2227L58.0137 17.2773L57.6621 17.9805C58.8633 18.4199 59.8008 19.4746 60.4746 21.1445C61.6465 22.4922 62.2324 23.4883 62.2324 24.1328C62.2324 24.2207 62.1152 25.041 61.8809 26.5938L62.9355 30.6367L62.0566 33.4492C62.0566 33.7422 62.3496 34.7969 62.9355 36.6133C62.7891 36.7598 62.6719 37.5801 62.584 39.0742C63.0527 40.0703 63.2871 40.8906 63.2871 41.5352C62.3496 43.7324 61.8809 45.0801 61.8809 45.5781C62.1152 46.9844 62.291 49.6211 62.4082 53.4883C62.4082 54.3086 61.8809 55.4219 60.8262 56.8281V57.5312C61.5293 59.0254 61.8809 59.8457 61.8809 59.9922V60.5195C61.002 62.7461 59.4199 64.5039 57.1348 65.793C57.1348 65.8516 56.7832 66.2031 56.0801 66.8477C56.4609 68.1074 56.9297 69.2793 57.4863 70.3633C58.8047 71.7402 60.3281 72.6777 62.0566 73.1758C62.0566 73.3516 62.3496 73.5859 62.9355 73.8789L63.2871 73.7031H63.4629C63.5801 73.7031 63.6387 73.7617 63.6387 73.8789C64.0195 73.6445 64.3125 73.5273 64.5176 73.5273L65.3965 73.7031C65.3965 73.5273 65.5723 73.3516 65.9238 73.1758L66.8027 73.7031H66.9785L67.6816 73.1758C67.7988 73.1758 67.9746 73.2344 68.209 73.3516L71.9004 72.1211C74.5664 72.9707 76.6172 73.498 78.0527 73.7031C78.1699 73.7031 78.3457 73.6445 78.5801 73.5273C78.9609 73.7617 79.3125 73.8789 79.6348 73.8789L83.502 72.4727H83.8535C86.4316 72.6777 87.7207 72.8535 87.7207 73C88.043 72.8828 89.1562 72.707 91.0605 72.4727C93.2871 72.8242 95.2793 73 97.0371 73C101.49 71.7988 103.717 70.3926 103.717 68.7812L103.541 68.4297C103.424 66.291 103.365 64.8848 103.365 64.2109C103.365 64.0938 103.424 63.625 103.541 62.8047C102.838 60.8125 102.486 59.582 102.486 59.1133C102.486 58.4688 102.662 57.8242 103.014 57.1797L102.838 56.8281L103.189 55.9492C103.189 54.3965 102.486 52.7559 101.08 51.0273C101.08 50.3535 100.611 49.9434 99.6738 49.7969H98.9707C95.9238 50.2363 94.4004 50.998 94.4004 52.082C94.4004 52.4629 94.3418 52.7559 94.2246 52.9609C94.3418 53.166 94.4004 53.4004 94.4004 53.6641C94.4004 54.0449 94.3418 54.3379 94.2246 54.543C94.3418 55.7441 94.6934 57.1504 95.2793 58.7617C95.2793 58.8789 95.2207 58.9375 95.1035 58.9375L95.2793 59.2891C95.1621 59.4941 95.1035 59.7285 95.1035 59.9922C95.4551 59.9922 95.6309 60.1094 95.6309 60.3438V60.8711C94.8984 61.5156 93.4336 62.2773 91.2363 63.1562C90.8555 63.8594 90.2109 64.2109 89.3027 64.2109L84.2051 63.5078H83.6777C80.9531 63.9766 79.1953 64.2109 78.4043 64.2109H78.2285C74.3613 64.2109 72.4277 63.5078 72.4277 62.1016C71.8418 61.252 71.5488 60.1973 71.5488 58.9375L72.0762 56.8281L71.1973 52.4336L71.5488 51.3789C71.4316 50.9688 71.373 50.7344 71.373 50.6758C71.4316 49.8555 71.5488 49.4453 71.7246 49.4453L71.5488 49.0938C71.5488 48.8301 71.6074 48.5957 71.7246 48.3906C71.7246 48.2734 71.666 48.2148 71.5488 48.2148C71.7832 46.6328 72.1348 45.3438 72.6035 44.3477C72.7207 43.4102 72.8965 42.9414 73.1309 42.9414H73.4824C75.709 43.2637 76.8223 43.6152 76.8223 43.9961L77.5254 43.8203C79.752 43.8203 80.8652 44.4062 80.8652 45.5781C80.8652 45.6953 80.8066 45.7539 80.6895 45.7539C80.9238 47.2773 81.1582 48.1562 81.3926 48.3906C81.2754 50.6465 81.2168 52.1113 81.2168 52.7852C81.5977 54.8945 82.5352 55.9492 84.0293 55.9492C86.7246 55.3633 88.0723 54.4844 88.0723 53.3125C87.4863 47.1016 86.959 43.9961 86.4902 43.9961L85.9629 42.2383C86.0801 41.4473 86.1387 40.8027 86.1387 40.3047C85.9043 39.25 85.7871 38.4883 85.7871 38.0195C87.0762 35.6172 87.7207 33.918 87.7207 32.9219C87.6035 32.5117 87.5449 32.2773 87.5449 32.2188L87.7207 31.3398C87.7207 28.9961 87.252 27.8242 86.3145 27.8242C85.4648 27.707 84.6445 27.5312 83.8535 27.2969C83.8535 27.5312 83.7363 27.6484 83.502 27.6484V27.4727L83.1504 27.6484C82.7402 27.4141 82.3887 27.2969 82.0957 27.2969C81.4805 27.4141 81.1289 27.4727 81.041 27.4727C81.041 27.2383 80.9238 27.1211 80.6895 27.1211C79.5176 27.6191 78.9316 28.6152 78.9316 30.1094C79.0781 30.9297 79.2539 31.3398 79.459 31.3398C79.459 33.127 78.873 34.2988 77.7012 34.8555H77.5254C77.1152 34.6211 76.5293 34.4453 75.7676 34.3281C75.7676 34.5625 75.6504 34.6797 75.416 34.6797C75.2402 34.2988 74.2441 33.6543 72.4277 32.7461L72.252 32.3945C72.252 32.2773 72.3105 32.2188 72.4277 32.2188C71.9004 31.7207 71.373 30.9004 70.8457 29.7578C70.5527 29.7578 70.2598 29.0547 69.9668 27.6484L70.3184 27.4727L70.8457 27.8242H71.0215V26.418H70.6699V26.0664H70.8457L71.1973 26.2422L70.6699 23.6055C70.9043 23.2246 71.0215 22.873 71.0215 22.5508L70.6699 21.8477L71.0215 21.6719C71.2266 21.7891 71.4023 21.8477 71.5488 21.8477L71.7246 21.4961V20.4414H72.252C72.3105 20.4414 72.4863 20.5586 72.7793 20.793H72.9551V19.9141L73.1309 19.5625C73.5996 19.6504 73.834 19.7676 73.834 19.9141C73.9805 19.9141 74.2734 19.6211 74.7129 19.0352C75.0938 19.2695 75.4453 19.3867 75.7676 19.3867C76.1191 19.3867 76.2949 19.0352 76.2949 18.332H76.4707C76.7051 18.332 76.8223 18.5078 76.8223 18.8594H77.5254L78.2285 17.9805L79.1074 18.5078H79.459C79.459 18.2441 79.6934 18.0098 80.1621 17.8047C80.1621 17.9512 80.4551 18.1855 81.041 18.5078H81.2168C81.2754 18.0391 81.4512 17.8047 81.7441 17.8047C82.125 18.1562 82.5938 18.332 83.1504 18.332C83.1504 17.9805 83.3848 17.8047 83.8535 17.8047C83.8535 18.0098 84.1465 18.1855 84.7324 18.332C84.7617 18.0977 84.8789 17.9805 85.084 17.9805C85.2012 17.9805 86.3145 18.2734 88.4238 18.8594C89.5664 18.3906 90.5039 18.1562 91.2363 18.1562C91.4121 18.1562 92.1738 18.9766 93.5215 20.6172C94.3418 20.998 94.752 21.5254 94.752 22.1992V22.375C94.752 22.6387 94.2832 23.5762 93.3457 25.1875V27.1211L93.6973 27.6484C93.6973 27.7656 93.6387 27.8242 93.5215 27.8242C94.1367 31.1055 95.7773 32.7461 98.4434 32.7461C99.7031 32.7461 100.465 31.75 100.729 29.7578C100.377 27.9414 100.201 26.7109 100.201 26.0664C100.201 25.5684 100.26 24.9238 100.377 24.1328C100.143 22.375 100.025 21.2617 100.025 20.793C100.26 19.6211 100.377 18.625 100.377 17.8047C99.2344 14.1719 97.3594 12.3555 94.752 12.3555C92.4961 11.7695 89.8594 11.3594 86.8418 11.125H86.666C84.8496 11.8281 83.7363 12.1797 83.3262 12.1797ZM107.566 3.78613H108.094C110.936 4.02051 112.518 4.1377 112.84 4.1377H117.234C117.674 4.1377 119.139 4.25488 121.629 4.48926C133.318 4.48926 144.627 5.25098 155.555 6.77441C158.016 7.59473 161.004 8.00488 164.52 8.00488C165.105 8.12207 165.398 8.35645 165.398 8.70801C165.633 11.9307 165.75 13.8643 165.75 14.5088V31.7354C165.047 49.958 163.816 64.3721 162.059 74.9775C161.443 77.6729 160.74 79.0205 159.949 79.0205L150.105 77.9658H147.469C145.623 77.9658 141.053 78.376 133.758 79.1963H128.484C119.197 77.5557 113.338 76.7354 110.906 76.7354H107.039C106.102 76.1494 105.574 73.4541 105.457 68.6494V46.8525C106.043 39.5283 106.746 29.3916 107.566 16.4424V16.0908C107.332 12.6338 107.215 10.7588 107.215 10.4658V8.70801L106.863 8.88379H106.688V5.54395C106.688 4.63574 106.98 4.0498 107.566 3.78613ZM110.555 19.4307C110.555 20.8662 110.906 22.8584 111.609 25.4072V26.2861C110.789 27.9854 110.379 29.1572 110.379 29.8018C110.379 30.0068 110.672 31.3545 111.258 33.8447C111.141 34.46 111.082 34.8115 111.082 34.8994C112.107 37.9463 113.807 39.4697 116.18 39.4697C117.615 39.4697 118.787 38.0049 119.695 35.0752L119.52 34.3721L119.695 33.1416L119.344 32.4385L119.52 31.3838C119.285 31.0908 119.168 30.915 119.168 30.8564C119.256 30.1533 119.373 29.8018 119.52 29.8018C119.168 29.2451 118.992 28.8936 118.992 28.7471L119.52 27.6924C119.051 27.6924 118.816 27.458 118.816 26.9893L119.344 26.1104L118.816 25.4072V25.2314C119.52 24.5869 119.871 24.1182 119.871 23.8252C119.754 23.5908 119.695 23.415 119.695 23.2979C119.959 23.0635 120.193 22.9463 120.398 22.9463V22.2432C120.398 22.126 120.516 21.6572 120.75 20.8369H120.926L121.277 21.0127C121.277 20.3682 121.453 19.8994 121.805 19.6064C121.629 19.6064 121.453 19.4307 121.277 19.0791L121.629 18.9033L122.156 19.6064C122.303 19.6064 122.654 19.2549 123.211 18.5518C123.475 18.7275 124.412 18.9619 126.023 19.2549C126.053 19.4893 126.17 19.6064 126.375 19.6064H126.902C127.166 19.6064 127.4 19.5479 127.605 19.4307C129.012 19.7822 129.949 20.4268 130.418 21.3643C131.59 24.8799 132.176 27.1064 132.176 28.0439C132.176 28.1025 132.059 29.04 131.824 30.8564C131.824 31.208 131.883 32.3213 132 34.1963C131.531 36.6865 131.004 38.9717 130.418 41.0518L130.945 43.5127C130.477 45.6221 130.184 46.6768 130.066 46.6768C130.184 46.8818 130.242 47.0576 130.242 47.2041L130.066 47.5557C131.238 49.1084 131.824 52.5654 131.824 57.9268C130.945 61.9111 130.066 63.9033 129.188 63.9033H127.957C126.639 63.6396 125.701 63.2295 125.145 62.6729H124.969V63.0244H124.441C124.207 63.0244 124.09 62.8486 124.09 62.4971L123.738 62.6729C122.566 62.4385 121.746 62.2041 121.277 61.9697C121.102 62.6729 120.926 63.0244 120.75 63.0244L120.398 62.8486C119.783 63.2881 119.314 63.8154 118.992 64.4307H118.113L118.289 64.7822C117.938 65.251 117.762 65.7783 117.762 66.3643L117.41 66.1885H117.234V66.3643H117.586V66.7158C117.234 66.7158 116.941 66.9502 116.707 67.4189V67.9463L117.059 68.4736C117.059 68.6201 116.883 68.7959 116.531 69.001H116.355L116.004 68.8252V69.3525C116.473 69.3525 117.117 70.29 117.938 72.165C118.523 72.165 118.992 72.458 119.344 73.0439C119.227 73.0439 119.168 73.1025 119.168 73.2197C119.842 73.2197 120.838 73.5127 122.156 74.0986L123.738 73.7471C123.768 73.9814 123.885 74.0986 124.09 74.0986H124.266C124.266 73.7471 124.383 73.5713 124.617 73.5713C124.822 73.6885 124.998 73.7471 125.145 73.7471C125.174 73.5127 125.291 73.3955 125.496 73.3955C125.525 73.6299 125.643 73.7471 125.848 73.7471C126.258 73.3955 126.961 73.2197 127.957 73.2197V72.8682L128.836 73.0439L129.012 72.6924C129.217 72.8096 129.393 72.8682 129.539 72.8682C129.891 72.8682 130.359 72.751 130.945 72.5166C131.59 72.6338 132.059 72.6924 132.352 72.6924C132.498 72.6924 133.084 72.6338 134.109 72.5166V72.6924L134.461 72.5166H134.637L134.988 72.6924L135.164 72.3408L136.043 72.5166L136.395 72.3408L136.746 72.5166L137.098 72.3408C137.156 72.3408 137.391 72.3994 137.801 72.5166C137.918 72.5166 137.977 72.458 137.977 72.3408L138.855 72.5166H141.668C141.785 72.5166 141.844 72.5752 141.844 72.6924L142.195 72.5166H144.832C145.096 72.5166 145.33 72.5752 145.535 72.6924C145.74 72.5752 145.916 72.5166 146.062 72.5166L146.414 72.6924C146.531 72.6924 146.59 72.6338 146.59 72.5166C147.674 72.6631 148.377 72.8389 148.699 73.0439C148.816 73.0439 148.875 72.9854 148.875 72.8682C150.047 72.9854 150.633 73.1611 150.633 73.3955L151.512 73.2197H152.391C152.508 73.2197 152.566 73.2783 152.566 73.3955C154.207 73.1318 155.027 72.6045 155.027 71.8135V71.6377H155.203C155.32 71.6377 155.379 71.6963 155.379 71.8135C155.73 71.7256 156.023 71.374 156.258 70.7588C155.906 70.7588 155.73 70.6416 155.73 70.4072C156.111 70.1729 156.404 70.0557 156.609 70.0557V69.8799C156.609 66.9795 155.027 64.9287 151.863 63.7275C150.809 63.376 150.281 63.083 150.281 62.8486C150.047 62.9658 149.871 63.0244 149.754 63.0244C149.021 62.4385 147.967 62.1455 146.59 62.1455C146.238 62.3799 145.594 62.5557 144.656 62.6729C142.225 62.6729 140.818 61.6182 140.438 59.5088V59.333C140.613 58.1904 140.906 54.0889 141.316 47.0283C141.316 46.1494 140.848 44.0986 139.91 40.876V37.3604C139.91 36.3057 140.32 33.7861 141.141 29.8018C140.789 28.4834 140.613 27.6631 140.613 27.3408C140.613 26.9893 141.141 25.9346 142.195 24.1768V21.8916C142.195 21.7744 142.254 21.7158 142.371 21.7158L142.195 21.3643V21.1885C142.195 20.5146 142.781 19.9873 143.953 19.6064C144.041 19.0205 145.623 18.6689 148.699 18.5518C150.105 18.5518 150.809 21.7158 150.809 28.0439C150.926 28.0439 151.219 28.4541 151.688 29.2744C151.688 29.3916 151.629 29.4502 151.512 29.4502C151.863 30.3877 152.039 30.915 152.039 31.0322C151.922 31.6475 151.863 31.999 151.863 32.0869C152.098 32.4678 152.215 32.8193 152.215 33.1416L151.863 33.8447C152.098 34.3135 152.215 34.7236 152.215 35.0752C152.098 35.2803 152.039 35.5146 152.039 35.7783C152.332 35.7783 152.566 36.3057 152.742 37.3604C153.973 39.001 154.676 39.8213 154.852 39.8213L156.785 41.4033C157.02 41.4033 157.137 41.2861 157.137 41.0518C158.045 41.4033 158.631 41.5791 158.895 41.5791H159.422L159.773 39.1182C159.656 38.8838 159.598 38.708 159.598 38.5908C159.686 37.8877 159.803 37.5361 159.949 37.5361L159.773 37.1846C159.773 36.4814 160.008 35.0166 160.477 32.79C160.359 31.999 160.301 31.2373 160.301 30.5049C160.301 30.2705 160.594 29.0986 161.18 26.9893C161.18 26.0811 161.004 24.9678 160.652 23.6494C160.77 22.8291 160.828 22.1846 160.828 21.7158V21.1885L159.422 16.9697C159.217 13.9229 158.514 12.3994 157.312 12.3994C154.676 11.1104 152.391 10.4658 150.457 10.4658H150.105C148.992 10.4658 147.293 10.583 145.008 10.8174C143.367 10.583 140.789 10.4072 137.273 10.29C137.068 10.29 136.365 10.3486 135.164 10.4658C134.432 10.4658 131.619 10.29 126.727 9.93848C125.291 10.4072 124.354 10.6416 123.914 10.6416C123.445 10.6416 121.395 10.4072 117.762 9.93848C116.209 10.2021 114.158 11.5498 111.609 13.9814C111.375 14.6553 111.023 16.4717 110.555 19.4307ZM120.047 19.958H120.223V20.3096H120.047V19.958ZM119.168 23.2979L119.344 23.6494L118.992 23.8252L118.816 23.4736L119.168 23.2979ZM116.531 66.3643V66.7158H116.883V66.3643H116.531ZM164.59 3.78613H165.117C167.959 4.02051 169.541 4.1377 169.863 4.1377H174.258C174.697 4.1377 176.162 4.25488 178.652 4.48926C190.342 4.48926 201.65 5.25098 212.578 6.77441C215.039 7.59473 218.027 8.00488 221.543 8.00488C222.129 8.12207 222.422 8.35645 222.422 8.70801C222.656 11.9307 222.773 13.8643 222.773 14.5088V31.7354C222.07 49.958 220.84 64.3721 219.082 74.9775C218.467 77.6729 217.764 79.0205 216.973 79.0205L207.129 77.9658H204.492C202.646 77.9658 198.076 78.376 190.781 79.1963H185.508C176.221 77.5557 170.361 76.7354 167.93 76.7354H164.062C163.125 76.1494 162.598 73.4541 162.48 68.6494V46.8525C163.066 39.5283 163.77 29.3916 164.59 16.4424V16.0908C164.355 12.6338 164.238 10.7588 164.238 10.4658V8.70801L163.887 8.88379H163.711V5.54395C163.711 4.63574 164.004 4.0498 164.59 3.78613ZM167.578 19.4307C167.578 20.8662 167.93 22.8584 168.633 25.4072V26.2861C167.812 27.9854 167.402 29.1572 167.402 29.8018C167.402 30.0068 167.695 31.3545 168.281 33.8447C168.164 34.46 168.105 34.8115 168.105 34.8994C169.131 37.9463 170.83 39.4697 173.203 39.4697C174.639 39.4697 175.811 38.0049 176.719 35.0752L176.543 34.3721L176.719 33.1416L176.367 32.4385L176.543 31.3838C176.309 31.0908 176.191 30.915 176.191 30.8564C176.279 30.1533 176.396 29.8018 176.543 29.8018C176.191 29.2451 176.016 28.8936 176.016 28.7471L176.543 27.6924C176.074 27.6924 175.84 27.458 175.84 26.9893L176.367 26.1104L175.84 25.4072V25.2314C176.543 24.5869 176.895 24.1182 176.895 23.8252C176.777 23.5908 176.719 23.415 176.719 23.2979C176.982 23.0635 177.217 22.9463 177.422 22.9463V22.2432C177.422 22.126 177.539 21.6572 177.773 20.8369H177.949L178.301 21.0127C178.301 20.3682 178.477 19.8994 178.828 19.6064C178.652 19.6064 178.477 19.4307 178.301 19.0791L178.652 18.9033L179.18 19.6064C179.326 19.6064 179.678 19.2549 180.234 18.5518C180.498 18.7275 181.436 18.9619 183.047 19.2549C183.076 19.4893 183.193 19.6064 183.398 19.6064H183.926C184.189 19.6064 184.424 19.5479 184.629 19.4307C186.035 19.7822 186.973 20.4268 187.441 21.3643C188.613 24.8799 189.199 27.1064 189.199 28.0439C189.199 28.1025 189.082 29.04 188.848 30.8564C188.848 31.208 188.906 32.3213 189.023 34.1963C188.555 36.6865 188.027 38.9717 187.441 41.0518L187.969 43.5127C187.5 45.6221 187.207 46.6768 187.09 46.6768C187.207 46.8818 187.266 47.0576 187.266 47.2041L187.09 47.5557C188.262 49.1084 188.848 52.5654 188.848 57.9268C187.969 61.9111 187.09 63.9033 186.211 63.9033H184.98C183.662 63.6396 182.725 63.2295 182.168 62.6729H181.992V63.0244H181.465C181.23 63.0244 181.113 62.8486 181.113 62.4971L180.762 62.6729C179.59 62.4385 178.77 62.2041 178.301 61.9697C178.125 62.6729 177.949 63.0244 177.773 63.0244L177.422 62.8486C176.807 63.2881 176.338 63.8154 176.016 64.4307H175.137L175.312 64.7822C174.961 65.251 174.785 65.7783 174.785 66.3643L174.434 66.1885H174.258V66.3643H174.609V66.7158C174.258 66.7158 173.965 66.9502 173.73 67.4189V67.9463L174.082 68.4736C174.082 68.6201 173.906 68.7959 173.555 69.001H173.379L173.027 68.8252V69.3525C173.496 69.3525 174.141 70.29 174.961 72.165C175.547 72.165 176.016 72.458 176.367 73.0439C176.25 73.0439 176.191 73.1025 176.191 73.2197C176.865 73.2197 177.861 73.5127 179.18 74.0986L180.762 73.7471C180.791 73.9814 180.908 74.0986 181.113 74.0986H181.289C181.289 73.7471 181.406 73.5713 181.641 73.5713C181.846 73.6885 182.021 73.7471 182.168 73.7471C182.197 73.5127 182.314 73.3955 182.52 73.3955C182.549 73.6299 182.666 73.7471 182.871 73.7471C183.281 73.3955 183.984 73.2197 184.98 73.2197V72.8682L185.859 73.0439L186.035 72.6924C186.24 72.8096 186.416 72.8682 186.562 72.8682C186.914 72.8682 187.383 72.751 187.969 72.5166C188.613 72.6338 189.082 72.6924 189.375 72.6924C189.521 72.6924 190.107 72.6338 191.133 72.5166V72.6924L191.484 72.5166H191.66L192.012 72.6924L192.188 72.3408L193.066 72.5166L193.418 72.3408L193.77 72.5166L194.121 72.3408C194.18 72.3408 194.414 72.3994 194.824 72.5166C194.941 72.5166 195 72.458 195 72.3408L195.879 72.5166H198.691C198.809 72.5166 198.867 72.5752 198.867 72.6924L199.219 72.5166H201.855C202.119 72.5166 202.354 72.5752 202.559 72.6924C202.764 72.5752 202.939 72.5166 203.086 72.5166L203.438 72.6924C203.555 72.6924 203.613 72.6338 203.613 72.5166C204.697 72.6631 205.4 72.8389 205.723 73.0439C205.84 73.0439 205.898 72.9854 205.898 72.8682C207.07 72.9854 207.656 73.1611 207.656 73.3955L208.535 73.2197H209.414C209.531 73.2197 209.59 73.2783 209.59 73.3955C211.23 73.1318 212.051 72.6045 212.051 71.8135V71.6377H212.227C212.344 71.6377 212.402 71.6963 212.402 71.8135C212.754 71.7256 213.047 71.374 213.281 70.7588C212.93 70.7588 212.754 70.6416 212.754 70.4072C213.135 70.1729 213.428 70.0557 213.633 70.0557V69.8799C213.633 66.9795 212.051 64.9287 208.887 63.7275C207.832 63.376 207.305 63.083 207.305 62.8486C207.07 62.9658 206.895 63.0244 206.777 63.0244C206.045 62.4385 204.99 62.1455 203.613 62.1455C203.262 62.3799 202.617 62.5557 201.68 62.6729C199.248 62.6729 197.842 61.6182 197.461 59.5088V59.333C197.637 58.1904 197.93 54.0889 198.34 47.0283C198.34 46.1494 197.871 44.0986 196.934 40.876V37.3604C196.934 36.3057 197.344 33.7861 198.164 29.8018C197.812 28.4834 197.637 27.6631 197.637 27.3408C197.637 26.9893 198.164 25.9346 199.219 24.1768V21.8916C199.219 21.7744 199.277 21.7158 199.395 21.7158L199.219 21.3643V21.1885C199.219 20.5146 199.805 19.9873 200.977 19.6064C201.064 19.0205 202.646 18.6689 205.723 18.5518C207.129 18.5518 207.832 21.7158 207.832 28.0439C207.949 28.0439 208.242 28.4541 208.711 29.2744C208.711 29.3916 208.652 29.4502 208.535 29.4502C208.887 30.3877 209.062 30.915 209.062 31.0322C208.945 31.6475 208.887 31.999 208.887 32.0869C209.121 32.4678 209.238 32.8193 209.238 33.1416L208.887 33.8447C209.121 34.3135 209.238 34.7236 209.238 35.0752C209.121 35.2803 209.062 35.5146 209.062 35.7783C209.355 35.7783 209.59 36.3057 209.766 37.3604C210.996 39.001 211.699 39.8213 211.875 39.8213L213.809 41.4033C214.043 41.4033 214.16 41.2861 214.16 41.0518C215.068 41.4033 215.654 41.5791 215.918 41.5791H216.445L216.797 39.1182C216.68 38.8838 216.621 38.708 216.621 38.5908C216.709 37.8877 216.826 37.5361 216.973 37.5361L216.797 37.1846C216.797 36.4814 217.031 35.0166 217.5 32.79C217.383 31.999 217.324 31.2373 217.324 30.5049C217.324 30.2705 217.617 29.0986 218.203 26.9893C218.203 26.0811 218.027 24.9678 217.676 23.6494C217.793 22.8291 217.852 22.1846 217.852 21.7158V21.1885L216.445 16.9697C216.24 13.9229 215.537 12.3994 214.336 12.3994C211.699 11.1104 209.414 10.4658 207.48 10.4658H207.129C206.016 10.4658 204.316 10.583 202.031 10.8174C200.391 10.583 197.812 10.4072 194.297 10.29C194.092 10.29 193.389 10.3486 192.188 10.4658C191.455 10.4658 188.643 10.29 183.75 9.93848C182.314 10.4072 181.377 10.6416 180.938 10.6416C180.469 10.6416 178.418 10.4072 174.785 9.93848C173.232 10.2021 171.182 11.5498 168.633 13.9814C168.398 14.6553 168.047 16.4717 167.578 19.4307ZM177.07 19.958H177.246V20.3096H177.07V19.958ZM176.191 23.2979L176.367 23.6494L176.016 23.8252L175.84 23.4736L176.191 23.2979ZM173.555 66.3643V66.7158H173.906V66.3643H173.555ZM258 0.446289H258.703C262.453 0.446289 267.785 0.797852 274.699 1.50098H276.105C276.428 1.50098 276.662 1.96973 276.809 2.90723C276.926 16.4131 276.984 26.8428 276.984 34.1963V35.0752L277.688 47.3799V51.9502C277.453 58.9814 277.336 62.9072 277.336 63.7275V70.4072C277.336 75.0947 276.75 77.4385 275.578 77.4385C275.197 77.4385 272.971 78.083 268.898 79.3721C267.17 79.8408 265.588 80.0752 264.152 80.0752C256.828 80.0752 251.086 80.3682 246.926 80.9541C234.504 80.4854 228.293 79.958 228.293 79.3721C224.016 78.5518 221.789 78.1416 221.613 78.1416C221.027 78.1416 220.559 72.9268 220.207 62.4971C219.738 59.8896 219.504 56.3154 219.504 51.7744V51.4229C219.738 47.9658 219.855 46.0908 219.855 45.7979V19.4307C220.441 11.0811 220.734 6.33496 220.734 5.19238C220.5 5.19238 220.383 5.0752 220.383 4.84082V3.96191L220.207 2.2041C221.057 1.50098 222.756 1.14941 225.305 1.14941H227.414C231.105 1.50098 233.391 1.67676 234.27 1.67676H239.016L258 0.446289ZM224.777 35.0752L224.953 35.9541L223.723 41.0518C223.723 41.4619 223.957 42.458 224.426 44.04C224.309 44.8311 224.25 45.4756 224.25 45.9736V47.0283C225.48 55.583 226.828 59.8604 228.293 59.8604C229.113 60.5928 230.285 62.2334 231.809 64.7822C233.479 66.7451 234.826 68.2686 235.852 69.3525C236.232 71.1104 237.17 71.9893 238.664 71.9893C241.066 71.9893 243.059 72.6338 244.641 73.9229L245.695 74.0986C246.076 74.0986 247.365 73.9229 249.562 73.5713H249.738C250.764 73.9229 251.35 74.0986 251.496 74.0986H252.023C253.576 73.3955 255.451 72.9268 257.648 72.6924C258.82 71.6963 260.402 70.9346 262.395 70.4072C262.863 69.9385 263.566 68.708 264.504 66.7158C264.943 66.6572 265.822 65.251 267.141 62.4971C268.605 61.2959 269.836 58.4248 270.832 53.8838C272.004 53.0928 272.59 50.9834 272.59 47.5557C272.59 45.3291 272.707 43.8643 272.941 43.1611L272.766 40.7002C272.883 38.5322 272.941 37.1846 272.941 36.6572C271.652 31.0029 270.129 25.5537 268.371 20.3096C266.701 17.292 264.826 15.2998 262.746 14.333C260.461 12.0771 257.473 10.3779 253.781 9.23535C248.244 9.23535 243.381 10.0557 239.191 11.6963C238.547 11.6963 237.785 12.5752 236.906 14.333C234.445 15.0361 233.215 15.915 233.215 16.9697C231.662 19.8115 230.197 21.6279 228.82 22.4189C228.117 26.6377 227.004 29.9775 225.48 32.4385C225.012 33.7861 224.777 34.665 224.777 35.0752ZM246.574 18.7275C248.215 18.9619 249.387 19.0791 250.09 19.0791C250.236 19.0791 250.822 19.0205 251.848 18.9033C253.4 19.8408 255.158 20.3096 257.121 20.3096C257.59 20.3096 258.059 21.6572 258.527 24.3525L261.867 26.6377C262.395 27.6338 263.098 29.8604 263.977 33.3174V34.8994C263.977 35.0166 263.918 35.0752 263.801 35.0752C263.801 35.1924 263.859 35.251 263.977 35.251C263.859 37.3604 263.684 38.415 263.449 38.415C263.449 38.5322 263.508 38.5908 263.625 38.5908C263.537 39.6455 263.42 40.1729 263.273 40.1729C263.742 41.2568 263.977 42.3701 263.977 43.5127C263.977 44.2744 262.863 46.7939 260.637 51.0713C260.754 51.2764 260.812 51.4521 260.812 51.5986C260.754 52.7119 260.051 54.7041 258.703 57.5752C257.502 59.4502 256.506 60.3877 255.715 60.3877H255.188C255.188 60.8564 254.191 61.2666 252.199 61.6182L251.848 61.4424C251.848 61.6768 251.73 61.7939 251.496 61.7939C251.496 61.6182 251.32 61.4424 250.969 61.2666L250.09 61.4424C250.09 61.2373 249.855 61.0029 249.387 60.7393C249.387 60.9736 249.27 61.0908 249.035 61.0908V60.915L248.684 61.0908H248.332L246.223 60.5635C246.223 60.7979 246.164 60.915 246.047 60.915L244.816 60.0361C244.582 60.1533 244.406 60.2119 244.289 60.2119C240.305 55.7588 238.312 52.7119 238.312 51.0713C238.312 50.0752 237.902 46.208 237.082 39.4697C237.082 39.0303 237.023 38.5029 236.906 37.8877C237.375 35.0752 237.609 33.4932 237.609 33.1416C237.492 32.9365 237.434 32.7021 237.434 32.4385C237.434 32.3213 237.492 31.8525 237.609 31.0322L237.434 30.6807C237.668 30.0654 237.785 29.5967 237.785 29.2744C237.668 29.04 237.609 28.8643 237.609 28.7471C237.961 28.1904 238.195 27.4873 238.312 26.6377C238.84 26.6377 239.191 26.4033 239.367 25.9346C239.191 25.9346 239.016 25.7588 238.84 25.4072V25.2314H239.016C239.367 25.2314 239.543 25.4658 239.543 25.9346H239.719C240.422 25.6416 241.125 24.5869 241.828 22.7705C243.029 20.0752 244.611 18.7275 246.574 18.7275ZM240.422 23.8252L240.598 24.1768V24.3525H240.422C240.188 24.3525 240.07 24.2354 240.07 24.001L240.422 23.8252ZM283.207 6.24707H286.898C299.086 7.06738 312.328 8.53223 326.625 10.6416C330.961 10.6416 333.129 11.1104 333.129 12.0479C333.363 13.4541 333.48 14.5674 333.48 15.3877V54.9385C332.982 72.3994 332.455 81.1299 331.898 81.1299C330.463 81.833 328.822 82.1846 326.977 82.1846C325.951 81.833 324.369 81.6572 322.23 81.6572H316.43C314.848 81.6572 313.559 81.7744 312.562 82.0088C304.301 81.7744 297.328 81.3057 291.645 80.6025C288.129 79.5479 283.383 79.0205 277.406 79.0205C276.586 78.6982 276.176 78.4639 276.176 78.3174C275.824 68.2393 275.531 60.9736 275.297 56.5205V35.9541C276.117 22.7412 276.527 14.0693 276.527 9.93848V6.77441C276.586 6.54004 276.703 6.42285 276.879 6.42285V6.59863C276.996 6.59863 277.055 6.54004 277.055 6.42285C279.809 6.30566 281.859 6.24707 283.207 6.24707ZM282.68 12.2236V12.5752C283.031 12.5752 283.207 12.751 283.207 13.1025C283.09 13.3369 283.031 13.5127 283.031 13.6299H282.504C282.24 13.6299 282.006 13.5713 281.801 13.4541H281.625V13.6299H281.977C281.977 14.2451 281.801 14.5967 281.449 14.6846H280.57C280.57 15.7393 280.102 16.2666 279.164 16.2666L279.34 16.6182V16.9697C278.988 17.4092 278.812 17.8193 278.812 18.2002C280.395 20.0459 281.332 21.7451 281.625 23.2979L282.152 23.6494C282.152 23.7373 282.094 24.0889 281.977 24.7041L282.68 31.7354C282.562 33.874 282.504 35.2217 282.504 35.7783C282.826 37.7998 283.119 40.6123 283.383 44.2158V44.3916L282.328 48.6104C282.68 50.3389 282.855 51.6279 282.855 52.4775C282.504 54.5869 282.328 56.0518 282.328 56.8721V57.2236C282.328 58.5713 282.504 60.3291 282.855 62.4971V62.8486L282.152 64.2549V64.7822C282.152 64.8994 282.27 65.3682 282.504 66.1885C282.504 66.6572 282.27 67.0088 281.801 67.2432L281.449 67.0674C281.449 67.3604 281.098 67.7119 280.395 68.1221L279.516 67.9463H279.164L279.34 68.8252V69.3525C279.34 69.5869 279.164 69.7041 278.812 69.7041C278.812 71.4619 280.277 72.9268 283.207 74.0986C284.32 74.0986 286.137 74.04 288.656 73.9229C292.992 74.04 296.215 74.2158 298.324 74.4502H298.5C299.76 73.2783 300.463 72.6924 300.609 72.6924C302.25 72.4287 303.07 72.0186 303.07 71.4619C303.012 70.3193 302.66 69.0889 302.016 67.7705L302.191 67.4189C301.342 66.7744 300.229 66.2471 298.852 65.8369C297.27 64.1963 295.395 63.376 293.227 63.376C292.494 63.376 292.084 62.9072 291.996 61.9697C291.996 61.501 292.055 60.8564 292.172 60.0361C292.055 58.2783 291.879 57.2822 291.645 57.0479C291.762 56.4619 291.879 56.1689 291.996 56.1689C291.762 54.4404 291.645 52.7998 291.645 51.2471C291.645 51.1885 291.703 50.4268 291.82 48.9619C291.703 48.9619 291.645 48.9033 291.645 48.7861L291.996 48.6104C291.996 48.7861 292.23 49.0205 292.699 49.3135L293.93 48.4346C294.164 48.9033 294.516 49.1377 294.984 49.1377C295.043 48.9033 295.16 48.7861 295.336 48.7861H296.391V48.6104L296.215 48.2588C296.449 48.2588 296.566 48.1416 296.566 47.9072H297.094L297.973 47.7314C298.031 47.9658 298.148 48.083 298.324 48.083C298.324 47.2627 298.441 46.8525 298.676 46.8525H298.852L299.555 47.3799H299.73L300.609 46.8525C302.338 47.2627 303.451 47.6143 303.949 47.9072H304.125L305.004 47.7314C305.004 47.9365 305.59 48.4639 306.762 49.3135C307.611 50.3096 308.314 51.7158 308.871 53.5322L308.52 54.9385C308.754 54.9678 308.871 55.085 308.871 55.29L308.695 55.9932C308.695 56.2861 309.164 57.2822 310.102 58.9814C310.219 59.5967 310.277 59.9482 310.277 60.0361L309.926 62.3213C310.512 63.6982 311.273 66.5107 312.211 70.7588C313.061 71.5791 313.764 71.9893 314.32 71.9893H316.078C316.781 71.9893 318.07 72.3408 319.945 73.0439C320.707 72.9561 322.348 72.4287 324.867 71.4619H325.922C327.094 71.6963 327.738 71.8135 327.855 71.8135H328.383C328.764 71.8135 329.057 71.1689 329.262 69.8799L327.68 66.8916C326.215 65.1924 324.926 63.2002 323.812 60.915H323.988C322.904 58.5713 322.084 57.3994 321.527 57.3994C321.322 57.5166 321.146 57.5752 321 57.5752V57.3994C320.59 57.6338 320.062 57.751 319.418 57.751C318.656 57.751 318.012 56.6377 317.484 54.4111V54.2354C317.689 53.7666 318.1 53.5322 318.715 53.5322H319.945C320.268 53.5322 320.502 52.9463 320.648 51.7744V50.8955C320.648 48.4053 320.238 46.2959 319.418 44.5674C319.418 44.04 319.77 42.9268 320.473 41.2275C320.473 40.9639 320.707 40.7881 321.176 40.7002C321.703 38.9424 322.289 38.0635 322.934 38.0635C323.285 37.917 323.52 37.2139 323.637 35.9541C323.842 35.9541 324.018 35.8369 324.164 35.6025L323.812 34.8994L324.516 33.6689L324.164 32.9658L324.691 31.9111C324.281 31.5889 323.871 30.2412 323.461 27.8682C322.641 26.96 322.23 25.3193 322.23 22.9463C321.469 22.0674 320.414 20.6025 319.066 18.5518C317.689 17.1455 315.463 15.5049 312.387 13.6299C310.219 13.3955 307.934 12.8682 305.531 12.0479C304.74 11.9307 304.096 11.8721 303.598 11.8721C302.895 11.8721 301.195 12.0479 298.5 12.3994C296.186 12.0479 294.252 11.8721 292.699 11.8721H283.383C283.119 12.1064 282.885 12.2236 282.68 12.2236ZM303.949 19.958C305.648 20.0752 306.586 20.1338 306.762 20.1338C307.758 20.0166 308.52 19.958 309.047 19.958C310.014 19.958 311.244 20.8369 312.738 22.5947C314.496 24.0303 315.375 26.0811 315.375 28.7471C315.375 29.4209 314.32 31.1787 312.211 34.0205C312.211 35.4854 310.57 36.7744 307.289 37.8877C306.234 38.1221 305.473 38.2393 305.004 38.2393H304.477C300.814 37.8877 298.061 37.4775 296.215 37.0088C295.043 37.7119 294.223 38.0635 293.754 38.0635C291.879 38.0635 290.941 36.1885 290.941 32.4385C290.941 31.8232 291.938 30.3584 293.93 28.0439C294.164 27.2236 294.281 26.5205 294.281 25.9346V25.7588C294.281 25.085 294.164 23.9131 293.93 22.2432C294.135 21.1885 294.662 20.6611 295.512 20.6611L297.621 21.3643C299.496 20.4268 301.605 19.958 303.949 19.958ZM296.918 46.8525H297.094V47.2041H296.918V46.8525ZM333.375 3.87402C345.387 4.22559 352.77 4.40137 355.523 4.40137H356.754L382.242 6.33496H387.516C387.984 6.45215 388.219 7.03809 388.219 8.09277C388.219 11.9307 388.16 14.0986 388.043 14.5967C388.16 18.376 388.219 21.7158 388.219 24.6162V36.5693C388.219 45.4463 387.398 59.333 385.758 78.2295C385.758 78.9326 384.41 79.2842 381.715 79.2842H378.023C374.156 79.6357 369.059 79.8115 362.73 79.8115C352.564 79.46 344.83 78.7568 339.527 77.7021C334.723 76.5889 332.32 75.7686 332.32 75.2412L331.266 70.8467C331.148 63.0537 331.09 56.8428 331.09 52.2139V43.6006C331.324 37.7705 331.441 34.4893 331.441 33.7568V33.0537C332.496 16.3545 332.906 7.7998 332.672 7.38965V5.45605C332.672 4.54785 332.906 4.02051 333.375 3.87402ZM352.535 8.97168C350.455 8.62012 349.166 8.44434 348.668 8.44434H348.316C342.809 9.44043 340.055 10.3193 340.055 11.0811C339.82 12.1943 339.703 12.8975 339.703 13.1904C339.703 15.1826 340.875 16.1787 343.219 16.1787C344.508 17.4678 345.445 18.1123 346.031 18.1123C347.027 18.1123 347.965 17.9951 348.844 17.7607C353.297 18.083 355.523 18.8447 355.523 20.0459C355.758 20.0459 355.875 20.3975 355.875 21.1006C355.641 22.1553 355.523 22.917 355.523 23.3857V23.5615C356.578 25.7295 357.105 26.9014 357.105 27.0771C358.277 30.2705 358.863 32.0869 358.863 32.5264C358.16 35.5146 357.809 37.2139 357.809 37.624L358.512 40.085C358.072 41.3154 357.721 44.3623 357.457 49.2256V50.1045L359.566 55.2021V55.7295C359.566 56.2568 358.57 57.4873 356.578 59.4209C356.578 60.2705 354.82 61.0322 351.305 61.7061C350.865 61.7061 350.045 61.2373 348.844 60.2998C348.668 60.1826 348.375 60.124 347.965 60.124C346.764 61.4131 344.889 62.0576 342.34 62.0576C342.135 61.9404 341.9 61.8818 341.637 61.8818C341.08 62.2627 340.494 62.5557 339.879 62.7607C339.879 63.3174 339.293 64.0791 338.121 65.0459C338.121 65.251 337.652 66.0713 336.715 67.5068V67.8584L336.891 68.21C336.773 68.415 336.715 68.5908 336.715 68.7373C336.861 68.7373 337.447 69.499 338.473 71.0225L338.297 71.374V71.5498L338.648 71.374C339.527 72.6631 340.699 73.3076 342.164 73.3076L347.965 74.3623C348.375 74.3623 349.547 73.8936 351.48 72.9561L354.469 72.6045C354.908 72.6045 356.314 73.0732 358.688 74.0107H359.215C361.676 73.3076 363.199 72.9561 363.785 72.9561H365.191C365.514 72.9561 367.096 73.0732 369.938 73.3076C370.758 73.0732 373.336 72.8975 377.672 72.7803C378.521 72.8975 379.225 72.9561 379.781 72.9561C381.451 72.3115 382.916 70.6123 384.176 67.8584C383.473 64.8115 381.949 63.2881 379.605 63.2881L378.727 63.4639C378.023 63.4639 377.027 62.6436 375.738 61.0029C375.533 60.8857 375.299 60.8271 375.035 60.8271C374.068 61.4131 373.424 61.7061 373.102 61.7061C372.721 61.7061 372.311 60.8271 371.871 59.0693C370.934 58.6299 369.879 57.2822 368.707 55.0264C368.268 55.0264 367.799 54.0889 367.301 52.2139C367.301 52.126 367.359 51.7744 367.477 51.1592C367.477 48.2588 367.359 44.0986 367.125 38.6787C367.359 37.3896 367.477 36.042 367.477 34.6357V34.2842C367.242 29.5088 366.949 26.5791 366.598 25.4951C367.066 20.3389 368.121 17.7607 369.762 17.7607H371.168C372.369 17.7607 373.834 17.7021 375.562 17.585C376.822 17.9365 377.76 18.1123 378.375 18.1123C379.547 18.1123 381.129 16.6475 383.121 13.7178L383.297 12.6631V12.4873C383.297 11.0225 381.656 9.85059 378.375 8.97168C377.584 8.97168 376.705 9.14746 375.738 9.49902C374.537 9.38184 373.6 9.32324 372.926 9.32324C372.428 9.32324 371.373 9.44043 369.762 9.6748C369.205 9.6748 366.861 9.03027 362.73 7.74121C362.584 7.62402 362.174 7.56543 361.5 7.56543H361.324C356.402 8.50293 353.648 8.97168 353.062 8.97168H352.535Z" fill="white"/>
</svg>
