<svg width="323" height="81" viewBox="0 0 323 81" fill="none" xmlns="http://www.w3.org/2000/svg">
<path d="M24.4238 6.4668C32.0996 6.93555 38.7793 7.46289 44.4629 8.04883H53.0762C54.248 8.04883 54.834 8.81055 54.834 10.334C55.1855 13.0293 55.4785 18.6543 55.7129 27.209V30.0215C55.7129 34.5625 54.9512 44.1133 53.4277 58.6738C53.3105 60.7832 53.252 63.4785 53.252 66.7598C53.252 68.957 53.3105 72.1797 53.4277 76.4277C53.252 77.5996 52.7832 78.1855 52.0215 78.1855H51.6699C50.8496 78.1855 49.7363 78.0684 48.3301 77.834C47.041 78.0684 46.2207 78.1855 45.8691 78.1855C43.7012 77.9512 42.2363 77.834 41.4746 77.834C36.6992 78.3027 27.9102 78.8301 15.1074 79.416C12.5586 79.416 8.39844 78.7129 2.62695 77.3066C1.83594 76.3105 1.25 72.1504 0.869141 64.8262C0.869141 50.3828 0.576172 38.6055 -0.00976562 29.4941L0.693359 16.1348V13.8496L1.2207 8.22461C0.810547 8.10742 1.16211 7.84375 2.27539 7.43359C3.38867 7.02344 10.7715 6.70117 24.4238 6.4668ZM5.79102 28.4395C6.43555 31.9844 7.37305 34.5625 8.60352 36.1738C8.60352 37.668 10.0684 39.0742 12.998 40.3926C12.998 40.7734 14.6973 41.6523 18.0957 43.0293C19.3262 44.2012 20.498 44.7871 21.6113 44.7871H24.4238C24.5996 44.7871 25.4199 45.0801 26.8848 45.666C28.8184 44.4941 30.166 43.9082 30.9277 43.9082C31.6602 43.9082 33.8281 44.6699 37.4316 46.1934C38.7207 46.1934 40.127 47.3066 41.6504 49.5332C43.1738 50.3828 43.9355 51.3789 43.9355 52.5215V52.873C42.8809 57.5605 41.9434 59.9043 41.123 59.9043C40.8008 60.373 38.1055 62.0137 33.0371 64.8262C31.3672 65.5293 30.3125 65.8809 29.873 65.8809C28.6719 64.8262 26.6211 64.2988 23.7207 64.2988C22.7246 62.7754 21.9043 62.0137 21.2598 62.0137C20.1465 62.3652 19.4434 62.541 19.1504 62.541H18.7988C18.1836 62.541 17.1875 61.6621 15.8105 59.9043C14.9316 59.9043 13.291 57.3262 10.8887 52.1699L11.0645 51.8184C10.7422 49.4746 9.57031 48.3027 7.54883 48.3027C7.54883 48.1855 7.31445 48.127 6.8457 48.127H6.66992C6.11328 48.127 5.46875 49.5918 4.73633 52.5215V53.0488C5.43945 54.9824 5.79102 56.0957 5.79102 56.3887V56.7402C5.79102 57.2676 5.49805 58.2637 4.91211 59.7285L5.08789 61.8379C4.85352 62.9219 4.73633 63.5078 4.73633 63.5957C4.94141 63.5957 5.23438 64.123 5.61523 65.1777C5.82031 65.1777 7.10938 66.4082 9.48242 68.8691C9.59961 68.8691 10.127 69.2207 11.0645 69.9238L11.416 69.748C12.002 70.2168 12.8809 70.627 14.0527 70.9785C16.8066 72.7363 18.9746 73.6152 20.5566 73.6152H21.6113C22.8418 73.6152 25.2441 73.3809 28.8184 72.9121C30.5469 73.3809 31.4844 73.6152 31.6309 73.6152H31.9824C32.9199 73.6152 35.2637 72.9121 39.0137 71.5059C41.5332 71.5059 44.5801 69.5137 48.1543 65.5293C49.6191 62.9512 50.791 59.4941 51.6699 55.1582V54.6309C51.2891 51.6719 50.0586 48.332 47.9785 44.6113C46.7188 44.2305 44.7266 42.5898 42.002 39.6895C40.2148 38.9863 37.9883 38.6348 35.3223 38.6348C34.1797 38.0488 33.0664 37.7559 31.9824 37.7559C31.5137 37.7559 30.5762 37.9316 29.1699 38.2832C27.793 38.0781 26.9727 37.8438 26.709 37.5801C26.4746 37.6973 26.2988 37.7559 26.1816 37.7559C26.1816 37.5215 24.8926 37.1699 22.3145 36.7012C22.3145 36.584 22.0801 36.4082 21.6113 36.1738L21.2598 36.3496H21.084C19.7949 35.7344 18.623 34.8555 17.5684 33.7129C16.4551 32.8633 15.459 30.8711 14.5801 27.7363C14.4629 27.7363 14.4043 27.6777 14.4043 27.5605C14.4336 26.9746 14.5508 26.6816 14.7559 26.6816L14.5801 25.8027V25.4512C15.166 24.9238 15.459 24.3965 15.459 23.8691C15.6934 23.8691 16.2793 23.3418 17.2168 22.2871L21.7871 20.1777C21.9922 20.0605 22.2852 20.002 22.666 20.002H24.4238C26.5039 19.0645 27.6172 18.5957 27.7637 18.5957H28.4668C31.1328 18.9766 33.4766 20.0898 35.498 21.9355C37.6074 23.0195 39.5996 25.7734 41.4746 30.1973C43.4082 32.4238 44.873 33.5371 45.8691 33.5371C47.1582 33.5371 48.0957 31.8965 48.6816 28.6152L48.1543 25.0996C48.3887 23.5469 48.5059 22.5508 48.5059 22.1113C48.1836 21.7012 47.5977 21.3496 46.748 21.0566C46.748 20.5879 46.5137 20.3535 46.0449 20.3535C45.8105 20.4707 45.6348 20.5293 45.5176 20.5293C45.1367 19.8262 44.8438 19.4746 44.6387 19.4746L43.7598 19.6504C43.5254 19.3574 43.4082 19.1816 43.4082 19.123L43.584 18.7715C43.2031 18.7715 42.9102 18.7129 42.7051 18.5957C42.4707 18.7129 42.2949 18.7715 42.1777 18.7715C41.8555 18.2148 41.6211 17.9219 41.4746 17.8926H41.123L40.7715 18.0684C40.4199 17.6875 40.2441 17.3359 40.2441 17.0137H39.541L39.1895 17.1895C37.9004 14.9629 36.377 13.8496 34.6191 13.8496C31.543 13.8496 28.9648 13.0879 26.8848 11.5645C25.918 11.4473 25.332 11.3301 25.127 11.2129C24.6582 11.2129 22.1387 11.9746 17.5684 13.498C14.1992 13.498 11.0938 15.4316 8.25195 19.2988C6.8457 22.5801 6.14258 24.4551 6.14258 24.9238C6.02539 25.041 5.9082 26.2129 5.79102 28.4395ZM54.8164 3.78613H55.3438C58.1855 4.02051 59.7676 4.1377 60.0898 4.1377H64.4844C64.9238 4.1377 66.3887 4.25488 68.8789 4.48926C80.5684 4.48926 91.877 5.25098 102.805 6.77441C105.266 7.59473 108.254 8.00488 111.77 8.00488C112.355 8.12207 112.648 8.35645 112.648 8.70801C112.883 11.9307 113 13.8643 113 14.5088V31.7354C112.297 49.958 111.066 64.3721 109.309 74.9775C108.693 77.6729 107.99 79.0205 107.199 79.0205L97.3555 77.9658H94.7188C92.873 77.9658 88.3027 78.376 81.0078 79.1963H75.7344C66.4473 77.5557 60.5879 76.7354 58.1562 76.7354H54.2891C53.3516 76.1494 52.8242 73.4541 52.707 68.6494V46.8525C53.293 39.5283 53.9961 29.3916 54.8164 16.4424V16.0908C54.582 12.6338 54.4648 10.7588 54.4648 10.4658V8.70801L54.1133 8.88379H53.9375V5.54395C53.9375 4.63574 54.2305 4.0498 54.8164 3.78613ZM57.8047 19.4307C57.8047 20.8662 58.1562 22.8584 58.8594 25.4072V26.2861C58.0391 27.9854 57.6289 29.1572 57.6289 29.8018C57.6289 30.0068 57.9219 31.3545 58.5078 33.8447C58.3906 34.46 58.332 34.8115 58.332 34.8994C59.3574 37.9463 61.0566 39.4697 63.4297 39.4697C64.8652 39.4697 66.0371 38.0049 66.9453 35.0752L66.7695 34.3721L66.9453 33.1416L66.5938 32.4385L66.7695 31.3838C66.5352 31.0908 66.418 30.915 66.418 30.8564C66.5059 30.1533 66.623 29.8018 66.7695 29.8018C66.418 29.2451 66.2422 28.8936 66.2422 28.7471L66.7695 27.6924C66.3008 27.6924 66.0664 27.458 66.0664 26.9893L66.5938 26.1104L66.0664 25.4072V25.2314C66.7695 24.5869 67.1211 24.1182 67.1211 23.8252C67.0039 23.5908 66.9453 23.415 66.9453 23.2979C67.209 23.0635 67.4434 22.9463 67.6484 22.9463V22.2432C67.6484 22.126 67.7656 21.6572 68 20.8369H68.1758L68.5273 21.0127C68.5273 20.3682 68.7031 19.8994 69.0547 19.6064C68.8789 19.6064 68.7031 19.4307 68.5273 19.0791L68.8789 18.9033L69.4062 19.6064C69.5527 19.6064 69.9043 19.2549 70.4609 18.5518C70.7246 18.7275 71.6621 18.9619 73.2734 19.2549C73.3027 19.4893 73.4199 19.6064 73.625 19.6064H74.1523C74.416 19.6064 74.6504 19.5479 74.8555 19.4307C76.2617 19.7822 77.1992 20.4268 77.668 21.3643C78.8398 24.8799 79.4258 27.1064 79.4258 28.0439C79.4258 28.1025 79.3086 29.04 79.0742 30.8564C79.0742 31.208 79.1328 32.3213 79.25 34.1963C78.7812 36.6865 78.2539 38.9717 77.668 41.0518L78.1953 43.5127C77.7266 45.6221 77.4336 46.6768 77.3164 46.6768C77.4336 46.8818 77.4922 47.0576 77.4922 47.2041L77.3164 47.5557C78.4883 49.1084 79.0742 52.5654 79.0742 57.9268C78.1953 61.9111 77.3164 63.9033 76.4375 63.9033H75.207C73.8887 63.6396 72.9512 63.2295 72.3945 62.6729H72.2188V63.0244H71.6914C71.457 63.0244 71.3398 62.8486 71.3398 62.4971L70.9883 62.6729C69.8164 62.4385 68.9961 62.2041 68.5273 61.9697C68.3516 62.6729 68.1758 63.0244 68 63.0244L67.6484 62.8486C67.0332 63.2881 66.5645 63.8154 66.2422 64.4307H65.3633L65.5391 64.7822C65.1875 65.251 65.0117 65.7783 65.0117 66.3643L64.6602 66.1885H64.4844V66.3643H64.8359V66.7158C64.4844 66.7158 64.1914 66.9502 63.957 67.4189V67.9463L64.3086 68.4736C64.3086 68.6201 64.1328 68.7959 63.7812 69.001H63.6055L63.2539 68.8252V69.3525C63.7227 69.3525 64.3672 70.29 65.1875 72.165C65.7734 72.165 66.2422 72.458 66.5938 73.0439C66.4766 73.0439 66.418 73.1025 66.418 73.2197C67.0918 73.2197 68.0879 73.5127 69.4062 74.0986L70.9883 73.7471C71.0176 73.9814 71.1348 74.0986 71.3398 74.0986H71.5156C71.5156 73.7471 71.6328 73.5713 71.8672 73.5713C72.0723 73.6885 72.248 73.7471 72.3945 73.7471C72.4238 73.5127 72.541 73.3955 72.7461 73.3955C72.7754 73.6299 72.8926 73.7471 73.0977 73.7471C73.5078 73.3955 74.2109 73.2197 75.207 73.2197V72.8682L76.0859 73.0439L76.2617 72.6924C76.4668 72.8096 76.6426 72.8682 76.7891 72.8682C77.1406 72.8682 77.6094 72.751 78.1953 72.5166C78.8398 72.6338 79.3086 72.6924 79.6016 72.6924C79.748 72.6924 80.334 72.6338 81.3594 72.5166V72.6924L81.7109 72.5166H81.8867L82.2383 72.6924L82.4141 72.3408L83.293 72.5166L83.6445 72.3408L83.9961 72.5166L84.3477 72.3408C84.4062 72.3408 84.6406 72.3994 85.0508 72.5166C85.168 72.5166 85.2266 72.458 85.2266 72.3408L86.1055 72.5166H88.918C89.0352 72.5166 89.0938 72.5752 89.0938 72.6924L89.4453 72.5166H92.082C92.3457 72.5166 92.5801 72.5752 92.7852 72.6924C92.9902 72.5752 93.166 72.5166 93.3125 72.5166L93.6641 72.6924C93.7812 72.6924 93.8398 72.6338 93.8398 72.5166C94.9238 72.6631 95.627 72.8389 95.9492 73.0439C96.0664 73.0439 96.125 72.9854 96.125 72.8682C97.2969 72.9854 97.8828 73.1611 97.8828 73.3955L98.7617 73.2197H99.6406C99.7578 73.2197 99.8164 73.2783 99.8164 73.3955C101.457 73.1318 102.277 72.6045 102.277 71.8135V71.6377H102.453C102.57 71.6377 102.629 71.6963 102.629 71.8135C102.98 71.7256 103.273 71.374 103.508 70.7588C103.156 70.7588 102.98 70.6416 102.98 70.4072C103.361 70.1729 103.654 70.0557 103.859 70.0557V69.8799C103.859 66.9795 102.277 64.9287 99.1133 63.7275C98.0586 63.376 97.5312 63.083 97.5312 62.8486C97.2969 62.9658 97.1211 63.0244 97.0039 63.0244C96.2715 62.4385 95.2168 62.1455 93.8398 62.1455C93.4883 62.3799 92.8438 62.5557 91.9062 62.6729C89.4746 62.6729 88.0684 61.6182 87.6875 59.5088V59.333C87.8633 58.1904 88.1562 54.0889 88.5664 47.0283C88.5664 46.1494 88.0977 44.0986 87.1602 40.876V37.3604C87.1602 36.3057 87.5703 33.7861 88.3906 29.8018C88.0391 28.4834 87.8633 27.6631 87.8633 27.3408C87.8633 26.9893 88.3906 25.9346 89.4453 24.1768V21.8916C89.4453 21.7744 89.5039 21.7158 89.6211 21.7158L89.4453 21.3643V21.1885C89.4453 20.5146 90.0312 19.9873 91.2031 19.6064C91.291 19.0205 92.873 18.6689 95.9492 18.5518C97.3555 18.5518 98.0586 21.7158 98.0586 28.0439C98.1758 28.0439 98.4688 28.4541 98.9375 29.2744C98.9375 29.3916 98.8789 29.4502 98.7617 29.4502C99.1133 30.3877 99.2891 30.915 99.2891 31.0322C99.1719 31.6475 99.1133 31.999 99.1133 32.0869C99.3477 32.4678 99.4648 32.8193 99.4648 33.1416L99.1133 33.8447C99.3477 34.3135 99.4648 34.7236 99.4648 35.0752C99.3477 35.2803 99.2891 35.5146 99.2891 35.7783C99.582 35.7783 99.8164 36.3057 99.9922 37.3604C101.223 39.001 101.926 39.8213 102.102 39.8213L104.035 41.4033C104.27 41.4033 104.387 41.2861 104.387 41.0518C105.295 41.4033 105.881 41.5791 106.145 41.5791H106.672L107.023 39.1182C106.906 38.8838 106.848 38.708 106.848 38.5908C106.936 37.8877 107.053 37.5361 107.199 37.5361L107.023 37.1846C107.023 36.4814 107.258 35.0166 107.727 32.79C107.609 31.999 107.551 31.2373 107.551 30.5049C107.551 30.2705 107.844 29.0986 108.43 26.9893C108.43 26.0811 108.254 24.9678 107.902 23.6494C108.02 22.8291 108.078 22.1846 108.078 21.7158V21.1885L106.672 16.9697C106.467 13.9229 105.764 12.3994 104.562 12.3994C101.926 11.1104 99.6406 10.4658 97.707 10.4658H97.3555C96.2422 10.4658 94.543 10.583 92.2578 10.8174C90.6172 10.583 88.0391 10.4072 84.5234 10.29C84.3184 10.29 83.6152 10.3486 82.4141 10.4658C81.6816 10.4658 78.8691 10.29 73.9766 9.93848C72.541 10.4072 71.6035 10.6416 71.1641 10.6416C70.6953 10.6416 68.6445 10.4072 65.0117 9.93848C63.459 10.2021 61.4082 11.5498 58.8594 13.9814C58.625 14.6553 58.2734 16.4717 57.8047 19.4307ZM67.2969 19.958H67.4727V20.3096H67.2969V19.958ZM66.418 23.2979L66.5938 23.6494L66.2422 23.8252L66.0664 23.4736L66.418 23.2979ZM63.7812 66.3643V66.7158H64.1328V66.3643H63.7812ZM136.449 6.11523C138.119 6.11523 143.451 6.81836 152.445 8.22461C154.672 8.57617 157.309 8.75195 160.355 8.75195C160.824 9.16211 161.059 10.041 161.059 11.3887V21.0566C161.059 21.3789 161.176 22.9609 161.41 25.8027C161.41 33.2441 160.941 41.4473 160.004 50.4121V50.9395C159.652 63.3027 159.359 70.2754 159.125 71.8574C159.242 73.4395 159.301 74.7871 159.301 75.9004C159.301 76.2812 157.777 76.6328 154.73 76.9551C154.467 76.9551 154.232 76.8965 154.027 76.7793C147.201 76.6621 141.693 76.4863 137.504 76.252H127.484C123.002 76.4863 120.072 76.7207 118.695 76.9551C116.791 76.8379 114.916 76.7793 113.07 76.7793C111.664 76.7793 110.961 75.666 110.961 73.4395L109.73 48.127V43.3809C110.082 39.0742 110.258 35.5586 110.258 32.834V27.3848C110.023 23.6055 109.906 21.5547 109.906 21.2324V21.0566C109.906 16.3105 110.023 12.3848 110.258 9.2793C110.141 8.63477 110.082 7.99023 110.082 7.3457H111.312C120.395 6.52539 128.422 6.11523 135.395 6.11523H136.449ZM114.125 12.6191V12.9707L114.301 13.3223C114.154 13.3223 113.861 13.6152 113.422 14.2012C113.656 14.2305 113.773 14.3477 113.773 14.5527V15.2559C113.773 15.373 113.715 15.4316 113.598 15.4316C113.598 15.7832 114.359 18.3027 115.883 22.9902C116 24.1035 116.059 25.334 116.059 26.6816V27.209L115.18 30.373L115.355 31.6035C115.355 34.0059 115.121 36.3496 114.652 38.6348C115.004 40.2461 115.297 42.4727 115.531 45.3145C115.062 49.2109 114.828 51.4375 114.828 51.9941C114.828 54.8945 115.648 57.707 117.289 60.4316C117.289 60.9004 118.344 63.127 120.453 67.1113C126.518 71.5645 129.975 73.791 130.824 73.791C131.117 73.791 131.938 73.6738 133.285 73.4395C133.9 73.5566 134.486 73.6152 135.043 73.6152H135.219C139.232 73.3223 141.635 72.7949 142.426 72.0332C143.568 71.0957 145.268 70.0996 147.523 69.0449C147.787 68.7227 148.842 67.9609 150.688 66.7598C153.969 62.0137 155.609 57.6777 155.609 53.752V51.6426C155.609 50.793 155.258 49.2695 154.555 47.0723C155.023 45.4609 155.258 44.5234 155.258 44.2598C155.023 39.25 154.73 36.0273 154.379 34.5918C154.496 33.8301 154.555 33.0684 154.555 32.3066C154.555 32.1016 154.32 31.0469 153.852 29.1426V28.9668C154.555 22.873 155.434 19.8262 156.488 19.8262C156.752 19.8262 156.928 19.4746 157.016 18.7715H157.895V18.5957C157.895 18.332 157.719 17.7461 157.367 16.8379C157.602 16.7207 157.777 16.6621 157.895 16.6621V16.3105C156.84 15.6367 156.312 14.9922 156.312 14.377H155.258V14.0254H155.609V13.8496H155.258C155.258 13.9668 155.199 14.0254 155.082 14.0254C155.082 13.3809 154.73 12.8535 154.027 12.4434C153.383 11.2715 151.684 10.6855 148.93 10.6855C146.703 11.1543 144.418 11.5059 142.074 11.7402L140.492 12.9707C140.492 13.4395 140.141 13.9082 139.438 14.377L139.613 14.7285C139.174 15.2559 138.939 15.7832 138.91 16.3105C139.145 16.3398 139.262 16.457 139.262 16.6621C139.262 16.7793 139.203 16.8379 139.086 16.8379C139.086 17.3359 140.199 18.5078 142.426 20.3535C144.447 20.3535 145.854 22.0527 146.645 25.4512C146.527 26.623 146.469 27.502 146.469 28.0879C146.586 31.1055 146.645 32.8047 146.645 33.1855L145.941 35.1191C146.615 36.877 147.084 39.8652 147.348 44.084C147.465 44.084 147.523 44.4941 147.523 45.3145V46.1934C147.523 47.0137 146.938 48.127 145.766 49.5332C145.648 49.7383 145.59 49.9727 145.59 50.2363V50.5879C146.176 52.2578 146.469 53.1953 146.469 53.4004C146.469 57.8828 143.949 61.1641 138.91 63.2441H138.559C137.973 63.2441 136.977 62.834 135.57 62.0137C132.963 62.0137 131.264 61.3105 130.473 59.9043C128.246 59.6992 127.133 58.8203 127.133 57.2676C127.836 55.3633 128.188 54.3672 128.188 54.2793C126.195 51.3789 125.199 47.4531 125.199 42.502C125.082 42.502 125.023 42.0918 125.023 41.2715C125.023 40.7441 125.141 39.748 125.375 38.2832C124.789 36.3496 124.496 35.1191 124.496 34.5918C125.082 32.2188 125.375 30.8711 125.375 30.5488C125.375 30.4023 125.316 29.8164 125.199 28.791C125.199 28.6738 125.258 28.2051 125.375 27.3848C125.141 26.0371 125.023 24.748 125.023 23.5176C125.023 21.2324 127.016 19.3574 131 17.8926C131 17.6582 131.176 17.541 131.527 17.541V17.0137C131.527 16.5156 131.645 16.0469 131.879 15.6074C131.645 15.2266 131.527 14.875 131.527 14.5527H131.703C131.703 13.2344 130.18 12.2383 127.133 11.5645C127.133 11.4473 126.898 11.2715 126.43 11.0371C126.225 11.1543 125.99 11.2129 125.727 11.2129C125.727 11.0371 125.492 10.8613 125.023 10.6855L121.859 11.5645H121.684C119.311 10.8613 117.846 10.5098 117.289 10.5098C116.176 11.0371 115.121 11.7402 114.125 12.6191ZM186.002 4.09375C196.607 4.21094 203.521 4.26953 206.744 4.26953C208.033 4.35742 208.678 4.5918 208.678 4.97266V6.90625C210.553 21.4082 211.49 29.7871 211.49 32.043C211.959 35.4414 212.604 44.0547 213.424 57.8828H213.248L213.424 58.2344C213.541 62.834 213.6 66.291 213.6 68.6055V68.957C213.6 73.5273 212.662 75.8125 210.787 75.8125C209.146 76.3984 206.451 76.8086 202.701 77.043H198.482L189.166 77.9219C184.596 77.6875 182.018 77.5703 181.432 77.5703C180.084 77.5703 178.971 77.6875 178.092 77.9219C176.861 77.6875 174.693 77.5703 171.588 77.5703H165.26C162.33 77.5703 160.865 76.6914 160.865 74.9336C160.514 73.293 160.045 66.4961 159.459 54.543V47.3359C159.078 44.4941 158.785 38.0488 158.58 28C158.814 26.3887 158.99 24.3379 159.107 21.8477C158.99 17.5996 158.932 14.0254 158.932 11.125C158.932 7.96094 159.635 6.37891 161.041 6.37891C164.85 6.14453 167.955 5.85156 170.357 5.5L172.643 5.85156C172.643 5.58789 175.396 5.17773 180.904 4.62109C181.139 4.44531 182.838 4.26953 186.002 4.09375ZM164.557 11.4766C164.557 11.3594 164.498 11.3008 164.381 11.3008V11.4766C164.381 11.7402 164.439 11.9746 164.557 12.1797C164.557 12.3555 164.264 12.707 163.678 13.2344C163.678 13.4687 163.854 13.5859 164.205 13.5859V14.2891C163.736 14.8164 163.502 15.1094 163.502 15.168C163.648 15.168 163.824 15.3438 164.029 15.6953V15.8711C163.678 16.3105 163.502 16.7207 163.502 17.1016L163.854 17.6289L163.502 18.1562V18.6836C163.766 19.0937 164.117 19.8555 164.557 20.9688C166.549 22.7266 167.545 24.6016 167.545 26.5938L166.842 30.6367C167.311 31.6621 167.721 33.5957 168.072 36.4375C168.072 36.9941 168.014 38.3418 167.896 40.4805C168.014 41.9746 168.072 42.8535 168.072 43.1172C167.838 44.0254 167.721 44.8457 167.721 45.5781V46.1055C167.721 46.5742 167.955 47.8633 168.424 49.9727L167.896 52.9609C167.896 53.3711 167.955 54.3672 168.072 55.9492C167.193 59.582 166.256 61.3984 165.26 61.3984C164.527 62.8047 164.117 63.5078 164.029 63.5078L164.205 64.3867V64.9141L163.854 65.4414C163.854 65.6172 164.029 65.793 164.381 65.9688C164.264 66.1738 164.146 66.7012 164.029 67.5508C164.264 67.6094 164.381 67.7266 164.381 67.9023C164.381 68.0195 164.322 68.0781 164.205 68.0781L164.381 68.4297L164.029 69.1328L164.557 69.4844C164.322 70.3633 164.205 70.8906 164.205 71.0664C164.439 71.125 164.557 71.2422 164.557 71.418C164.557 71.9453 164.439 72.4141 164.205 72.8242C164.381 72.8242 164.615 73.5273 164.908 74.9336C165.377 74.9336 165.963 75.0508 166.666 75.2852L167.018 75.1094L167.721 75.2852C169.713 73.8789 171.236 73.1758 172.291 73.1758C172.906 73.1758 174.371 73.8203 176.686 75.1094C176.803 75.1094 176.979 75.168 177.213 75.2852C177.447 75.2852 180.26 74.0547 185.65 71.5938H187.408C188.463 71.5938 189.459 71.7109 190.396 71.9453C190.777 71.7109 191.129 71.5938 191.451 71.5938C191.51 71.5938 191.744 71.6523 192.154 71.7695C192.154 71.7109 192.447 71.418 193.033 70.8906L193.385 71.0664H193.736C194.234 70.5977 194.527 70.3633 194.615 70.3633H194.791C195.113 70.3633 195.465 70.4805 195.846 70.7148C195.992 69.8945 196.168 69.4844 196.373 69.4844C196.754 69.7188 197.105 69.8359 197.428 69.8359C197.545 68.7812 198.014 68.2539 198.834 68.2539C198.834 67.7266 199.361 67.375 200.416 67.1992C200.416 66.7305 200.65 66.4961 201.119 66.4961L201.998 66.6719C201.998 66.5547 202.057 66.4961 202.174 66.4961L201.998 66.1445V65.793C202.643 65.2949 203.229 64.5918 203.756 63.6836C204.752 61.9258 205.338 61.0469 205.514 61.0469C205.396 60.8418 205.338 60.666 205.338 60.5195C205.338 60.2852 205.689 59.9336 206.393 59.4648L206.217 59.1133V58.7617C206.217 58.6445 206.51 58.3516 207.096 57.8828C206.979 57.4727 206.92 57.2383 206.92 57.1797C206.92 57.0332 207.154 56.623 207.623 55.9492L207.447 55.5977C208.736 52.082 209.381 49.9141 209.381 49.0938C209.264 48.6543 209.205 48.2441 209.205 47.8633L210.436 43.4688L210.26 43.1172C210.26 43 210.318 42.9414 210.436 42.9414C210.318 42.1504 210.26 41.5059 210.26 41.0078C210.26 40.0117 210.377 39.1914 210.611 38.5469C210.611 38.166 210.143 36.8184 209.205 34.5039C209.322 33.4785 209.381 32.834 209.381 32.5703C209.381 32.1895 208.561 30.9004 206.92 28.7031C206.92 27.7363 205.807 25.041 203.58 20.6172C199.537 16.9844 196.842 15.168 195.494 15.168C192.213 13.7617 189.342 13.0586 186.881 13.0586C186.881 12.8828 186.295 12.6484 185.123 12.3555C184.127 12.4727 183.307 12.5312 182.662 12.5312C181.227 11.8281 178.531 11.2422 174.576 10.7734C168.482 11.0078 165.143 11.2422 164.557 11.4766ZM180.201 16.0469H180.553C180.67 16.0469 180.729 16.1055 180.729 16.2227L181.08 16.0469C183.395 17.4531 184.859 18.1562 185.475 18.1562H185.826C187.408 17.8047 188.346 17.6289 188.639 17.6289C189.4 17.6289 190.982 18.332 193.385 19.7383C194.557 19.7383 195.67 21.0273 196.725 23.6055C198.6 25.1875 199.537 26.5352 199.537 27.6484C199.537 27.7363 199.479 28.498 199.361 29.9336L202.525 36.6133C202.643 37.082 202.701 37.5508 202.701 38.0195C202.232 39.2793 201.998 40.1582 201.998 40.6562C202.35 41.0078 202.643 42.8242 202.877 46.1055C202.877 46.457 201.939 48.7422 200.064 52.9609C200.064 55.7441 198.834 57.9121 196.373 59.4648C194.527 61.8086 193.18 62.9805 192.33 62.9805C192.066 62.9805 190.543 63.8594 187.76 65.6172C187.203 65.8223 186.559 65.998 185.826 66.1445C184.771 65.998 184.244 65.8223 184.244 65.6172L183.893 65.793C183.6 65.5586 183.424 65.4414 183.365 65.4414H182.838L182.486 65.6172C182.457 65.4707 182.164 65.2363 181.607 64.9141L180.553 65.0898C179.557 64.6504 178.619 63.2441 177.74 60.8711C177.389 60.8711 177.037 60.0508 176.686 58.4102C176.686 58.2051 176.803 57.9121 177.037 57.5312C176.92 57.3262 176.861 57.1504 176.861 57.0039C177.096 56.2422 177.213 55.7148 177.213 55.4219C176.979 55.4219 176.861 55.3047 176.861 55.0703C176.861 54.9824 177.096 54.6309 177.564 54.0156C177.359 54.0156 177.125 53.7812 176.861 53.3125V53.1367L177.213 52.6094V52.082C176.979 51.7891 176.861 51.6133 176.861 51.5547V51.2031L177.213 50.6758V50.3242C176.979 50.0605 176.861 49.8262 176.861 49.6211C176.861 48.9473 176.744 47.541 176.51 45.4023L176.861 44.6992C176.744 44.4941 176.686 44.2598 176.686 43.9961L177.213 43.1172C177.008 42.8828 176.832 42.0625 176.686 40.6562C176.334 40.6562 176.1 38.957 175.982 35.5586C175.689 35.5586 175.514 34.6797 175.455 32.9219V32.7461C175.455 32.4238 175.689 31.6035 176.158 30.2852V30.1094C175.455 28.6152 175.104 27.4434 175.104 26.5938C175.104 26.5352 175.396 25.7148 175.982 24.1328C175.982 23.4883 175.924 22.668 175.807 21.6719L175.982 21.3203L175.807 20.4414C175.807 20.2656 175.924 19.9141 176.158 19.3867C176.041 19.1816 175.982 18.9473 175.982 18.6836V18.5078L177.389 17.2773C177.389 16.7793 177.857 16.4277 178.795 16.2227C179 16.3398 179.176 16.3984 179.322 16.3984V16.2227L179.674 16.3984C179.732 16.3984 179.908 16.2812 180.201 16.0469ZM176.51 16.75L176.686 17.1016L176.334 17.2773L176.158 16.9258L176.51 16.75ZM212.615 3.87402C224.627 4.22559 232.01 4.40137 234.764 4.40137H235.994L261.482 6.33496H266.756C267.225 6.45215 267.459 7.03809 267.459 8.09277C267.459 11.9307 267.4 14.0986 267.283 14.5967C267.4 18.376 267.459 21.7158 267.459 24.6162V36.5693C267.459 45.4463 266.639 59.333 264.998 78.2295C264.998 78.9326 263.65 79.2842 260.955 79.2842H257.264C253.396 79.6357 248.299 79.8115 241.971 79.8115C231.805 79.46 224.07 78.7568 218.768 77.7021C213.963 76.5889 211.561 75.7686 211.561 75.2412L210.506 70.8467C210.389 63.0537 210.33 56.8428 210.33 52.2139V43.6006C210.564 37.7705 210.682 34.4893 210.682 33.7568V33.0537C211.736 16.3545 212.146 7.7998 211.912 7.38965V5.45605C211.912 4.54785 212.146 4.02051 212.615 3.87402ZM231.775 8.97168C229.695 8.62012 228.406 8.44434 227.908 8.44434H227.557C222.049 9.44043 219.295 10.3193 219.295 11.0811C219.061 12.1943 218.943 12.8975 218.943 13.1904C218.943 15.1826 220.115 16.1787 222.459 16.1787C223.748 17.4678 224.686 18.1123 225.271 18.1123C226.268 18.1123 227.205 17.9951 228.084 17.7607C232.537 18.083 234.764 18.8447 234.764 20.0459C234.998 20.0459 235.115 20.3975 235.115 21.1006C234.881 22.1553 234.764 22.917 234.764 23.3857V23.5615C235.818 25.7295 236.346 26.9014 236.346 27.0771C237.518 30.2705 238.104 32.0869 238.104 32.5264C237.4 35.5146 237.049 37.2139 237.049 37.624L237.752 40.085C237.312 41.3154 236.961 44.3623 236.697 49.2256V50.1045L238.807 55.2021V55.7295C238.807 56.2568 237.811 57.4873 235.818 59.4209C235.818 60.2705 234.061 61.0322 230.545 61.7061C230.105 61.7061 229.285 61.2373 228.084 60.2998C227.908 60.1826 227.615 60.124 227.205 60.124C226.004 61.4131 224.129 62.0576 221.58 62.0576C221.375 61.9404 221.141 61.8818 220.877 61.8818C220.32 62.2627 219.734 62.5557 219.119 62.7607C219.119 63.3174 218.533 64.0791 217.361 65.0459C217.361 65.251 216.893 66.0713 215.955 67.5068V67.8584L216.131 68.21C216.014 68.415 215.955 68.5908 215.955 68.7373C216.102 68.7373 216.688 69.499 217.713 71.0225L217.537 71.374V71.5498L217.889 71.374C218.768 72.6631 219.939 73.3076 221.404 73.3076L227.205 74.3623C227.615 74.3623 228.787 73.8936 230.721 72.9561L233.709 72.6045C234.148 72.6045 235.555 73.0732 237.928 74.0107H238.455C240.916 73.3076 242.439 72.9561 243.025 72.9561H244.432C244.754 72.9561 246.336 73.0732 249.178 73.3076C249.998 73.0732 252.576 72.8975 256.912 72.7803C257.762 72.8975 258.465 72.9561 259.021 72.9561C260.691 72.3115 262.156 70.6123 263.416 67.8584C262.713 64.8115 261.189 63.2881 258.846 63.2881L257.967 63.4639C257.264 63.4639 256.268 62.6436 254.979 61.0029C254.773 60.8857 254.539 60.8271 254.275 60.8271C253.309 61.4131 252.664 61.7061 252.342 61.7061C251.961 61.7061 251.551 60.8271 251.111 59.0693C250.174 58.6299 249.119 57.2822 247.947 55.0264C247.508 55.0264 247.039 54.0889 246.541 52.2139C246.541 52.126 246.6 51.7744 246.717 51.1592C246.717 48.2588 246.6 44.0986 246.365 38.6787C246.6 37.3896 246.717 36.042 246.717 34.6357V34.2842C246.482 29.5088 246.189 26.5791 245.838 25.4951C246.307 20.3389 247.361 17.7607 249.002 17.7607H250.408C251.609 17.7607 253.074 17.7021 254.803 17.585C256.062 17.9365 257 18.1123 257.615 18.1123C258.787 18.1123 260.369 16.6475 262.361 13.7178L262.537 12.6631V12.4873C262.537 11.0225 260.896 9.85059 257.615 8.97168C256.824 8.97168 255.945 9.14746 254.979 9.49902C253.777 9.38184 252.84 9.32324 252.166 9.32324C251.668 9.32324 250.613 9.44043 249.002 9.6748C248.445 9.6748 246.102 9.03027 241.971 7.74121C241.824 7.62402 241.414 7.56543 240.74 7.56543H240.564C235.643 8.50293 232.889 8.97168 232.303 8.97168H231.775ZM302.949 0.446289H303.652C307.402 0.446289 312.734 0.797852 319.648 1.50098H321.055C321.377 1.50098 321.611 1.96973 321.758 2.90723C321.875 16.4131 321.934 26.8428 321.934 34.1963V35.0752L322.637 47.3799V51.9502C322.402 58.9814 322.285 62.9072 322.285 63.7275V70.4072C322.285 75.0947 321.699 77.4385 320.527 77.4385C320.146 77.4385 317.92 78.083 313.848 79.3721C312.119 79.8408 310.537 80.0752 309.102 80.0752C301.777 80.0752 296.035 80.3682 291.875 80.9541C279.453 80.4854 273.242 79.958 273.242 79.3721C268.965 78.5518 266.738 78.1416 266.562 78.1416C265.977 78.1416 265.508 72.9268 265.156 62.4971C264.688 59.8896 264.453 56.3154 264.453 51.7744V51.4229C264.688 47.9658 264.805 46.0908 264.805 45.7979V19.4307C265.391 11.0811 265.684 6.33496 265.684 5.19238C265.449 5.19238 265.332 5.0752 265.332 4.84082V3.96191L265.156 2.2041C266.006 1.50098 267.705 1.14941 270.254 1.14941H272.363C276.055 1.50098 278.34 1.67676 279.219 1.67676H283.965L302.949 0.446289ZM269.727 35.0752L269.902 35.9541L268.672 41.0518C268.672 41.4619 268.906 42.458 269.375 44.04C269.258 44.8311 269.199 45.4756 269.199 45.9736V47.0283C270.43 55.583 271.777 59.8604 273.242 59.8604C274.062 60.5928 275.234 62.2334 276.758 64.7822C278.428 66.7451 279.775 68.2686 280.801 69.3525C281.182 71.1104 282.119 71.9893 283.613 71.9893C286.016 71.9893 288.008 72.6338 289.59 73.9229L290.645 74.0986C291.025 74.0986 292.314 73.9229 294.512 73.5713H294.688C295.713 73.9229 296.299 74.0986 296.445 74.0986H296.973C298.525 73.3955 300.4 72.9268 302.598 72.6924C303.77 71.6963 305.352 70.9346 307.344 70.4072C307.812 69.9385 308.516 68.708 309.453 66.7158C309.893 66.6572 310.771 65.251 312.09 62.4971C313.555 61.2959 314.785 58.4248 315.781 53.8838C316.953 53.0928 317.539 50.9834 317.539 47.5557C317.539 45.3291 317.656 43.8643 317.891 43.1611L317.715 40.7002C317.832 38.5322 317.891 37.1846 317.891 36.6572C316.602 31.0029 315.078 25.5537 313.32 20.3096C311.65 17.292 309.775 15.2998 307.695 14.333C305.41 12.0771 302.422 10.3779 298.73 9.23535C293.193 9.23535 288.33 10.0557 284.141 11.6963C283.496 11.6963 282.734 12.5752 281.855 14.333C279.395 15.0361 278.164 15.915 278.164 16.9697C276.611 19.8115 275.146 21.6279 273.77 22.4189C273.066 26.6377 271.953 29.9775 270.43 32.4385C269.961 33.7861 269.727 34.665 269.727 35.0752ZM291.523 18.7275C293.164 18.9619 294.336 19.0791 295.039 19.0791C295.186 19.0791 295.771 19.0205 296.797 18.9033C298.35 19.8408 300.107 20.3096 302.07 20.3096C302.539 20.3096 303.008 21.6572 303.477 24.3525L306.816 26.6377C307.344 27.6338 308.047 29.8604 308.926 33.3174V34.8994C308.926 35.0166 308.867 35.0752 308.75 35.0752C308.75 35.1924 308.809 35.251 308.926 35.251C308.809 37.3604 308.633 38.415 308.398 38.415C308.398 38.5322 308.457 38.5908 308.574 38.5908C308.486 39.6455 308.369 40.1729 308.223 40.1729C308.691 41.2568 308.926 42.3701 308.926 43.5127C308.926 44.2744 307.812 46.7939 305.586 51.0713C305.703 51.2764 305.762 51.4521 305.762 51.5986C305.703 52.7119 305 54.7041 303.652 57.5752C302.451 59.4502 301.455 60.3877 300.664 60.3877H300.137C300.137 60.8564 299.141 61.2666 297.148 61.6182L296.797 61.4424C296.797 61.6768 296.68 61.7939 296.445 61.7939C296.445 61.6182 296.27 61.4424 295.918 61.2666L295.039 61.4424C295.039 61.2373 294.805 61.0029 294.336 60.7393C294.336 60.9736 294.219 61.0908 293.984 61.0908V60.915L293.633 61.0908H293.281L291.172 60.5635C291.172 60.7979 291.113 60.915 290.996 60.915L289.766 60.0361C289.531 60.1533 289.355 60.2119 289.238 60.2119C285.254 55.7588 283.262 52.7119 283.262 51.0713C283.262 50.0752 282.852 46.208 282.031 39.4697C282.031 39.0303 281.973 38.5029 281.855 37.8877C282.324 35.0752 282.559 33.4932 282.559 33.1416C282.441 32.9365 282.383 32.7021 282.383 32.4385C282.383 32.3213 282.441 31.8525 282.559 31.0322L282.383 30.6807C282.617 30.0654 282.734 29.5967 282.734 29.2744C282.617 29.04 282.559 28.8643 282.559 28.7471C282.91 28.1904 283.145 27.4873 283.262 26.6377C283.789 26.6377 284.141 26.4033 284.316 25.9346C284.141 25.9346 283.965 25.7588 283.789 25.4072V25.2314H283.965C284.316 25.2314 284.492 25.4658 284.492 25.9346H284.668C285.371 25.6416 286.074 24.5869 286.777 22.7705C287.979 20.0752 289.561 18.7275 291.523 18.7275ZM285.371 23.8252L285.547 24.1768V24.3525H285.371C285.137 24.3525 285.02 24.2354 285.02 24.001L285.371 23.8252Z" fill="white"/>
</svg>
