<svg width="387" height="80" viewBox="0 0 387 80" fill="none" xmlns="http://www.w3.org/2000/svg">
<path d="M2.46777 0.786133H2.99512C5.83691 1.02051 7.41895 1.1377 7.74121 1.1377H12.1357C12.5752 1.1377 14.04 1.25488 16.5303 1.48926C28.2197 1.48926 39.5283 2.25098 50.4561 3.77441C52.917 4.59473 55.9053 5.00488 59.4209 5.00488C60.0068 5.12207 60.2998 5.35645 60.2998 5.70801C60.5342 8.93066 60.6514 10.8643 60.6514 11.5088V28.7354C59.9482 46.958 58.7178 61.3721 56.96 71.9775C56.3447 74.6729 55.6416 76.0205 54.8506 76.0205L45.0068 74.9658H42.3701C40.5244 74.9658 35.9541 75.376 28.6592 76.1963H23.3857C14.0986 74.5557 8.23926 73.7354 5.80762 73.7354H1.94043C1.00293 73.1494 0.475586 70.4541 0.358398 65.6494V43.8525C0.944336 36.5283 1.64746 26.3916 2.46777 13.4424V13.0908C2.2334 9.63379 2.11621 7.75879 2.11621 7.46582V5.70801L1.76465 5.88379H1.58887V2.54395C1.58887 1.63574 1.88184 1.0498 2.46777 0.786133ZM5.45605 16.4307C5.45605 17.8662 5.80762 19.8584 6.51074 22.4072V23.2861C5.69043 24.9854 5.28027 26.1572 5.28027 26.8018C5.28027 27.0068 5.57324 28.3545 6.15918 30.8447C6.04199 31.46 5.9834 31.8115 5.9834 31.8994C7.00879 34.9463 8.70801 36.4697 11.0811 36.4697C12.5166 36.4697 13.6885 35.0049 14.5967 32.0752L14.4209 31.3721L14.5967 30.1416L14.2451 29.4385L14.4209 28.3838C14.1865 28.0908 14.0693 27.915 14.0693 27.8564C14.1572 27.1533 14.2744 26.8018 14.4209 26.8018C14.0693 26.2451 13.8936 25.8936 13.8936 25.7471L14.4209 24.6924C13.9521 24.6924 13.7178 24.458 13.7178 23.9893L14.2451 23.1104L13.7178 22.4072V22.2314C14.4209 21.5869 14.7725 21.1182 14.7725 20.8252C14.6553 20.5908 14.5967 20.415 14.5967 20.2979C14.8604 20.0635 15.0947 19.9463 15.2998 19.9463V19.2432C15.2998 19.126 15.417 18.6572 15.6514 17.8369H15.8271L16.1787 18.0127C16.1787 17.3682 16.3545 16.8994 16.7061 16.6064C16.5303 16.6064 16.3545 16.4307 16.1787 16.0791L16.5303 15.9033L17.0576 16.6064C17.2041 16.6064 17.5557 16.2549 18.1123 15.5518C18.376 15.7275 19.3135 15.9619 20.9248 16.2549C20.9541 16.4893 21.0713 16.6064 21.2764 16.6064H21.8037C22.0674 16.6064 22.3018 16.5479 22.5068 16.4307C23.9131 16.7822 24.8506 17.4268 25.3193 18.3643C26.4912 21.8799 27.0771 24.1064 27.0771 25.0439C27.0771 25.1025 26.96 26.04 26.7256 27.8564C26.7256 28.208 26.7842 29.3213 26.9014 31.1963C26.4326 33.6865 25.9053 35.9717 25.3193 38.0518L25.8467 40.5127C25.3779 42.6221 25.085 43.6768 24.9678 43.6768C25.085 43.8818 25.1436 44.0576 25.1436 44.2041L24.9678 44.5557C26.1396 46.1084 26.7256 49.5654 26.7256 54.9268C25.8467 58.9111 24.9678 60.9033 24.0889 60.9033H22.8584C21.54 60.6396 20.6025 60.2295 20.0459 59.6729H19.8701V60.0244H19.3428C19.1084 60.0244 18.9912 59.8486 18.9912 59.4971L18.6396 59.6729C17.4678 59.4385 16.6475 59.2041 16.1787 58.9697C16.0029 59.6729 15.8271 60.0244 15.6514 60.0244L15.2998 59.8486C14.6846 60.2881 14.2158 60.8154 13.8936 61.4307H13.0146L13.1904 61.7822C12.8389 62.251 12.6631 62.7783 12.6631 63.3643L12.3115 63.1885H12.1357V63.3643H12.4873V63.7158C12.1357 63.7158 11.8428 63.9502 11.6084 64.4189V64.9463L11.96 65.4736C11.96 65.6201 11.7842 65.7959 11.4326 66.001H11.2568L10.9053 65.8252V66.3525C11.374 66.3525 12.0186 67.29 12.8389 69.165C13.4248 69.165 13.8936 69.458 14.2451 70.0439C14.1279 70.0439 14.0693 70.1025 14.0693 70.2197C14.7432 70.2197 15.7393 70.5127 17.0576 71.0986L18.6396 70.7471C18.6689 70.9814 18.7861 71.0986 18.9912 71.0986H19.167C19.167 70.7471 19.2842 70.5713 19.5186 70.5713C19.7236 70.6885 19.8994 70.7471 20.0459 70.7471C20.0752 70.5127 20.1924 70.3955 20.3975 70.3955C20.4268 70.6299 20.5439 70.7471 20.749 70.7471C21.1592 70.3955 21.8623 70.2197 22.8584 70.2197V69.8682L23.7373 70.0439L23.9131 69.6924C24.1182 69.8096 24.2939 69.8682 24.4404 69.8682C24.792 69.8682 25.2607 69.751 25.8467 69.5166C26.4912 69.6338 26.96 69.6924 27.2529 69.6924C27.3994 69.6924 27.9854 69.6338 29.0107 69.5166V69.6924L29.3623 69.5166H29.5381L29.8896 69.6924L30.0654 69.3408L30.9443 69.5166L31.2959 69.3408L31.6475 69.5166L31.999 69.3408C32.0576 69.3408 32.292 69.3994 32.7021 69.5166C32.8193 69.5166 32.8779 69.458 32.8779 69.3408L33.7568 69.5166H36.5693C36.6865 69.5166 36.7451 69.5752 36.7451 69.6924L37.0967 69.5166H39.7334C39.9971 69.5166 40.2314 69.5752 40.4365 69.6924C40.6416 69.5752 40.8174 69.5166 40.9639 69.5166L41.3154 69.6924C41.4326 69.6924 41.4912 69.6338 41.4912 69.5166C42.5752 69.6631 43.2783 69.8389 43.6006 70.0439C43.7178 70.0439 43.7764 69.9854 43.7764 69.8682C44.9482 69.9854 45.5342 70.1611 45.5342 70.3955L46.4131 70.2197H47.292C47.4092 70.2197 47.4678 70.2783 47.4678 70.3955C49.1084 70.1318 49.9287 69.6045 49.9287 68.8135V68.6377H50.1045C50.2217 68.6377 50.2803 68.6963 50.2803 68.8135C50.6318 68.7256 50.9248 68.374 51.1592 67.7588C50.8076 67.7588 50.6318 67.6416 50.6318 67.4072C51.0127 67.1729 51.3057 67.0557 51.5107 67.0557V66.8799C51.5107 63.9795 49.9287 61.9287 46.7646 60.7275C45.71 60.376 45.1826 60.083 45.1826 59.8486C44.9482 59.9658 44.7725 60.0244 44.6553 60.0244C43.9229 59.4385 42.8682 59.1455 41.4912 59.1455C41.1396 59.3799 40.4951 59.5557 39.5576 59.6729C37.126 59.6729 35.7197 58.6182 35.3389 56.5088V56.333C35.5146 55.1904 35.8076 51.0889 36.2178 44.0283C36.2178 43.1494 35.749 41.0986 34.8115 37.876V34.3604C34.8115 33.3057 35.2217 30.7861 36.042 26.8018C35.6904 25.4834 35.5146 24.6631 35.5146 24.3408C35.5146 23.9893 36.042 22.9346 37.0967 21.1768V18.8916C37.0967 18.7744 37.1553 18.7158 37.2725 18.7158L37.0967 18.3643V18.1885C37.0967 17.5146 37.6826 16.9873 38.8545 16.6064C38.9424 16.0205 40.5244 15.6689 43.6006 15.5518C45.0068 15.5518 45.71 18.7158 45.71 25.0439C45.8271 25.0439 46.1201 25.4541 46.5889 26.2744C46.5889 26.3916 46.5303 26.4502 46.4131 26.4502C46.7646 27.3877 46.9404 27.915 46.9404 28.0322C46.8232 28.6475 46.7646 28.999 46.7646 29.0869C46.999 29.4678 47.1162 29.8193 47.1162 30.1416L46.7646 30.8447C46.999 31.3135 47.1162 31.7236 47.1162 32.0752C46.999 32.2803 46.9404 32.5146 46.9404 32.7783C47.2334 32.7783 47.4678 33.3057 47.6436 34.3604C48.874 36.001 49.5771 36.8213 49.7529 36.8213L51.6865 38.4033C51.9209 38.4033 52.0381 38.2861 52.0381 38.0518C52.9463 38.4033 53.5322 38.5791 53.7959 38.5791H54.3232L54.6748 36.1182C54.5576 35.8838 54.499 35.708 54.499 35.5908C54.5869 34.8877 54.7041 34.5361 54.8506 34.5361L54.6748 34.1846C54.6748 33.4814 54.9092 32.0166 55.3779 29.79C55.2607 28.999 55.2021 28.2373 55.2021 27.5049C55.2021 27.2705 55.4951 26.0986 56.0811 23.9893C56.0811 23.0811 55.9053 21.9678 55.5537 20.6494C55.6709 19.8291 55.7295 19.1846 55.7295 18.7158V18.1885L54.3232 13.9697C54.1182 10.9229 53.415 9.39941 52.2139 9.39941C49.5771 8.11035 47.292 7.46582 45.3584 7.46582H45.0068C43.8936 7.46582 42.1943 7.58301 39.9092 7.81738C38.2686 7.58301 35.6904 7.40723 32.1748 7.29004C31.9697 7.29004 31.2666 7.34863 30.0654 7.46582C29.333 7.46582 26.5205 7.29004 21.6279 6.93848C20.1924 7.40723 19.2549 7.6416 18.8154 7.6416C18.3467 7.6416 16.2959 7.40723 12.6631 6.93848C11.1104 7.20215 9.05957 8.5498 6.51074 10.9814C6.27637 11.6553 5.9248 13.4717 5.45605 16.4307ZM14.9482 16.958H15.124V17.3096H14.9482V16.958ZM14.0693 20.2979L14.2451 20.6494L13.8936 20.8252L13.7178 20.4736L14.0693 20.2979ZM11.4326 63.3643V63.7158H11.7842V63.3643H11.4326ZM65.4678 3.37891C66.7861 3.61328 67.7236 3.73047 68.2803 3.73047H70.3896C72.2939 3.73047 73.7002 3.78906 74.6084 3.90625C75.5166 3.78906 76.9229 3.73047 78.8271 3.73047H81.1123C81.4932 3.73047 83.5439 4.14062 87.2646 4.96094C93.3877 4.60938 97.665 4.31641 100.097 4.08203C103.524 4.08203 109.267 5.13672 117.323 7.24609C119.315 7.24609 120.312 7.89063 120.312 9.17969C120.429 9.20898 120.487 9.79492 120.487 10.9375V16.7383C120.487 22.1289 120.956 31.6211 121.894 45.2148C121.776 48.8477 121.718 52.3047 121.718 55.5859V59.2773C121.396 67.7148 120.985 71.9336 120.487 71.9336L119.257 72.1094H115.917C100.653 72.4609 92.0986 72.9297 90.2529 73.5156C88.1729 73.75 86.8838 73.8672 86.3857 73.8672H85.3311C85.0674 73.8672 84.833 73.9258 84.6279 74.043C81.6982 73.457 77.1865 73.1641 71.0928 73.1641C67.665 72.5781 64.208 71.875 60.7217 71.0547C58.4951 70.8203 57.3818 70.4688 57.3818 70V67.8906C57.3818 66.5137 57.7334 65.6348 58.4365 65.2539H58.6123V66.3086H58.7881V65.2539H58.6123C58.876 65.2539 59.0518 60.6836 59.1396 51.543C59.374 50.1367 59.4912 49.0234 59.4912 48.2031V46.2695C59.4912 43.5742 59.96 40.0586 60.8975 35.7227C61.4834 31.2109 61.7764 28.0469 61.7764 26.2305C62.0107 26.2305 62.4795 23.3008 63.1826 17.4414V10.7617C63.6807 5.83984 64.4424 3.37891 65.4678 3.37891ZM83.9248 13.5742C84.042 13.75 84.1006 14.1016 84.1006 14.6289L84.4521 14.4531H84.8037V14.6289C84.8037 14.6875 84.6865 14.8633 84.4521 15.1562C84.5693 15.3613 84.6279 15.5957 84.6279 15.8594C84.2764 15.8594 84.1006 16.1523 84.1006 16.7383C84.2178 16.9727 84.2764 17.1484 84.2764 17.2656C84.042 17.2949 83.9248 17.4121 83.9248 17.6172C84.1592 17.6465 84.2764 17.7637 84.2764 17.9688C83.4561 19.2285 82.9287 19.873 82.6943 19.9023H81.8154V20.0781L81.9912 20.957C81.874 20.957 81.8154 21.0156 81.8154 21.1328H81.9912C82.0498 21.1328 82.2256 21.0156 82.5186 20.7812H82.6943C82.6943 21.1914 82.0498 21.6602 80.7607 22.1875C80.7607 22.0117 80.5264 21.8359 80.0576 21.6602L79.7061 21.8359C79.4717 21.7188 79.2959 21.6602 79.1787 21.6602L79.0029 22.0117V22.1875L79.3545 22.0117H79.5303C79.5303 22.1875 79.7646 22.4219 80.2334 22.7148V22.8906H79.5303V23.2422C79.9111 23.2422 80.4385 23.5352 81.1123 24.1211H81.2881V24.6484C81.2881 24.7656 81.2295 24.8242 81.1123 24.8242C81.3467 25.293 81.4639 25.7031 81.4639 26.0547C81.4639 26.2891 81.3467 26.6992 81.1123 27.2852L81.2881 27.6367C80.9951 28.7793 80.5264 29.7754 79.8818 30.625L80.0576 30.9766C79.6182 32.1777 79.1494 32.8809 78.6514 33.0859C78.6514 33.2031 78.5928 33.3789 78.4756 33.6133C78.5928 33.8477 78.6514 34.0234 78.6514 34.1406L78.4756 35.0195H78.124V34.668H77.7725V35.3711L76.8936 35.1953L76.542 35.3711C76.0732 35.1367 75.6631 35.0195 75.3115 35.0195V35.1953C75.6631 35.5762 75.8389 36.2207 75.8389 37.1289H75.6631V37.3047H75.8389C76.0732 37.1875 76.249 37.1289 76.3662 37.1289L76.542 37.4805C76.3369 37.4805 75.8096 37.7734 74.96 38.3594L74.6084 38.1836C74.374 38.3008 74.1982 38.3594 74.0811 38.3594L74.4326 38.8867C74.3154 39.0918 74.2568 39.3262 74.2568 39.5898C74.4326 39.5898 74.6084 39.7656 74.7842 40.1172L74.6084 40.4688H75.1357V40.8203C74.6963 40.8203 74.3447 41.0547 74.0811 41.5234L72.8506 41.3477V41.5234L73.2021 42.0508C73.085 42.2852 73.0264 42.4609 73.0264 42.5781L73.5537 43.457H73.3779L73.5537 43.8086V44.3359H73.7295V44.6875C73.3779 44.6875 72.9678 44.7461 72.499 44.8633C72.499 44.6289 72.3818 44.5117 72.1475 44.5117C71.9131 44.541 71.7959 44.6582 71.7959 44.8633C72.0303 44.8926 72.1475 45.0098 72.1475 45.2148C72.0303 45.4199 71.9717 45.6543 71.9717 45.918C72.2646 46.3867 72.5576 46.6211 72.8506 46.6211V47.1484H72.1475V47.5H72.6748V48.0273C72.5576 48.0273 72.3818 47.9688 72.1475 47.8516L71.2686 48.0273C71.0635 47.9102 70.8291 47.8516 70.5654 47.8516V48.0273L70.7412 48.3789L70.3896 48.5547C70.5361 49.1406 70.7119 49.4336 70.917 49.4336L70.7412 50.3125V50.4883L70.917 50.8398L69.6865 51.0156H69.335L69.5107 51.8945C69.2764 51.9238 69.1592 52.041 69.1592 52.2461C69.335 52.2461 69.5107 52.4219 69.6865 52.7734C69.4521 52.8027 69.335 52.9199 69.335 53.125V54.0039C68.8662 54.1211 68.3975 54.1797 67.9287 54.1797L68.1045 54.5312C68.1045 54.7656 67.9287 54.8828 67.5771 54.8828C67.5771 55 67.8115 55.3516 68.2803 55.9375L67.9287 56.1133V55.7617H67.7529C67.7529 55.9961 67.8701 56.4648 68.1045 57.168L66.874 57.3438L66.5225 57.168V57.3438C66.6396 57.5781 66.6982 57.7539 66.6982 57.8711C66.5811 58.1055 66.5225 58.2812 66.5225 58.3984C66.6689 58.3984 66.9619 58.75 67.4014 59.4531C67.2256 59.4531 67.0498 59.6289 66.874 59.9805C67.1084 60.0098 67.2256 60.127 67.2256 60.332L65.292 61.9141C65.4092 61.9141 65.4678 61.9727 65.4678 62.0898C64.7939 62.2949 64.2666 62.6465 63.8857 63.1445C64.0029 63.1445 64.0615 63.2031 64.0615 63.3203C63.9443 63.3203 63.8857 63.3789 63.8857 63.4961L63.5342 63.3203H63.0068C63.0068 63.6719 62.8311 63.8477 62.4795 63.8477V64.0234C62.4795 64.082 62.5967 64.2578 62.8311 64.5508C62.8311 65.6055 62.5967 66.1328 62.1279 66.1328C62.1279 66.9238 62.5967 67.5098 63.5342 67.8906C63.5342 67.8027 63.6514 67.5684 63.8857 67.1875H64.2373C64.7646 67.7734 65.6436 68.3594 66.874 68.9453L67.0498 68.5938V68.418L66.6982 68.5938H66.5225V68.418C66.5518 68.1836 66.6689 68.0664 66.874 68.0664C67.167 68.0664 67.5186 68.418 67.9287 69.1211C68.0459 69.1211 68.1045 69.0625 68.1045 68.9453C68.4854 68.9453 69.3057 69.2383 70.5654 69.8242C70.624 69.8242 70.8584 69.8828 71.2686 70V69.8242L71.0928 69.4727H71.7959V69.8242C72.0889 69.5898 72.3232 69.4727 72.499 69.4727L72.3232 69.1211H72.499C72.8506 69.2383 73.0264 69.3555 73.0264 69.4727L73.3779 69.2969C73.4951 69.2969 73.5537 69.3555 73.5537 69.4727C74.5498 69.1211 75.2529 68.9453 75.6631 68.9453H76.0146C76.3076 68.9453 77.0107 69.1211 78.124 69.4727L79.0029 69.2969C79.0029 69.4141 79.0615 69.4727 79.1787 69.4727L79.3545 69.1211L80.9365 70C81.1709 69.8828 81.3467 69.8242 81.4639 69.8242C81.4932 70.0586 81.6104 70.1758 81.8154 70.1758C81.8154 69.2969 82.7529 68.6523 84.6279 68.2422C84.6279 68.0957 85.0381 67.7441 85.8584 67.1875H86.21C86.3271 67.1875 86.3857 67.2461 86.3857 67.3633L87.4404 66.8359C87.2939 66.6602 87.1768 66.0742 87.0889 65.0781C87.5576 64.1113 87.792 63.584 87.792 63.4961C87.499 63.4961 87.2646 62.8516 87.0889 61.5625V58.5742C87.3232 57.7539 87.8506 57.1094 88.6709 56.6406C89.0518 55.3516 89.4619 54.707 89.9014 54.707C91.6299 53.6523 92.9189 53.125 93.7686 53.125C94.4424 53.125 95.6143 52.9492 97.2842 52.5977C98.1045 52.8906 98.5146 53.5938 98.5146 54.707C98.5146 54.9707 98.4561 55.6152 98.3389 56.6406C98.3389 56.9336 98.6904 57.3438 99.3936 57.8711C99.1592 57.9004 99.042 58.0176 99.042 58.2227C99.2178 58.2227 99.3936 58.457 99.5693 58.9258L99.3936 59.2773L99.7451 60.332V60.8594H100.097V61.0352L99.7451 61.5625V61.7383C100.038 61.7383 100.214 62.0312 100.272 62.6172V63.1445C100.507 63.1445 100.624 63.3789 100.624 63.8477L100.976 63.6719C101.269 63.9062 101.503 64.0234 101.679 64.0234V64.1992C101.21 64.5215 100.976 64.8145 100.976 65.0781C100.507 65.3125 100.155 65.6641 99.9209 66.1328V66.3086C100.624 67.0703 100.976 67.5391 100.976 67.7148H101.503L101.854 67.5391C101.884 67.7734 102.001 67.8906 102.206 67.8906C102.265 67.4219 102.44 67.1875 102.733 67.1875L103.437 67.7148H103.964C104.228 67.7148 104.462 67.6562 104.667 67.5391C104.872 67.6562 105.106 67.7148 105.37 67.7148L106.073 67.1875H106.249C106.571 67.5098 107.157 67.7441 108.007 67.8906L108.71 67.3633H109.237V67.1875H109.589L111.171 68.2422H111.698C111.933 68.2422 112.05 67.9492 112.05 67.3633H112.401V67.7148H112.577C112.577 67.3633 112.694 67.1875 112.929 67.1875H113.28C113.632 67.4219 114.042 67.5977 114.511 67.7148C115.419 67.2461 116.181 67.0117 116.796 67.0117C116.825 67.2461 116.942 67.3633 117.147 67.3633H117.675C117.675 66.7773 117.733 66.4844 117.851 66.4844C117.704 65.6934 117.528 65.166 117.323 64.9023C117.323 64.7852 117.382 64.7266 117.499 64.7266C116.562 61.9434 115.917 60.3027 115.565 59.8047C115.565 59.4824 114.628 58.4863 112.753 56.8164C110.058 51.1328 108.71 47.9688 108.71 47.3242C108.71 44.2773 108.065 41.2305 106.776 38.1836C106.103 37.832 105.458 35.957 104.843 32.5586C102.616 28.1348 101.503 24.9707 101.503 23.0664H101.679C101.474 22.4805 101.005 21.6602 100.272 20.6055C100.507 19.4922 100.624 18.8477 100.624 18.6719C100.36 18.6719 100.185 18.3203 100.097 17.6172C99.9795 17.6172 99.9209 17.5586 99.9209 17.4414C99.9209 17.3242 99.9795 17.2656 100.097 17.2656C100.097 17.002 99.6279 16.0059 98.6904 14.2773C97.1377 9.00391 95.1455 6.36719 92.7139 6.36719C88.4951 8.27148 86.3857 10.1465 86.3857 11.9922C86.21 11.9922 85.7412 12.4023 84.9795 13.2227C84.7744 13.2227 84.4229 13.3398 83.9248 13.5742ZM80.9365 20.957V21.3086H81.1123V20.957H80.9365ZM89.0225 27.8125H89.374C89.5205 27.8125 89.8135 28.1055 90.2529 28.6914V29.2188H89.9014C89.9307 29.4531 90.0479 29.5703 90.2529 29.5703L90.6045 29.3945V29.9219L91.3076 29.3945C91.3076 29.5703 91.4834 29.7461 91.835 29.9219C91.9521 29.7754 92.0107 29.4238 92.0107 28.8672H91.835L92.0107 28.5156C93.0947 28.9844 93.8564 29.3945 94.2959 29.7461L94.999 30.0977L94.8232 30.4492V30.625L95.7021 30.4492C95.8193 30.6836 95.8779 30.8594 95.8779 30.9766H96.2295L96.5811 30.8008V31.5039C97.1963 31.8848 97.8408 33.3496 98.5146 35.8984C98.749 35.9277 98.8662 36.0449 98.8662 36.25L98.6904 36.6016C98.8076 36.8359 98.8662 37.0117 98.8662 37.1289C98.6318 37.2461 98.4561 37.3047 98.3389 37.3047L98.5146 37.6562C98.5146 37.8906 98.3975 38.0078 98.1631 38.0078C98.5146 38.7988 98.6904 39.2676 98.6904 39.4141C98.4561 39.5312 98.2803 39.5898 98.1631 39.5898C98.1631 39.707 98.2217 39.8828 98.3389 40.1172C98.251 40.6152 98.0166 41.2012 97.6357 41.875L97.8115 42.2266C97.46 43.1348 96.9326 43.7793 96.2295 44.1602L95.8779 43.9844C95.5557 44.1895 94.9111 44.4238 93.9443 44.6875C93.8271 44.4531 93.7686 44.2773 93.7686 44.1602H93.0654V44.3359C93.1826 44.5703 93.2412 44.7461 93.2412 44.8633C92.9482 44.6289 92.7725 44.5117 92.7139 44.5117L92.8896 44.1602V43.9844H92.7139L92.3623 44.1602C92.3623 43.8086 91.8936 43.6328 90.9561 43.6328C90.9561 43.8086 90.7803 43.9844 90.4287 44.1602C89.7256 43.3984 89.374 42.8711 89.374 42.5781L89.0225 42.7539H88.8467C88.7295 42.7539 87.9678 41.9922 86.5615 40.4688V40.293C86.7959 40 86.9131 39.8242 86.9131 39.7656C86.6494 39.7656 86.2979 38.8867 85.8584 37.1289H85.6826L85.8584 36.7773V36.6016C85.5361 36.6016 85.3018 36.0742 85.1553 35.0195C85.2725 34.7852 85.3311 34.6094 85.3311 34.4922L84.9795 34.3164C85.4482 31.6211 86.0928 30.2734 86.9131 30.2734C86.9131 29.9219 87.0303 29.7461 87.2646 29.7461L87.6162 29.9219C87.6162 29.7168 87.792 29.4238 88.1436 29.043L89.0225 29.3945C89.0225 29.043 89.2568 28.8672 89.7256 28.8672C89.7256 28.6328 89.6084 28.5156 89.374 28.5156C89.374 28.6328 89.3154 28.6914 89.1982 28.6914L89.0225 28.3398V27.8125ZM92.8896 29.5703H93.0654C93.2998 29.5703 93.417 29.4531 93.417 29.2188H93.2412C93.0068 29.248 92.8896 29.3652 92.8896 29.5703ZM94.1201 29.2188H94.4717V29.5703H94.1201V29.2188ZM93.7686 29.9219V30.2734H93.9443V29.9219H93.7686ZM76.542 32.207H76.8936V31.8555C76.6592 31.8848 76.542 32.002 76.542 32.207ZM73.7295 39.0625V39.4141H73.9053V39.0625H73.7295ZM74.7842 41.1719H74.96V41.5234H74.7842V41.1719ZM90.6045 43.2812V43.6328H90.7803V43.2812H90.6045ZM71.2686 49.9609H71.6201C71.6201 50.1953 71.5029 50.3125 71.2686 50.3125V49.9609ZM68.8076 56.1133V56.4648H68.4561C68.4854 56.2305 68.6025 56.1133 68.8076 56.1133ZM101.151 64.9023H101.503V65.0781H101.151V64.9023ZM107.655 67.0117H107.831V67.3633H107.655V67.0117ZM114.511 67.0117C114.745 67.041 114.862 67.1582 114.862 67.3633H114.511V67.0117ZM126.446 3.24707H130.138C142.325 4.06738 155.567 5.53223 169.864 7.6416C174.2 7.6416 176.368 8.11035 176.368 9.04785C176.603 10.4541 176.72 11.5674 176.72 12.3877V51.9385C176.222 69.3994 175.694 78.1299 175.138 78.1299C173.702 78.833 172.062 79.1846 170.216 79.1846C169.19 78.833 167.608 78.6572 165.47 78.6572H159.669C158.087 78.6572 156.798 78.7744 155.802 79.0088C147.54 78.7744 140.567 78.3057 134.884 77.6025C131.368 76.5479 126.622 76.0205 120.646 76.0205C119.825 75.6982 119.415 75.4639 119.415 75.3174C119.063 65.2393 118.771 57.9736 118.536 53.5205V32.9541C119.356 19.7412 119.767 11.0693 119.767 6.93848V3.77441C119.825 3.54004 119.942 3.42285 120.118 3.42285V3.59863C120.235 3.59863 120.294 3.54004 120.294 3.42285C123.048 3.30566 125.099 3.24707 126.446 3.24707ZM125.919 9.22363V9.5752C126.271 9.5752 126.446 9.75098 126.446 10.1025C126.329 10.3369 126.271 10.5127 126.271 10.6299H125.743C125.479 10.6299 125.245 10.5713 125.04 10.4541H124.864V10.6299H125.216C125.216 11.2451 125.04 11.5967 124.688 11.6846H123.81C123.81 12.7393 123.341 13.2666 122.403 13.2666L122.579 13.6182V13.9697C122.228 14.4092 122.052 14.8193 122.052 15.2002C123.634 17.0459 124.571 18.7451 124.864 20.2979L125.392 20.6494C125.392 20.7373 125.333 21.0889 125.216 21.7041L125.919 28.7354C125.802 30.874 125.743 32.2217 125.743 32.7783C126.065 34.7998 126.358 37.6123 126.622 41.2158V41.3916L125.567 45.6104C125.919 47.3389 126.095 48.6279 126.095 49.4775C125.743 51.5869 125.567 53.0518 125.567 53.8721V54.2236C125.567 55.5713 125.743 57.3291 126.095 59.4971V59.8486L125.392 61.2549V61.7822C125.392 61.8994 125.509 62.3682 125.743 63.1885C125.743 63.6572 125.509 64.0088 125.04 64.2432L124.688 64.0674C124.688 64.3604 124.337 64.7119 123.634 65.1221L122.755 64.9463H122.403L122.579 65.8252V66.3525C122.579 66.5869 122.403 66.7041 122.052 66.7041C122.052 68.4619 123.517 69.9268 126.446 71.0986C127.56 71.0986 129.376 71.04 131.896 70.9229C136.231 71.04 139.454 71.2158 141.563 71.4502H141.739C142.999 70.2783 143.702 69.6924 143.849 69.6924C145.489 69.4287 146.31 69.0186 146.31 68.4619C146.251 67.3193 145.899 66.0889 145.255 64.7705L145.431 64.4189C144.581 63.7744 143.468 63.2471 142.091 62.8369C140.509 61.1963 138.634 60.376 136.466 60.376C135.733 60.376 135.323 59.9072 135.235 58.9697C135.235 58.501 135.294 57.8564 135.411 57.0361C135.294 55.2783 135.118 54.2822 134.884 54.0479C135.001 53.4619 135.118 53.1689 135.235 53.1689C135.001 51.4404 134.884 49.7998 134.884 48.2471C134.884 48.1885 134.942 47.4268 135.06 45.9619C134.942 45.9619 134.884 45.9033 134.884 45.7861L135.235 45.6104C135.235 45.7861 135.47 46.0205 135.938 46.3135L137.169 45.4346C137.403 45.9033 137.755 46.1377 138.224 46.1377C138.282 45.9033 138.399 45.7861 138.575 45.7861H139.63V45.6104L139.454 45.2588C139.688 45.2588 139.806 45.1416 139.806 44.9072H140.333L141.212 44.7314C141.271 44.9658 141.388 45.083 141.563 45.083C141.563 44.2627 141.681 43.8525 141.915 43.8525H142.091L142.794 44.3799H142.97L143.849 43.8525C145.577 44.2627 146.69 44.6143 147.188 44.9072H147.364L148.243 44.7314C148.243 44.9365 148.829 45.4639 150.001 46.3135C150.851 47.3096 151.554 48.7158 152.11 50.5322L151.759 51.9385C151.993 51.9678 152.11 52.085 152.11 52.29L151.935 52.9932C151.935 53.2861 152.403 54.2822 153.341 55.9814C153.458 56.5967 153.517 56.9482 153.517 57.0361L153.165 59.3213C153.751 60.6982 154.513 63.5107 155.45 67.7588C156.3 68.5791 157.003 68.9893 157.56 68.9893H159.317C160.021 68.9893 161.31 69.3408 163.185 70.0439C163.946 69.9561 165.587 69.4287 168.106 68.4619H169.161C170.333 68.6963 170.978 68.8135 171.095 68.8135H171.622C172.003 68.8135 172.296 68.1689 172.501 66.8799L170.919 63.8916C169.454 62.1924 168.165 60.2002 167.052 57.915H167.228C166.144 55.5713 165.323 54.3994 164.767 54.3994C164.562 54.5166 164.386 54.5752 164.239 54.5752V54.3994C163.829 54.6338 163.302 54.751 162.657 54.751C161.896 54.751 161.251 53.6377 160.724 51.4111V51.2354C160.929 50.7666 161.339 50.5322 161.954 50.5322H163.185C163.507 50.5322 163.741 49.9463 163.888 48.7744V47.8955C163.888 45.4053 163.478 43.2959 162.657 41.5674C162.657 41.04 163.009 39.9268 163.712 38.2275C163.712 37.9639 163.946 37.7881 164.415 37.7002C164.942 35.9424 165.528 35.0635 166.173 35.0635C166.524 34.917 166.759 34.2139 166.876 32.9541C167.081 32.9541 167.257 32.8369 167.403 32.6025L167.052 31.8994L167.755 30.6689L167.403 29.9658L167.931 28.9111C167.521 28.5889 167.11 27.2412 166.7 24.8682C165.88 23.96 165.47 22.3193 165.47 19.9463C164.708 19.0674 163.653 17.6025 162.306 15.5518C160.929 14.1455 158.702 12.5049 155.626 10.6299C153.458 10.3955 151.173 9.86816 148.771 9.04785C147.979 8.93066 147.335 8.87207 146.837 8.87207C146.134 8.87207 144.435 9.04785 141.739 9.39941C139.425 9.04785 137.491 8.87207 135.938 8.87207H126.622C126.358 9.10645 126.124 9.22363 125.919 9.22363ZM147.188 16.958C148.888 17.0752 149.825 17.1338 150.001 17.1338C150.997 17.0166 151.759 16.958 152.286 16.958C153.253 16.958 154.483 17.8369 155.978 19.5947C157.735 21.0303 158.614 23.0811 158.614 25.7471C158.614 26.4209 157.56 28.1787 155.45 31.0205C155.45 32.4854 153.81 33.7744 150.528 34.8877C149.474 35.1221 148.712 35.2393 148.243 35.2393H147.716C144.054 34.8877 141.3 34.4775 139.454 34.0088C138.282 34.7119 137.462 35.0635 136.993 35.0635C135.118 35.0635 134.181 33.1885 134.181 29.4385C134.181 28.8232 135.177 27.3584 137.169 25.0439C137.403 24.2236 137.521 23.5205 137.521 22.9346V22.7588C137.521 22.085 137.403 20.9131 137.169 19.2432C137.374 18.1885 137.901 17.6611 138.751 17.6611L140.86 18.3643C142.735 17.4268 144.845 16.958 147.188 16.958ZM140.157 43.8525H140.333V44.2041H140.157V43.8525ZM176.614 0.874023C188.626 1.22559 196.009 1.40137 198.763 1.40137H199.993L225.481 3.33496H230.755C231.224 3.45215 231.458 4.03809 231.458 5.09277C231.458 8.93066 231.399 11.0986 231.282 11.5967C231.399 15.376 231.458 18.7158 231.458 21.6162V33.5693C231.458 42.4463 230.638 56.333 228.997 75.2295C228.997 75.9326 227.649 76.2842 224.954 76.2842H221.263C217.396 76.6357 212.298 76.8115 205.97 76.8115C195.804 76.46 188.069 75.7568 182.767 74.7021C177.962 73.5889 175.56 72.7686 175.56 72.2412L174.505 67.8467C174.388 60.0537 174.329 53.8428 174.329 49.2139V40.6006C174.563 34.7705 174.681 31.4893 174.681 30.7568V30.0537C175.735 13.3545 176.146 4.7998 175.911 4.38965V2.45605C175.911 1.54785 176.146 1.02051 176.614 0.874023ZM195.774 5.97168C193.694 5.62012 192.405 5.44434 191.907 5.44434H191.556C186.048 6.44043 183.294 7.31934 183.294 8.08105C183.06 9.19434 182.942 9.89746 182.942 10.1904C182.942 12.1826 184.114 13.1787 186.458 13.1787C187.747 14.4678 188.685 15.1123 189.271 15.1123C190.267 15.1123 191.204 14.9951 192.083 14.7607C196.536 15.083 198.763 15.8447 198.763 17.0459C198.997 17.0459 199.114 17.3975 199.114 18.1006C198.88 19.1553 198.763 19.917 198.763 20.3857V20.5615C199.817 22.7295 200.345 23.9014 200.345 24.0771C201.517 27.2705 202.103 29.0869 202.103 29.5264C201.399 32.5146 201.048 34.2139 201.048 34.624L201.751 37.085C201.312 38.3154 200.96 41.3623 200.696 46.2256V47.1045L202.806 52.2021V52.7295C202.806 53.2568 201.81 54.4873 199.817 56.4209C199.817 57.2705 198.06 58.0322 194.544 58.7061C194.104 58.7061 193.284 58.2373 192.083 57.2998C191.907 57.1826 191.614 57.124 191.204 57.124C190.003 58.4131 188.128 59.0576 185.579 59.0576C185.374 58.9404 185.14 58.8818 184.876 58.8818C184.319 59.2627 183.733 59.5557 183.118 59.7607C183.118 60.3174 182.532 61.0791 181.36 62.0459C181.36 62.251 180.892 63.0713 179.954 64.5068V64.8584L180.13 65.21C180.013 65.415 179.954 65.5908 179.954 65.7373C180.101 65.7373 180.687 66.499 181.712 68.0225L181.536 68.374V68.5498L181.888 68.374C182.767 69.6631 183.938 70.3076 185.403 70.3076L191.204 71.3623C191.614 71.3623 192.786 70.8936 194.72 69.9561L197.708 69.6045C198.147 69.6045 199.554 70.0732 201.927 71.0107H202.454C204.915 70.3076 206.438 69.9561 207.024 69.9561H208.431C208.753 69.9561 210.335 70.0732 213.177 70.3076C213.997 70.0732 216.575 69.8975 220.911 69.7803C221.761 69.8975 222.464 69.9561 223.021 69.9561C224.69 69.3115 226.155 67.6123 227.415 64.8584C226.712 61.8115 225.188 60.2881 222.845 60.2881L221.966 60.4639C221.263 60.4639 220.267 59.6436 218.978 58.0029C218.772 57.8857 218.538 57.8271 218.274 57.8271C217.308 58.4131 216.663 58.7061 216.341 58.7061C215.96 58.7061 215.55 57.8271 215.11 56.0693C214.173 55.6299 213.118 54.2822 211.946 52.0264C211.507 52.0264 211.038 51.0889 210.54 49.2139C210.54 49.126 210.599 48.7744 210.716 48.1592C210.716 45.2588 210.599 41.0986 210.364 35.6787C210.599 34.3896 210.716 33.042 210.716 31.6357V31.2842C210.481 26.5088 210.188 23.5791 209.837 22.4951C210.306 17.3389 211.36 14.7607 213.001 14.7607H214.407C215.608 14.7607 217.073 14.7021 218.802 14.585C220.062 14.9365 220.999 15.1123 221.614 15.1123C222.786 15.1123 224.368 13.6475 226.36 10.7178L226.536 9.66309V9.4873C226.536 8.02246 224.896 6.85059 221.614 5.97168C220.823 5.97168 219.944 6.14746 218.978 6.49902C217.776 6.38184 216.839 6.32324 216.165 6.32324C215.667 6.32324 214.612 6.44043 213.001 6.6748C212.444 6.6748 210.101 6.03027 205.97 4.74121C205.823 4.62402 205.413 4.56543 204.739 4.56543H204.563C199.642 5.50293 196.888 5.97168 196.302 5.97168H195.774ZM250.952 1.5332C254.438 1.5625 262.7 2.55859 275.737 4.52148H279.604C280.073 4.52148 280.835 4.4043 281.89 4.16992C282.329 5.3418 282.681 8.56445 282.944 13.8379V34.9316C281.89 61.0645 281.069 74.1309 280.483 74.1309C280.483 74.3652 280.366 74.4824 280.132 74.4824H278.374C274.917 74.7168 273.042 74.834 272.749 74.834H253.062C251.714 74.834 250.776 74.9512 250.249 75.1855C241.782 74.834 236.333 74.3066 233.901 73.6035C230.269 73.3105 228.452 72.9004 228.452 72.373V70.791C228.452 70.6152 228.569 69.209 228.804 66.5723C228.804 66.2793 228.687 63.4082 228.452 57.959V57.4316C228.687 54.502 228.804 52.9785 228.804 52.8613C228.804 43.8965 229.331 28.7207 230.386 7.33398V5.04883C230.386 3.29102 231.089 2.41211 232.495 2.41211C234.985 2.06055 236.919 1.88477 238.296 1.88477C239.409 1.88477 241.226 1.94336 243.745 2.06055C245.913 1.70898 248.315 1.5332 250.952 1.5332ZM246.03 5.57617H244.272L243.218 5.75195C243.101 5.75195 243.042 5.69336 243.042 5.57617L240.933 5.92773L240.054 5.57617C240.054 5.92773 239.819 6.10352 239.351 6.10352L238.472 5.92773C238.472 6.42578 237.593 6.77734 235.835 6.98242V6.63086L235.132 7.68555L234.253 7.50977V8.21289L234.429 9.0918L234.077 9.26758C233.872 9.15039 233.696 9.0918 233.55 9.0918V9.26758C233.667 9.47266 233.784 10 233.901 10.8496C233.55 10.9668 233.374 11.084 233.374 11.2012L233.55 11.5527C233.433 11.7578 233.374 11.9336 233.374 12.0801C233.608 12.1094 233.726 12.2266 233.726 12.4316C233.726 12.5781 233.55 12.7539 233.198 12.959C233.374 13.6035 233.55 14.0723 233.726 14.3652V14.541L233.374 15.0684V15.2441C233.784 15.625 234.312 16.6797 234.956 18.4082L235.308 18.2324H235.483C235.483 18.7012 235.718 18.9355 236.187 18.9355V19.1113L236.011 19.4629C236.128 19.4629 236.187 19.5215 236.187 19.6387L236.538 19.4629H236.714C237.886 21.3965 238.472 22.9785 238.472 24.209V24.5605C237.886 25.5566 237.593 26.4941 237.593 27.373C237.593 30.7129 237.886 33.4082 238.472 35.459L237.241 41.084V41.9629C237.241 42.5195 237.3 43.1055 237.417 43.7207C237.036 46.9434 236.685 49.1699 236.362 50.4004C235.22 51.6016 234.575 52.7148 234.429 53.7402C234.663 54.1211 234.78 54.4141 234.78 54.6191C234.78 55.6152 234.077 56.5527 232.671 57.4316V57.6074C232.905 57.6367 233.022 57.7539 233.022 57.959C233.022 58.4277 232.729 58.6621 232.144 58.6621V59.3652C232.202 59.5996 232.319 59.7168 232.495 59.7168L231.968 60.5957V61.123L232.319 61.6504V62.1777H231.968V62.3535C231.968 62.7637 232.202 63.2324 232.671 63.7598V63.9355L232.319 64.4629C232.319 64.6387 232.554 64.873 233.022 65.166L232.847 66.0449V66.3965L233.55 67.0996L233.374 67.9785C233.608 67.9785 233.901 68.2129 234.253 68.6816C234.253 68.5645 234.312 68.5059 234.429 68.5059C234.429 68.916 234.897 69.2676 235.835 69.5605L236.187 69.3848L237.417 69.9121L237.769 69.7363C237.886 69.7363 238.237 69.9707 238.823 70.4395L240.054 70.2637C240.112 70.498 240.229 70.6152 240.405 70.6152C242.075 70.1465 243.247 69.9121 243.921 69.9121C244.126 69.9121 245.063 70.1465 246.733 70.6152L255.171 69.3848C257.397 68.3594 258.921 67.3633 259.741 66.3965L259.39 65.6934C259.624 64.9902 259.8 64.6387 259.917 64.6387C259.302 63.2324 258.774 62.5293 258.335 62.5293C258.335 62.7637 258.218 62.8809 257.983 62.8809C257.515 62.0605 257.222 61.6504 257.104 61.6504C256.899 61.7676 256.665 61.8262 256.401 61.8262C256.079 61.123 255.259 60.5371 253.94 60.0684C253.94 60.1855 253.882 60.2441 253.765 60.2441C253.765 60.0977 253.003 59.3359 251.479 57.959C251.304 57.2559 251.069 56.9043 250.776 56.9043V56.7285C250.776 56.6113 250.835 56.5527 250.952 56.5527L250.776 56.2012V55.6738L250.952 55.3223C250.835 55.3223 250.425 54.7363 249.722 53.5645C248.784 52.5391 248.315 51.543 248.315 50.5762V49.3457L248.491 48.4668C248.228 48.4668 248.052 47.5879 247.964 45.8301L248.14 45.127L247.964 44.0723C249.487 42.6367 250.249 41.6406 250.249 41.084C251.04 41.2012 251.45 41.377 251.479 41.6113C251.714 41.4941 251.89 41.4355 252.007 41.4355C252.153 41.4355 252.329 41.4941 252.534 41.6113C253.003 41.4941 253.413 41.4355 253.765 41.4355C254.937 41.4355 255.874 42.7246 256.577 45.3027C256.782 45.3027 257.017 46.5918 257.28 49.1699C257.896 49.5215 259.888 50.3418 263.257 51.6309H263.608C263.843 51.6309 263.96 51.5137 263.96 51.2793V50.4004C263.96 50.2246 263.843 49.5801 263.608 48.4668C263.608 48.2031 263.667 47.9688 263.784 47.7637C263.667 47.5586 263.608 47.3242 263.608 47.0605V46.3574C263.667 46.123 263.784 46.0059 263.96 46.0059L263.784 45.6543V45.4785C263.843 44.6582 263.96 44.248 264.136 44.248L263.784 41.2598L263.96 40.3809L263.784 40.0293C264.019 39.1504 264.136 38.6816 264.136 38.623C263.901 38.2422 263.784 37.9492 263.784 37.7441L263.96 36.8652C263.726 36.4551 263.608 36.1035 263.608 35.8105V35.2832C263.608 35.166 263.667 35.1074 263.784 35.1074C263.667 34.873 263.608 34.6973 263.608 34.5801C263.491 32.6758 263.433 31.6211 263.433 31.416C263.55 31.416 263.608 31.3574 263.608 31.2402C263.374 31.2402 263.257 31.0645 263.257 30.7129L263.433 29.6582L263.257 28.7793L263.433 27.9004L263.257 26.6699C263.374 26.2598 263.433 26.0254 263.433 25.9668L263.257 24.9121L263.96 21.748C263.491 20.8105 262.847 20.3418 262.026 20.3418C262.026 20.5762 261.909 20.6934 261.675 20.6934H261.147C260.884 20.459 260.649 20.3418 260.444 20.3418C260.239 20.459 260.063 20.5176 259.917 20.5176C259.917 20.4004 259.858 20.3418 259.741 20.3418C259.741 20.5762 259.624 20.6934 259.39 20.6934H258.335C256.987 20.6934 256.167 21.0449 255.874 21.748V22.4512C255.874 22.8613 256.167 23.7988 256.753 25.2637C255.933 27.4902 254.995 28.6035 253.94 28.6035C249.722 28.3691 247.612 27.5488 247.612 26.1426L247.261 24.9121C247.378 23.7109 247.437 22.7734 247.437 22.0996V17.8809C248.198 16.9434 248.726 16.4746 249.019 16.4746H249.546C249.546 16.3574 249.897 16.2402 250.601 16.123L251.304 16.4746C251.362 16.2402 251.479 16.123 251.655 16.123H252.358L253.237 16.2988C253.237 15.9473 253.354 15.7715 253.589 15.7715C253.706 15.7715 253.765 15.8301 253.765 15.9473L254.116 15.7715H254.468L254.819 15.9473C254.878 15.7129 254.995 15.5957 255.171 15.5957H255.347C255.464 15.5957 255.522 15.6543 255.522 15.7715L255.874 15.5957H256.05L256.929 15.7715C256.929 15.5957 257.28 15.3613 257.983 15.0684L258.335 15.2441C258.745 15.2441 259.214 15.0684 259.741 14.7168L260.269 15.0684H260.444C260.708 15.0684 260.942 15.0098 261.147 14.8926H261.675V14.7168C263.315 14.8633 264.253 15.0391 264.487 15.2441C264.722 15.127 264.897 15.0684 265.015 15.0684C265.366 15.6543 266.538 16.2988 268.53 17.002C269.38 17.998 270.493 19.6387 271.87 21.9238L271.694 22.2754V23.5059H272.046V23.8574L271.694 24.3848V25.2637C271.987 25.2637 272.163 25.498 272.222 25.9668C272.075 25.9668 271.899 26.1426 271.694 26.4941V26.6699L272.749 28.7793L273.101 28.9551H273.979C275.386 28.9551 276.909 26.6113 278.55 21.9238C278.315 21.3965 278.14 20.4004 278.022 18.9355L278.198 18.0566C278.198 17.9102 278.14 17.7344 278.022 17.5293C278.14 16.8848 278.198 16.416 278.198 16.123C278.198 13.3105 277.026 10.5566 274.683 7.86133C273.862 7.30469 272.515 6.95312 270.64 6.80664C270.64 6.68945 270.581 6.63086 270.464 6.63086L269.585 6.80664C269.321 6.80664 269.087 6.74805 268.882 6.63086C267.065 6.77734 266.069 6.89453 265.894 6.98242C264.341 6.63086 262.817 6.39648 261.323 6.2793L260.972 6.45508L260.62 6.2793L260.269 6.45508L259.917 6.2793C259.448 6.39648 259.038 6.45508 258.687 6.45508C258.335 6.33789 258.159 6.2207 258.159 6.10352L257.28 6.2793H254.995C254.585 6.2793 254.058 6.2207 253.413 6.10352C253.267 6.2207 252.856 6.2793 252.183 6.2793L252.007 5.92773C251.538 6.16211 251.187 6.2793 250.952 6.2793L250.073 5.75195C249.868 5.86914 249.692 5.92773 249.546 5.92773V5.75195L249.194 5.92773H248.667L248.14 5.57617H246.558C246.44 5.57617 246.382 5.51758 246.382 5.40039L246.03 5.57617ZM302.438 1.5332C305.925 1.5625 314.187 2.55859 327.224 4.52148H331.091C331.56 4.52148 332.321 4.4043 333.376 4.16992C333.815 5.3418 334.167 8.56445 334.431 13.8379V34.9316C333.376 61.0645 332.556 74.1309 331.97 74.1309C331.97 74.3652 331.853 74.4824 331.618 74.4824H329.86C326.403 74.7168 324.528 74.834 324.235 74.834H304.548C303.2 74.834 302.263 74.9512 301.735 75.1855C293.269 74.834 287.819 74.3066 285.388 73.6035C281.755 73.3105 279.938 72.9004 279.938 72.373V70.791C279.938 70.6152 280.056 69.209 280.29 66.5723C280.29 66.2793 280.173 63.4082 279.938 57.959V57.4316C280.173 54.502 280.29 52.9785 280.29 52.8613C280.29 43.8965 280.817 28.7207 281.872 7.33398V5.04883C281.872 3.29102 282.575 2.41211 283.981 2.41211C286.472 2.06055 288.405 1.88477 289.782 1.88477C290.896 1.88477 292.712 1.94336 295.231 2.06055C297.399 1.70898 299.802 1.5332 302.438 1.5332ZM297.517 5.57617H295.759L294.704 5.75195C294.587 5.75195 294.528 5.69336 294.528 5.57617L292.419 5.92773L291.54 5.57617C291.54 5.92773 291.306 6.10352 290.837 6.10352L289.958 5.92773C289.958 6.42578 289.079 6.77734 287.321 6.98242V6.63086L286.618 7.68555L285.739 7.50977V8.21289L285.915 9.0918L285.563 9.26758C285.358 9.15039 285.183 9.0918 285.036 9.0918V9.26758C285.153 9.47266 285.271 10 285.388 10.8496C285.036 10.9668 284.86 11.084 284.86 11.2012L285.036 11.5527C284.919 11.7578 284.86 11.9336 284.86 12.0801C285.095 12.1094 285.212 12.2266 285.212 12.4316C285.212 12.5781 285.036 12.7539 284.685 12.959C284.86 13.6035 285.036 14.0723 285.212 14.3652V14.541L284.86 15.0684V15.2441C285.271 15.625 285.798 16.6797 286.442 18.4082L286.794 18.2324H286.97C286.97 18.7012 287.204 18.9355 287.673 18.9355V19.1113L287.497 19.4629C287.614 19.4629 287.673 19.5215 287.673 19.6387L288.024 19.4629H288.2C289.372 21.3965 289.958 22.9785 289.958 24.209V24.5605C289.372 25.5566 289.079 26.4941 289.079 27.373C289.079 30.7129 289.372 33.4082 289.958 35.459L288.728 41.084V41.9629C288.728 42.5195 288.786 43.1055 288.903 43.7207C288.522 46.9434 288.171 49.1699 287.849 50.4004C286.706 51.6016 286.062 52.7148 285.915 53.7402C286.149 54.1211 286.267 54.4141 286.267 54.6191C286.267 55.6152 285.563 56.5527 284.157 57.4316V57.6074C284.392 57.6367 284.509 57.7539 284.509 57.959C284.509 58.4277 284.216 58.6621 283.63 58.6621V59.3652C283.688 59.5996 283.806 59.7168 283.981 59.7168L283.454 60.5957V61.123L283.806 61.6504V62.1777H283.454V62.3535C283.454 62.7637 283.688 63.2324 284.157 63.7598V63.9355L283.806 64.4629C283.806 64.6387 284.04 64.873 284.509 65.166L284.333 66.0449V66.3965L285.036 67.0996L284.86 67.9785C285.095 67.9785 285.388 68.2129 285.739 68.6816C285.739 68.5645 285.798 68.5059 285.915 68.5059C285.915 68.916 286.384 69.2676 287.321 69.5605L287.673 69.3848L288.903 69.9121L289.255 69.7363C289.372 69.7363 289.724 69.9707 290.31 70.4395L291.54 70.2637C291.599 70.498 291.716 70.6152 291.892 70.6152C293.562 70.1465 294.733 69.9121 295.407 69.9121C295.612 69.9121 296.55 70.1465 298.22 70.6152L306.657 69.3848C308.884 68.3594 310.407 67.3633 311.228 66.3965L310.876 65.6934C311.11 64.9902 311.286 64.6387 311.403 64.6387C310.788 63.2324 310.261 62.5293 309.821 62.5293C309.821 62.7637 309.704 62.8809 309.47 62.8809C309.001 62.0605 308.708 61.6504 308.591 61.6504C308.386 61.7676 308.151 61.8262 307.888 61.8262C307.565 61.123 306.745 60.5371 305.427 60.0684C305.427 60.1855 305.368 60.2441 305.251 60.2441C305.251 60.0977 304.489 59.3359 302.966 57.959C302.79 57.2559 302.556 56.9043 302.263 56.9043V56.7285C302.263 56.6113 302.321 56.5527 302.438 56.5527L302.263 56.2012V55.6738L302.438 55.3223C302.321 55.3223 301.911 54.7363 301.208 53.5645C300.271 52.5391 299.802 51.543 299.802 50.5762V49.3457L299.978 48.4668C299.714 48.4668 299.538 47.5879 299.45 45.8301L299.626 45.127L299.45 44.0723C300.974 42.6367 301.735 41.6406 301.735 41.084C302.526 41.2012 302.937 41.377 302.966 41.6113C303.2 41.4941 303.376 41.4355 303.493 41.4355C303.64 41.4355 303.815 41.4941 304.021 41.6113C304.489 41.4941 304.899 41.4355 305.251 41.4355C306.423 41.4355 307.36 42.7246 308.063 45.3027C308.269 45.3027 308.503 46.5918 308.767 49.1699C309.382 49.5215 311.374 50.3418 314.743 51.6309H315.095C315.329 51.6309 315.446 51.5137 315.446 51.2793V50.4004C315.446 50.2246 315.329 49.5801 315.095 48.4668C315.095 48.2031 315.153 47.9688 315.271 47.7637C315.153 47.5586 315.095 47.3242 315.095 47.0605V46.3574C315.153 46.123 315.271 46.0059 315.446 46.0059L315.271 45.6543V45.4785C315.329 44.6582 315.446 44.248 315.622 44.248L315.271 41.2598L315.446 40.3809L315.271 40.0293C315.505 39.1504 315.622 38.6816 315.622 38.623C315.388 38.2422 315.271 37.9492 315.271 37.7441L315.446 36.8652C315.212 36.4551 315.095 36.1035 315.095 35.8105V35.2832C315.095 35.166 315.153 35.1074 315.271 35.1074C315.153 34.873 315.095 34.6973 315.095 34.5801C314.978 32.6758 314.919 31.6211 314.919 31.416C315.036 31.416 315.095 31.3574 315.095 31.2402C314.86 31.2402 314.743 31.0645 314.743 30.7129L314.919 29.6582L314.743 28.7793L314.919 27.9004L314.743 26.6699C314.86 26.2598 314.919 26.0254 314.919 25.9668L314.743 24.9121L315.446 21.748C314.978 20.8105 314.333 20.3418 313.513 20.3418C313.513 20.5762 313.396 20.6934 313.161 20.6934H312.634C312.37 20.459 312.136 20.3418 311.931 20.3418C311.726 20.459 311.55 20.5176 311.403 20.5176C311.403 20.4004 311.345 20.3418 311.228 20.3418C311.228 20.5762 311.11 20.6934 310.876 20.6934H309.821C308.474 20.6934 307.653 21.0449 307.36 21.748V22.4512C307.36 22.8613 307.653 23.7988 308.239 25.2637C307.419 27.4902 306.481 28.6035 305.427 28.6035C301.208 28.3691 299.099 27.5488 299.099 26.1426L298.747 24.9121C298.864 23.7109 298.923 22.7734 298.923 22.0996V17.8809C299.685 16.9434 300.212 16.4746 300.505 16.4746H301.032C301.032 16.3574 301.384 16.2402 302.087 16.123L302.79 16.4746C302.849 16.2402 302.966 16.123 303.142 16.123H303.845L304.724 16.2988C304.724 15.9473 304.841 15.7715 305.075 15.7715C305.192 15.7715 305.251 15.8301 305.251 15.9473L305.603 15.7715H305.954L306.306 15.9473C306.364 15.7129 306.481 15.5957 306.657 15.5957H306.833C306.95 15.5957 307.009 15.6543 307.009 15.7715L307.36 15.5957H307.536L308.415 15.7715C308.415 15.5957 308.767 15.3613 309.47 15.0684L309.821 15.2441C310.231 15.2441 310.7 15.0684 311.228 14.7168L311.755 15.0684H311.931C312.194 15.0684 312.429 15.0098 312.634 14.8926H313.161V14.7168C314.802 14.8633 315.739 15.0391 315.974 15.2441C316.208 15.127 316.384 15.0684 316.501 15.0684C316.853 15.6543 318.024 16.2988 320.017 17.002C320.866 17.998 321.979 19.6387 323.356 21.9238L323.181 22.2754V23.5059H323.532V23.8574L323.181 24.3848V25.2637C323.474 25.2637 323.649 25.498 323.708 25.9668C323.562 25.9668 323.386 26.1426 323.181 26.4941V26.6699L324.235 28.7793L324.587 28.9551H325.466C326.872 28.9551 328.396 26.6113 330.036 21.9238C329.802 21.3965 329.626 20.4004 329.509 18.9355L329.685 18.0566C329.685 17.9102 329.626 17.7344 329.509 17.5293C329.626 16.8848 329.685 16.416 329.685 16.123C329.685 13.3105 328.513 10.5566 326.169 7.86133C325.349 7.30469 324.001 6.95312 322.126 6.80664C322.126 6.68945 322.067 6.63086 321.95 6.63086L321.071 6.80664C320.808 6.80664 320.573 6.74805 320.368 6.63086C318.552 6.77734 317.556 6.89453 317.38 6.98242C315.827 6.63086 314.304 6.39648 312.81 6.2793L312.458 6.45508L312.106 6.2793L311.755 6.45508L311.403 6.2793C310.935 6.39648 310.524 6.45508 310.173 6.45508C309.821 6.33789 309.646 6.2207 309.646 6.10352L308.767 6.2793H306.481C306.071 6.2793 305.544 6.2207 304.899 6.10352C304.753 6.2207 304.343 6.2793 303.669 6.2793L303.493 5.92773C303.024 6.16211 302.673 6.2793 302.438 6.2793L301.56 5.75195C301.354 5.86914 301.179 5.92773 301.032 5.92773V5.75195L300.681 5.92773H300.153L299.626 5.57617H298.044C297.927 5.57617 297.868 5.51758 297.868 5.40039L297.517 5.57617ZM350.761 3.55469L366.933 4.43359H370.272C372.265 4.46289 373.261 4.58008 373.261 4.78516L373.612 4.60938H376.601C382.226 4.60938 385.038 5.01953 385.038 5.83984V6.01562C385.858 16.6504 386.269 22.7441 386.269 24.2969V54.8828C386.034 58.3398 385.917 60.2148 385.917 60.5078V62.6172C385.155 71.1719 384.394 75.4492 383.632 75.4492H383.104C376.894 75.6836 373.437 75.8008 372.733 75.8008H364.823C355.419 74.9805 349.208 74.5703 346.19 74.5703H344.608C336.288 74.0723 332.128 73.0176 332.128 71.4062V65.7812C332.128 64.9609 331.952 62.3242 331.601 57.8711C331.718 41.3477 332.011 30.1562 332.479 24.2969V13.0469C332.714 10.2051 332.831 8.62305 332.831 8.30078V6.54297C331.952 6.54297 331.483 6.36719 331.425 6.01562C331.425 4.72656 333.065 4.08203 336.347 4.08203H341.093C341.942 4.08203 345.165 3.90625 350.761 3.55469ZM362.011 9.17969H358.144C357.323 9.17969 356.21 9.0625 354.804 8.82812C353.31 9.29688 352.431 9.53125 352.167 9.53125H351.464C350.966 9.53125 350.321 9.35547 349.53 9.00391C341.913 9.00391 338.104 9.47266 338.104 10.4102C337.841 10.9961 337.548 11.2891 337.226 11.2891C337.343 11.5234 337.401 11.6992 337.401 11.8164L336.522 13.2227L336.698 14.2773L336.347 14.9805C337.548 15.4199 338.485 16.4746 339.159 18.1445C340.331 19.4922 340.917 20.4883 340.917 21.1328C340.917 21.2207 340.8 22.041 340.565 23.5938L341.62 27.6367L340.741 30.4492C340.741 30.7422 341.034 31.7969 341.62 33.6133C341.474 33.7598 341.356 34.5801 341.269 36.0742C341.737 37.0703 341.972 37.8906 341.972 38.5352C341.034 40.7324 340.565 42.0801 340.565 42.5781C340.8 43.9844 340.976 46.6211 341.093 50.4883C341.093 51.3086 340.565 52.4219 339.511 53.8281V54.5312C340.214 56.0254 340.565 56.8457 340.565 56.9922V57.5195C339.687 59.7461 338.104 61.5039 335.819 62.793C335.819 62.8516 335.468 63.2031 334.765 63.8477C335.146 65.1074 335.614 66.2793 336.171 67.3633C337.489 68.7402 339.013 69.6777 340.741 70.1758C340.741 70.3516 341.034 70.5859 341.62 70.8789L341.972 70.7031H342.147C342.265 70.7031 342.323 70.7617 342.323 70.8789C342.704 70.6445 342.997 70.5273 343.202 70.5273L344.081 70.7031C344.081 70.5273 344.257 70.3516 344.608 70.1758L345.487 70.7031H345.663L346.366 70.1758C346.483 70.1758 346.659 70.2344 346.894 70.3516L350.585 69.1211C353.251 69.9707 355.302 70.498 356.737 70.7031C356.854 70.7031 357.03 70.6445 357.265 70.5273C357.646 70.7617 357.997 70.8789 358.319 70.8789L362.187 69.4727H362.538C365.116 69.6777 366.405 69.8535 366.405 70C366.728 69.8828 367.841 69.707 369.745 69.4727C371.972 69.8242 373.964 70 375.722 70C380.175 68.7988 382.401 67.3926 382.401 65.7812L382.226 65.4297C382.108 63.291 382.05 61.8848 382.05 61.2109C382.05 61.0938 382.108 60.625 382.226 59.8047C381.522 57.8125 381.171 56.582 381.171 56.1133C381.171 55.4688 381.347 54.8242 381.698 54.1797L381.522 53.8281L381.874 52.9492C381.874 51.3965 381.171 49.7559 379.765 48.0273C379.765 47.3535 379.296 46.9434 378.358 46.7969H377.655C374.608 47.2363 373.085 47.998 373.085 49.082C373.085 49.4629 373.026 49.7559 372.909 49.9609C373.026 50.166 373.085 50.4004 373.085 50.6641C373.085 51.0449 373.026 51.3379 372.909 51.543C373.026 52.7441 373.378 54.1504 373.964 55.7617C373.964 55.8789 373.905 55.9375 373.788 55.9375L373.964 56.2891C373.847 56.4941 373.788 56.7285 373.788 56.9922C374.14 56.9922 374.315 57.1094 374.315 57.3438V57.8711C373.583 58.5156 372.118 59.2773 369.921 60.1562C369.54 60.8594 368.896 61.2109 367.987 61.2109L362.89 60.5078H362.362C359.638 60.9766 357.88 61.2109 357.089 61.2109H356.913C353.046 61.2109 351.112 60.5078 351.112 59.1016C350.526 58.252 350.233 57.1973 350.233 55.9375L350.761 53.8281L349.882 49.4336L350.233 48.3789C350.116 47.9688 350.058 47.7344 350.058 47.6758C350.116 46.8555 350.233 46.4453 350.409 46.4453L350.233 46.0938C350.233 45.8301 350.292 45.5957 350.409 45.3906C350.409 45.2734 350.351 45.2148 350.233 45.2148C350.468 43.6328 350.819 42.3438 351.288 41.3477C351.405 40.4102 351.581 39.9414 351.815 39.9414H352.167C354.394 40.2637 355.507 40.6152 355.507 40.9961L356.21 40.8203C358.437 40.8203 359.55 41.4062 359.55 42.5781C359.55 42.6953 359.491 42.7539 359.374 42.7539C359.608 44.2773 359.843 45.1562 360.077 45.3906C359.96 47.6465 359.901 49.1113 359.901 49.7852C360.282 51.8945 361.22 52.9492 362.714 52.9492C365.409 52.3633 366.757 51.4844 366.757 50.3125C366.171 44.1016 365.644 40.9961 365.175 40.9961L364.647 39.2383C364.765 38.4473 364.823 37.8027 364.823 37.3047C364.589 36.25 364.472 35.4883 364.472 35.0195C365.761 32.6172 366.405 30.918 366.405 29.9219C366.288 29.5117 366.229 29.2773 366.229 29.2188L366.405 28.3398C366.405 25.9961 365.937 24.8242 364.999 24.8242C364.149 24.707 363.329 24.5312 362.538 24.2969C362.538 24.5312 362.421 24.6484 362.187 24.6484V24.4727L361.835 24.6484C361.425 24.4141 361.073 24.2969 360.78 24.2969C360.165 24.4141 359.813 24.4727 359.726 24.4727C359.726 24.2383 359.608 24.1211 359.374 24.1211C358.202 24.6191 357.616 25.6152 357.616 27.1094C357.763 27.9297 357.938 28.3398 358.144 28.3398C358.144 30.127 357.558 31.2988 356.386 31.8555H356.21C355.8 31.6211 355.214 31.4453 354.452 31.3281C354.452 31.5625 354.335 31.6797 354.101 31.6797C353.925 31.2988 352.929 30.6543 351.112 29.7461L350.937 29.3945C350.937 29.2773 350.995 29.2188 351.112 29.2188C350.585 28.7207 350.058 27.9004 349.53 26.7578C349.237 26.7578 348.944 26.0547 348.651 24.6484L349.003 24.4727L349.53 24.8242H349.706V23.418H349.354V23.0664H349.53L349.882 23.2422L349.354 20.6055C349.589 20.2246 349.706 19.873 349.706 19.5508L349.354 18.8477L349.706 18.6719C349.911 18.7891 350.087 18.8477 350.233 18.8477L350.409 18.4961V17.4414H350.937C350.995 17.4414 351.171 17.5586 351.464 17.793H351.64V16.9141L351.815 16.5625C352.284 16.6504 352.519 16.7676 352.519 16.9141C352.665 16.9141 352.958 16.6211 353.397 16.0352C353.778 16.2695 354.13 16.3867 354.452 16.3867C354.804 16.3867 354.979 16.0352 354.979 15.332H355.155C355.39 15.332 355.507 15.5078 355.507 15.8594H356.21L356.913 14.9805L357.792 15.5078H358.144C358.144 15.2441 358.378 15.0098 358.847 14.8047C358.847 14.9512 359.14 15.1855 359.726 15.5078H359.901C359.96 15.0391 360.136 14.8047 360.429 14.8047C360.81 15.1562 361.278 15.332 361.835 15.332C361.835 14.9805 362.069 14.8047 362.538 14.8047C362.538 15.0098 362.831 15.1855 363.417 15.332C363.446 15.0977 363.563 14.9805 363.769 14.9805C363.886 14.9805 364.999 15.2734 367.108 15.8594C368.251 15.3906 369.188 15.1562 369.921 15.1562C370.097 15.1562 370.858 15.9766 372.206 17.6172C373.026 17.998 373.437 18.5254 373.437 19.1992V19.375C373.437 19.6387 372.968 20.5762 372.03 22.1875V24.1211L372.382 24.6484C372.382 24.7656 372.323 24.8242 372.206 24.8242C372.821 28.1055 374.462 29.7461 377.128 29.7461C378.388 29.7461 379.149 28.75 379.413 26.7578C379.062 24.9414 378.886 23.7109 378.886 23.0664C378.886 22.5684 378.944 21.9238 379.062 21.1328C378.827 19.375 378.71 18.2617 378.71 17.793C378.944 16.6211 379.062 15.625 379.062 14.8047C377.919 11.1719 376.044 9.35547 373.437 9.35547C371.181 8.76953 368.544 8.35937 365.526 8.125H365.351C363.534 8.82812 362.421 9.17969 362.011 9.17969Z" fill="white"/>
</svg>
